M48
;Layer_Color=9474304
;FILE_FORMAT=4:4
METRIC
;TYPE=PLATED
T01F00S00C0.3000
T02F00S00C0.6000
T03F00S00C0.9000
T05F00S00C1.0000
T06F00S00C1.0500
T07F00S00C1.1000
T08F00S00C1.1500
T09F00S00C1.2400
T10F00S00C1.3300
T11F00S00C1.3900
T12F00S00C1.4000
%
T01
X00011000Y00010500
Y00071000
X00076000
Y00010500
X00141000
X00136000Y00093500
X00106000Y00102500
X00144000Y00116000
X00157500Y00104500
X00174000Y00107500
X00205500Y00099000
X00226000Y00093500
X00224000Y00114500
X00262000
X00256000Y00102500
X00296500Y00103000
X00280000Y00124500
X00271000Y00076000
X00265500Y00058500
X00283000Y00033000
X00271000Y00010500
X00331000
X00330500Y00073000
X00368000
X00398000Y00058000
X00408000Y00033000
X00396000Y00010500
X00456000
X00455000Y00073000
X00493000
X00521000Y00066000
X00526000Y00092000
Y00101500
X00480000
X00401000Y00092000
X00390500Y00110000
X00365500Y00117000
X00340000Y00103000
X00411000Y00125000
X00533000Y00036000
X00521000Y00010500
X00206000
X00182000Y00058500
X00596000Y00010500
X00661000
X00661000Y00071000
X00747000Y00083000
X00805000Y00071000
Y00010500
X00726000
X00608000Y00124500
X00620000Y00258500
Y00296500
X00581000Y00314000
X00545000Y00307000
X00558500Y00262000
X00566000Y00354000
X00581000Y00365000
X00568500Y00394000
X00570500Y00402500
X00571000Y00411500
X00556000Y00385500
X00610000Y00390000
X00620000Y00379500
X00684000Y00369000
Y00394000
Y00495000
Y00520000
X00623000
Y00495000
X00560500Y00485000
X00543500Y00461000
X00751500Y00517000
X00805000Y00491000
Y00431000
Y00371000
Y00311000
Y00251000
Y00191000
Y00131000
X00684000Y00243000
Y00268000
X00525000Y00297500
X00510500Y00283500
X00481000Y00270500
X00452000Y00254500
X00392000Y00252000
X00387500Y00220000
X00338000
X00323000Y00229000
X00328000Y00195500
X00308500Y00203500
X00290000Y00209500
X00256000
X00228000
X00219000
X00208500
X00193500Y00201500
Y00185500
X00203000Y00170500
X00206000Y00157000
X00191000Y00142500
X00149500Y00165000
X00148000Y00185500
Y00201500
X00162000Y00236000
X00160000Y00248000
X00181000Y00260000
X00170000Y00281500
X00208500Y00283500
X00217000Y00285500
X00219000Y00294500
Y00322500
X00241000Y00324000
X00232000Y00348000
X00258500Y00365500
Y00375000
X00248000Y00385000
X00277500Y00392000
X00284000Y00365500
X00270000Y00341000
X00306500Y00327000
X00302000Y00302500
X00283000Y00294500
X00256000
Y00278000
Y00247000
X00293500
Y00278000
X00325500Y00271000
X00340500Y00269500
X00335500Y00299500
X00361000Y00318000
X00364500Y00343000
X00389000Y00333000
X00420000Y00340500
X00437500Y00347500
X00447500Y00332000
X00431000Y00313000
X00420500Y00312000
X00478500Y00326000
X00495500Y00314500
X00503000Y00353500
X00535000Y00360000
X00533000Y00375500
X00521500Y00385500
X00521000Y00413000
X00523000Y00431000
X00493500Y00428500
X00490000Y00407000
X00462500
X00462500Y00397000
X00462000Y00386500
X00462500Y00417000
X00432500Y00418500
Y00410500
Y00402500
X00423500
Y00410500
Y00418500
X00422000Y00434500
Y00442500
Y00450500
X00433000
Y00442500
Y00434500
X00444000
Y00442500
Y00450500
X00476000Y00440000
X00476500Y00465500
X00494000Y00477000
X00444000Y00508500
Y00516500
X00433000
Y00508500
X00422000
Y00516500
X00404000Y00426500
X00379500Y00433500
X00346500Y00441500
Y00450000
Y00458500
Y00467000
X00338000
Y00458500
Y00450000
Y00441500
X00329500
X00321000
Y00450000
X00329500
Y00458500
Y00467000
Y00475500
X00321000
Y00484000
Y00467000
Y00458500
X00316000Y00430000
X00308000
X00300000
X00292000
X00284000
X00276000
X00268000
X00260000
X00252000
X00248000Y00441500
X00239500
Y00450000
X00248000
Y00458500
X00239500
Y00467000
Y00475500
Y00484000
Y00492500
Y00501000
X00248000
Y00492500
Y00484000
Y00475500
Y00467000
Y00509500
X00199500Y00500500
X00182500
X00165500
X00148500
Y00483500
X00165500
X00182500
X00199500
Y00466500
Y00449500
X00182500
Y00466500
X00165500
Y00449500
X00148500
Y00466500
X00182500Y00432500
X00199500
Y00415500
X00182500
X00216500Y00397500
X00340000Y00380000
X00327500Y00356000
X00383000Y00365500
Y00375000
X00393500Y00402500
X00529500Y00334500
X00509500Y00237500
X00480500Y00186000
X00467000Y00139000
X00352500
X00355500Y00179000
X00291500Y00161000
X00258500Y00172000
X00235000Y00181500
X00227000Y00181500
X00208500Y00247000
X00126500Y00254500
X00097000Y00243500
X00106500Y00230000
X00072500Y00244000
Y00262500
X00071000Y00311000
X00011000
Y00251000
Y00191000
X00057500Y00193500
X00121000
X00132500Y00128500
X00011000Y00131000
Y00371000
X00079000Y00397000
X00110500
Y00379500
X00114500Y00415500
Y00432500
X00131500
Y00415500
Y00449500
Y00466500
X00114500
Y00449500
Y00483500
Y00500500
X00131500
Y00483500
X00079500Y00498000
Y00506500
X00061000Y00498000
X00011000Y00491000
X00129500Y00315000
X00141000Y00559000
X00076000
X00011000
X00209500
X00274500
X00339500
X00415000
X00433000Y00524500
X00444000
X00480000Y00559000
X00546500
X00610000
X00675000
X00740000
X00805000
T02
X00303000Y00079000
X00315000Y00105500
X00428000Y00095000
X00428000Y00079000
X00628500Y00083000
X00644500
X00641500Y00107500
X00573500Y00130500
X00560500
Y00162500
X00573500
Y00182500
X00560500
Y00217500
Y00229500
X00573500
Y00217500
X00606000
Y00229500
X00618500
Y00331500
Y00355500
X00566500Y00309000
X00562000Y00440500
X00550000
X00544000Y00450500
X00556000
X00568000
X00618500Y00457500
Y00481500
X00728500Y00418500
X00740000Y00412500
Y00400500
X00728500Y00394500
Y00292500
X00740000Y00286500
Y00274500
X00728500Y00268500
Y00166500
X00740000Y00160500
X00752500
X00534500Y00194500
Y00206500
X00522000
Y00194500
X00380500Y00481000
X00368500
X00374500Y00491500
X00386500
X00200500Y00365000
X00187000
X00160500Y00352000
X00148500
X00161000Y00313500
X00175000
X00109500Y00285000
X00084500Y00297500
X00069000Y00230500
X00050000Y00423500
X00013000Y00421500
X00063000Y00488000
X00077500
Y00475500
X00070500Y00498000
X00363000Y00527000
Y00539500
Y00552000
X00350000
X00376000
Y00539500
Y00527000
X00389000Y00539500
Y00552000
X00402000
X00469500Y00548000
Y00536000
X00481500
Y00548000
T03
X00106000Y00040000
X00126000
X00146000
X00216000
X00236000
X00256000
T05
X00420500Y00217500
X00407800Y00230500
X00433200
X00383500Y00293500
X00370500Y00280800
Y00306200
T06
X00036000Y00350000
Y00375000
T07
X00314800Y00040000
X00340200
X00365600
X00391000
X00439800
X00465200
X00490600
X00516000
X00569800
X00595200
X00620600
X00646000
T08
X00027500Y00217450
Y00282550
T09
X00154500Y00393000
X00179900
X00129100
T10
X00704545Y00183500
Y00217500
Y00251500
Y00309500
Y00343500
Y00377500
X00704495Y00435500
Y00469500
Y00503500
X00746405Y00486500
Y00452500
X00746455Y00360500
Y00326500
Y00234500
Y00200500
T11
X00594500Y00444100
Y00494900
T12
X00718391Y00110000
X00769191
M30
