G04*
G04 #@! TF.GenerationSoftware,Altium Limited,Altium Designer,23.11.1 (41)*
G04*
G04 Layer_Physical_Order=1*
G04 Layer_Color=255*
%FSAX44Y44*%
%MOMM*%
G71*
G04*
G04 #@! TF.SameCoordinates,364ED4AD-CB4B-4712-B5C5-B547B387D418*
G04*
G04*
G04 #@! TF.FilePolarity,Positive*
G04*
G01*
G75*
%ADD10C,0.3000*%
%ADD13C,0.2000*%
%ADD19R,1.1500X0.6000*%
%ADD20R,2.4000X3.4000*%
%ADD21R,0.8100X0.9900*%
%ADD22R,0.9900X0.8100*%
%ADD23R,1.8923X1.4986*%
%ADD24R,1.5200X2.1800*%
%ADD25R,0.9500X1.4500*%
%ADD26R,1.2000X0.4500*%
%ADD27R,1.4000X1.6000*%
%ADD28R,1.9000X1.9000*%
%ADD29R,3.2000X1.0000*%
%ADD30R,1.4500X0.4500*%
%ADD31R,0.3000X0.7500*%
%ADD32R,1.4500X0.9500*%
%ADD33R,1.5000X0.6000*%
%ADD34R,1.0200X1.4700*%
%ADD35R,1.3500X0.4500*%
%ADD36R,0.6500X1.5250*%
%ADD37R,1.0000X1.0000*%
%ADD38R,1.3000X0.9000*%
%ADD39R,0.6000X1.1500*%
%ADD40R,1.8000X1.1700*%
%ADD41R,2.7400X4.7500*%
%ADD42R,0.6000X1.5000*%
%ADD43R,2.2000X0.6100*%
%ADD44R,0.3000X0.8500*%
%ADD45R,1.6000X1.3000*%
%ADD46R,1.4000X0.6000*%
%ADD47R,0.6000X1.2500*%
%ADD48R,1.5000X2.1000*%
%ADD49R,1.3500X0.4000*%
%ADD50R,0.8000X2.2000*%
%ADD51R,5.8000X6.4000*%
G04:AMPARAMS|DCode=52|XSize=1.1mm|YSize=3.7mm|CornerRadius=0.0825mm|HoleSize=0mm|Usage=FLASHONLY|Rotation=90.000|XOffset=0mm|YOffset=0mm|HoleType=Round|Shape=RoundedRectangle|*
%AMROUNDEDRECTD52*
21,1,1.1000,3.5350,0,0,90.0*
21,1,0.9350,3.7000,0,0,90.0*
1,1,0.1650,1.7675,0.4675*
1,1,0.1650,1.7675,-0.4675*
1,1,0.1650,-1.7675,-0.4675*
1,1,0.1650,-1.7675,0.4675*
%
%ADD52ROUNDEDRECTD52*%
%ADD53C,1.0000*%
%ADD96C,1.7500*%
%ADD103C,0.5000*%
%ADD104C,0.6000*%
%ADD105C,0.4500*%
%ADD106R,1.9000X0.7500*%
%ADD107R,1.6000X1.1000*%
%ADD108R,0.8000X1.9000*%
%ADD109R,1.9000X8.3000*%
%ADD110R,4.1000X1.7500*%
%ADD111R,4.1000X1.7500*%
%ADD112O,2.5000X1.5000*%
%ADD113R,1.8600X1.8600*%
%ADD114C,1.8600*%
%ADD115C,1.9950*%
%ADD116R,1.9950X1.9950*%
%ADD117C,1.5750*%
%ADD118C,1.5000*%
%ADD119R,1.6500X1.6500*%
%ADD120C,1.6500*%
%ADD121C,1.3500*%
%ADD122R,1.3500X1.3500*%
%ADD123C,2.0850*%
%ADD124R,2.0850X2.0850*%
%ADD125C,2.1000*%
%ADD126R,2.1000X2.1000*%
%ADD127C,0.6000*%
%ADD128C,1.0000*%
G36*
X00809000Y00007000D02*
X00007000D01*
Y00563000D01*
X00809000D01*
Y00007000D01*
D02*
G37*
%LPC*%
G36*
X00780000Y00556059D02*
X00780000Y00556059D01*
X00535000D01*
X00535000Y00556059D01*
X00535000Y00556059D01*
X00507000D01*
X00507000Y00556059D01*
X00507000Y00556059D01*
X00467000D01*
X00467000Y00556059D01*
X00465830Y00555826D01*
X00464837Y00555163D01*
X00462337Y00552663D01*
X00461674Y00551671D01*
X00461441Y00550500D01*
X00461441Y00550500D01*
Y00540441D01*
X00449000Y00528000D01*
Y00430500D01*
X00446250Y00427750D01*
X00436250D01*
Y00412250D01*
X00456750D01*
Y00412469D01*
X00458020Y00412995D01*
X00459101Y00411913D01*
X00461306Y00411000D01*
X00463694D01*
X00464500Y00410461D01*
Y00410250D01*
X00478500D01*
X00478500Y00410250D01*
X00479500D01*
Y00410250D01*
X00479770Y00410250D01*
X00488500D01*
Y00416557D01*
X00488588Y00417000D01*
Y00442500D01*
X00488239Y00444256D01*
X00487755Y00444980D01*
X00488434Y00446250D01*
X00498250D01*
Y00466750D01*
X00490450D01*
Y00482941D01*
X00511000D01*
X00511459Y00481738D01*
Y00472545D01*
X00528818D01*
X00529344Y00471275D01*
X00529035Y00470965D01*
X00527819Y00469146D01*
X00527392Y00467000D01*
Y00426108D01*
X00516500D01*
X00514354Y00425681D01*
X00512535Y00424465D01*
X00504535Y00416465D01*
X00503319Y00414646D01*
X00502892Y00412500D01*
Y00390392D01*
X00500750Y00388250D01*
X00480750D01*
Y00374750D01*
X00474250Y00368250D01*
X00453750D01*
Y00352750D01*
Y00348250D01*
Y00332750D01*
Y00319035D01*
X00452480Y00318509D01*
X00441744Y00329244D01*
X00440256Y00330239D01*
X00438500Y00330588D01*
X00373283D01*
X00372896Y00331427D01*
X00372847Y00331858D01*
X00377244Y00336256D01*
X00378239Y00337744D01*
X00378588Y00339500D01*
Y00346750D01*
X00380000D01*
Y00351412D01*
X00385000D01*
Y00350000D01*
X00405000D01*
Y00362000D01*
X00405000D01*
Y00369000D01*
X00405000D01*
Y00381000D01*
X00385000D01*
Y00381000D01*
X00384691Y00380794D01*
X00384193Y00381000D01*
X00381807D01*
X00379601Y00380087D01*
X00377914Y00378399D01*
X00377000Y00376194D01*
Y00373806D01*
X00377914Y00371601D01*
X00379265Y00370250D01*
X00377914Y00368899D01*
X00377000Y00366693D01*
Y00365250D01*
X00368000D01*
Y00349419D01*
X00366730Y00348571D01*
X00365694Y00349000D01*
X00363307D01*
X00362270Y00348571D01*
X00361000Y00349419D01*
Y00365250D01*
X00349000D01*
Y00363681D01*
X00347950Y00363150D01*
X00333108D01*
Y00390802D01*
X00334281Y00391288D01*
X00340035Y00385535D01*
X00341854Y00384319D01*
X00344000Y00383892D01*
X00408608D01*
X00410000Y00382500D01*
Y00369000D01*
X00430000D01*
Y00370350D01*
X00445450D01*
Y00372812D01*
X00463900D01*
X00465656Y00373161D01*
X00467144Y00374156D01*
X00477244Y00384256D01*
X00478239Y00385744D01*
X00478588Y00387500D01*
Y00389385D01*
X00479500Y00390250D01*
X00479858Y00390250D01*
X00488500D01*
Y00403750D01*
X00479770D01*
X00479500Y00403750D01*
X00478500D01*
X00478230Y00403750D01*
X00464500D01*
Y00403539D01*
X00463694Y00403000D01*
X00461306D01*
X00459101Y00402087D01*
X00457413Y00400399D01*
X00456500Y00398194D01*
Y00395807D01*
X00457413Y00393601D01*
X00459101Y00391913D01*
X00461306Y00391000D01*
X00463694D01*
X00464500Y00390461D01*
Y00390250D01*
X00468465D01*
X00468991Y00388980D01*
X00462000Y00381988D01*
X00445450D01*
Y00384450D01*
X00443108D01*
Y00385500D01*
X00442681Y00387646D01*
X00441465Y00389465D01*
X00437465Y00393465D01*
X00435646Y00394681D01*
X00433500Y00395108D01*
X00378892D01*
X00375750Y00398250D01*
Y00418750D01*
X00374200Y00420300D01*
Y00438050D01*
X00384950D01*
Y00438397D01*
X00388103D01*
X00391000Y00435500D01*
Y00429500D01*
X00396050Y00424450D01*
Y00410350D01*
X00411950D01*
Y00424450D01*
X00417500Y00430000D01*
Y00461000D01*
X00414000D01*
Y00462000D01*
X00396500D01*
Y00470941D01*
X00411000D01*
X00411296Y00471000D01*
X00414000D01*
Y00472000D01*
X00417500D01*
Y00493500D01*
X00414000D01*
Y00494500D01*
X00411296D01*
X00411000Y00494559D01*
X00396500D01*
Y00511500D01*
X00356000D01*
X00355559Y00511941D01*
Y00536500D01*
X00355559Y00536500D01*
X00355326Y00537671D01*
X00354663Y00538663D01*
X00338163Y00555163D01*
X00337170Y00555826D01*
X00336000Y00556059D01*
X00336000Y00556059D01*
X00022000Y00556059D01*
X00022000Y00556059D01*
X00020829Y00555826D01*
X00019837Y00555163D01*
X00019837Y00555163D01*
X00013837Y00549163D01*
X00013837Y00549163D01*
X00013174Y00548171D01*
X00012941Y00547000D01*
X00012941Y00547000D01*
Y00517000D01*
Y00498159D01*
X00013925Y00497175D01*
Y00487825D01*
X00013941Y00487745D01*
Y00470233D01*
X00019441Y00464733D01*
Y00451750D01*
Y00439750D01*
X00019500Y00439454D01*
Y00438250D01*
X00019500D01*
Y00423750D01*
X00032205D01*
X00032500Y00423691D01*
X00035500Y00423691D01*
X00035796Y00423750D01*
X00043500D01*
Y00427850D01*
X00044264Y00428614D01*
X00045250Y00429250D01*
Y00429250D01*
X00045250Y00429250D01*
X00080750D01*
Y00449750D01*
X00079750D01*
Y00469750D01*
X00059750D01*
X00057150Y00472350D01*
Y00484450D01*
X00057059D01*
Y00487743D01*
X00057075Y00487825D01*
Y00497175D01*
Y00508575D01*
X00061500Y00513000D01*
X00077500D01*
X00082941Y00507559D01*
Y00365500D01*
X00083174Y00364329D01*
X00083837Y00363337D01*
X00095837Y00351337D01*
X00096829Y00350674D01*
X00098000Y00350441D01*
X00098000Y00350441D01*
X00132000D01*
X00133170Y00350674D01*
X00134163Y00351337D01*
X00134163Y00351337D01*
X00139876Y00357050D01*
X00140650D01*
Y00357824D01*
X00140663Y00357837D01*
X00141326Y00358829D01*
X00141559Y00360000D01*
X00141559Y00360000D01*
Y00403500D01*
X00141400Y00404298D01*
Y00405300D01*
X00140905D01*
X00140663Y00405663D01*
X00139670Y00406326D01*
X00138500Y00406559D01*
X00117500D01*
X00116329Y00406326D01*
X00115337Y00405663D01*
X00114674Y00404670D01*
X00114441Y00403500D01*
Y00378267D01*
X00111733Y00375559D01*
X00109767D01*
X00107059Y00378267D01*
Y00508733D01*
X00112267Y00513941D01*
X00208733D01*
X00213941Y00508733D01*
Y00414500D01*
X00213941Y00414500D01*
X00214174Y00413330D01*
X00214837Y00412337D01*
X00214837Y00412337D01*
X00228837Y00398337D01*
X00229830Y00397674D01*
X00231000Y00397441D01*
X00231000Y00397441D01*
X00277000D01*
X00277295Y00397500D01*
X00280100D01*
Y00425500D01*
X00277295D01*
X00277000Y00425559D01*
X00248950D01*
Y00425650D01*
X00235676D01*
X00234559Y00426767D01*
Y00508733D01*
X00239767Y00513941D01*
X00316233D01*
X00318941Y00511233D01*
Y00504000D01*
Y00491500D01*
X00318941Y00491500D01*
X00319174Y00490329D01*
X00319837Y00489337D01*
X00337337Y00471837D01*
X00338330Y00471174D01*
X00339500Y00470941D01*
X00339500Y00470941D01*
X00373250D01*
Y00453950D01*
X00370850D01*
Y00439350D01*
X00358000D01*
Y00421000D01*
X00355750Y00418750D01*
X00341303D01*
X00340176Y00418976D01*
X00339886Y00419869D01*
X00339826Y00420171D01*
X00339163Y00421163D01*
X00336450Y00423876D01*
Y00425650D01*
X00320550D01*
Y00425559D01*
X00303500D01*
X00303205Y00425500D01*
X00288900D01*
Y00397500D01*
X00301674D01*
X00304837Y00394337D01*
X00305830Y00393674D01*
X00307000Y00393441D01*
X00307000Y00393441D01*
X00309392D01*
Y00386450D01*
X00307050D01*
Y00385008D01*
X00306400D01*
X00304254Y00384581D01*
X00302435Y00383365D01*
X00300070Y00381000D01*
X00286500D01*
Y00369000D01*
X00306500D01*
Y00371569D01*
X00307281Y00372350D01*
X00321892D01*
Y00358140D01*
X00321673Y00357612D01*
X00320327Y00357162D01*
X00318244Y00359244D01*
X00316756Y00360239D01*
X00315000Y00360588D01*
X00306500D01*
Y00362000D01*
X00286500D01*
Y00351588D01*
X00284900D01*
X00281500Y00354989D01*
Y00362000D01*
X00281500D01*
Y00369000D01*
X00281500D01*
Y00381000D01*
X00261500D01*
Y00381000D01*
X00260809Y00380538D01*
X00259694Y00381000D01*
X00257306D01*
X00255101Y00380087D01*
X00253413Y00378399D01*
X00252500Y00376194D01*
Y00373806D01*
X00253413Y00371601D01*
X00254765Y00370250D01*
X00253413Y00368899D01*
X00252500Y00366693D01*
Y00364306D01*
X00253413Y00362101D01*
X00255101Y00360414D01*
X00257306Y00359500D01*
X00257741Y00358230D01*
X00223756Y00324244D01*
X00222761Y00322756D01*
X00222412Y00321000D01*
Y00320000D01*
X00221000D01*
Y00299000D01*
X00281000D01*
Y00320000D01*
X00279588D01*
Y00332099D01*
X00281901Y00334412D01*
X00290350D01*
Y00320780D01*
X00289569Y00320000D01*
X00285000D01*
Y00299000D01*
X00297000D01*
Y00311569D01*
X00301365Y00315935D01*
X00302581Y00317754D01*
X00302839Y00319050D01*
X00304450D01*
Y00320428D01*
X00305307Y00321000D01*
X00307694D01*
X00309899Y00321913D01*
X00311586Y00323601D01*
X00312500Y00325807D01*
Y00327215D01*
X00313770Y00327741D01*
X00318756Y00322756D01*
X00320244Y00321761D01*
X00322000Y00321412D01*
X00436600D01*
X00446991Y00311020D01*
X00446465Y00309750D01*
X00432750D01*
Y00290020D01*
X00432750Y00289250D01*
X00432750D01*
Y00288750D01*
X00432750D01*
Y00268250D01*
X00432750D01*
Y00267750D01*
X00432750D01*
Y00247250D01*
X00448250D01*
Y00267750D01*
X00448250D01*
Y00268250D01*
X00448250D01*
Y00272162D01*
X00454250D01*
Y00265000D01*
X00463483D01*
X00464000Y00264897D01*
X00466033D01*
X00467380Y00263550D01*
X00467850Y00262450D01*
X00467850D01*
X00467850Y00262450D01*
Y00246550D01*
X00480711D01*
X00481198Y00246550D01*
X00482134Y00245466D01*
X00482119Y00245189D01*
X00477680Y00240750D01*
X00468250D01*
Y00220250D01*
X00483750D01*
Y00231680D01*
X00516967Y00264897D01*
X00525000D01*
X00525517Y00265000D01*
X00534750D01*
Y00267980D01*
X00534750Y00269250D01*
X00555250D01*
Y00269250D01*
X00556250Y00269250D01*
Y00269250D01*
X00576750D01*
Y00284750D01*
X00556250D01*
Y00284750D01*
X00555250Y00284750D01*
Y00284750D01*
X00534750D01*
X00534750Y00286020D01*
Y00288500D01*
X00525517D01*
X00525000Y00288603D01*
X00513859D01*
X00511693Y00289500D01*
X00511090D01*
X00510604Y00290673D01*
X00517965Y00298035D01*
X00519181Y00299854D01*
X00519608Y00302000D01*
Y00340750D01*
Y00368000D01*
X00519181Y00370146D01*
X00517965Y00371965D01*
X00516250Y00373680D01*
Y00388250D01*
X00514108Y00390392D01*
Y00410177D01*
X00518823Y00414892D01*
X00524000D01*
Y00408500D01*
X00532483D01*
X00533000Y00408397D01*
X00543250Y00408397D01*
X00545298Y00408805D01*
X00547035Y00409965D01*
X00547827Y00410757D01*
X00549000Y00410271D01*
Y00402000D01*
Y00395500D01*
X00561232D01*
X00562500Y00394232D01*
Y00392807D01*
X00563414Y00390601D01*
X00565101Y00388913D01*
X00567307Y00388000D01*
X00568732D01*
X00584922Y00371811D01*
Y00268675D01*
X00573325Y00257078D01*
X00541015D01*
X00541015Y00257078D01*
X00539454Y00256768D01*
X00538131Y00255884D01*
X00538131Y00255884D01*
X00487616Y00205369D01*
X00486732Y00204046D01*
X00486422Y00202485D01*
X00486422Y00202485D01*
Y00136922D01*
X00478250Y00128750D01*
X00462750D01*
Y00108250D01*
X00464892D01*
Y00088108D01*
X00442000D01*
X00441754Y00088059D01*
X00426500D01*
X00426500Y00088059D01*
X00425330Y00087826D01*
X00424337Y00087163D01*
X00420837Y00083663D01*
X00420174Y00082670D01*
X00419941Y00081500D01*
X00419941Y00081500D01*
Y00034000D01*
X00419941Y00034000D01*
X00420174Y00032829D01*
X00420837Y00031837D01*
X00420837Y00031837D01*
X00424837Y00027837D01*
X00425830Y00027174D01*
X00427000Y00026941D01*
X00427000Y00026941D01*
X00444500D01*
X00444500Y00026941D01*
X00445671Y00027174D01*
X00446663Y00027837D01*
X00446663Y00027837D01*
X00450663Y00031837D01*
X00451326Y00032829D01*
X00451559Y00034000D01*
X00451559Y00034000D01*
Y00076892D01*
X00481750D01*
Y00076500D01*
X00496422D01*
Y00051892D01*
X00496114Y00051791D01*
X00495529Y00051650D01*
X00494877Y00051537D01*
X00491852Y00051313D01*
X00490670Y00051308D01*
X00490383Y00051250D01*
X00489119D01*
X00486258Y00050483D01*
X00483692Y00049002D01*
X00481598Y00046908D01*
X00480117Y00044342D01*
X00479350Y00041481D01*
Y00038519D01*
X00480117Y00035658D01*
X00481598Y00033092D01*
X00483692Y00030998D01*
X00486258Y00029517D01*
X00489119Y00028750D01*
X00489119Y00028750D01*
X00489119Y00028750D01*
X00527250D01*
Y00051250D01*
X00510545D01*
X00510360Y00051407D01*
X00509578Y00052189D01*
Y00076500D01*
X00524250D01*
Y00088500D01*
X00509578D01*
Y00095500D01*
X00524250D01*
Y00095500D01*
X00524463Y00095642D01*
X00524807Y00095500D01*
X00537000D01*
X00542941Y00089559D01*
Y00034500D01*
X00542941Y00034500D01*
X00543174Y00033330D01*
X00543837Y00032337D01*
X00543837Y00032337D01*
X00548337Y00027837D01*
X00549329Y00027174D01*
X00550500Y00026941D01*
X00550500Y00026941D01*
X00574000D01*
X00574000Y00026941D01*
X00575171Y00027174D01*
X00576163Y00027837D01*
X00576163Y00027837D01*
X00580663Y00032337D01*
X00581326Y00033330D01*
X00581559Y00034500D01*
X00581559Y00034500D01*
Y00065559D01*
X00590941Y00074941D01*
X00631000D01*
X00631000Y00074941D01*
X00632170Y00075174D01*
X00633163Y00075837D01*
X00635663Y00078337D01*
X00636326Y00079330D01*
X00636559Y00080500D01*
X00636559Y00080500D01*
Y00087050D01*
X00636650D01*
Y00102950D01*
X00636139D01*
X00635663Y00103663D01*
X00625163Y00114163D01*
X00624170Y00114826D01*
X00623000Y00115059D01*
X00623000Y00115059D01*
X00598872D01*
X00591465Y00122465D01*
X00589646Y00123681D01*
X00587500Y00124108D01*
X00543250D01*
Y00128750D01*
X00513518D01*
X00510578Y00131689D01*
Y00208311D01*
X00545189Y00242922D01*
X00577500D01*
X00577500Y00242922D01*
X00579061Y00243232D01*
X00580384Y00244116D01*
X00597884Y00261616D01*
X00597884Y00261616D01*
X00598768Y00262939D01*
X00599078Y00264500D01*
X00599078Y00264500D01*
Y00370593D01*
X00617750Y00389265D01*
Y00392750D01*
Y00413250D01*
X00607925Y00423075D01*
Y00430675D01*
Y00457525D01*
X00581075D01*
Y00440212D01*
X00581047Y00440069D01*
X00581075Y00439927D01*
Y00438564D01*
X00580786Y00438148D01*
X00579729Y00436899D01*
X00577683Y00434853D01*
X00542647D01*
X00538608Y00438892D01*
Y00461608D01*
X00542500Y00465500D01*
X00600000D01*
X00612559Y00478059D01*
Y00483000D01*
X00612559Y00483000D01*
X00612559Y00483000D01*
Y00516733D01*
X00619767Y00523941D01*
X00755233D01*
X00762441Y00516733D01*
Y00471767D01*
X00757733Y00467059D01*
X00739500D01*
X00738329Y00466826D01*
X00737337Y00466163D01*
X00737337Y00466163D01*
X00732337Y00461163D01*
X00731674Y00460171D01*
X00731441Y00459000D01*
X00731441Y00459000D01*
Y00440000D01*
X00731674Y00438829D01*
X00732337Y00437837D01*
X00732337Y00437837D01*
X00737337Y00432837D01*
X00738329Y00432174D01*
X00739500Y00431941D01*
X00739500Y00431941D01*
X00757733D01*
X00762441Y00427233D01*
Y00345267D01*
X00758233Y00341059D01*
X00739500D01*
X00738329Y00340826D01*
X00737337Y00340163D01*
X00737337Y00340163D01*
X00732337Y00335163D01*
X00731674Y00334170D01*
X00731441Y00333000D01*
X00731441Y00333000D01*
Y00313500D01*
X00731674Y00312329D01*
X00732337Y00311337D01*
X00732337Y00311337D01*
X00737337Y00306337D01*
X00738329Y00305674D01*
X00739500Y00305441D01*
X00739500Y00305441D01*
X00757233D01*
X00762441Y00300233D01*
Y00220267D01*
X00757233Y00215059D01*
X00739500D01*
X00738329Y00214826D01*
X00737337Y00214163D01*
X00737337Y00214163D01*
X00732337Y00209163D01*
X00731674Y00208171D01*
X00731441Y00207000D01*
X00731441Y00207000D01*
Y00187000D01*
X00731674Y00185829D01*
X00732337Y00184837D01*
X00732337Y00184837D01*
X00737337Y00179837D01*
X00738329Y00179174D01*
X00739500Y00178941D01*
X00739500Y00178941D01*
X00779500D01*
X00780670Y00179174D01*
X00781663Y00179837D01*
X00781663Y00179837D01*
X00796663Y00194837D01*
X00797326Y00195830D01*
X00797559Y00197000D01*
X00797559Y00197000D01*
Y00538500D01*
X00797326Y00539670D01*
X00796663Y00540663D01*
X00782163Y00555163D01*
X00781171Y00555826D01*
X00780000Y00556059D01*
D02*
G37*
G36*
X00717470Y00516475D02*
X00691520D01*
Y00491059D01*
X00679000D01*
X00679000Y00491059D01*
X00677830Y00490826D01*
X00676837Y00490163D01*
X00674337Y00487663D01*
X00673674Y00486670D01*
X00673647Y00486537D01*
X00672353Y00486537D01*
X00672326Y00486670D01*
X00671663Y00487663D01*
X00671663Y00487663D01*
X00669163Y00490163D01*
X00668170Y00490826D01*
X00667000Y00491059D01*
X00667000Y00491059D01*
X00632000D01*
X00632000Y00491059D01*
X00630830Y00490826D01*
X00629837Y00490163D01*
X00627337Y00487663D01*
X00626674Y00486670D01*
X00626441Y00485500D01*
X00626441Y00485500D01*
Y00477450D01*
X00626350D01*
Y00461550D01*
X00626441D01*
Y00351450D01*
X00626350D01*
Y00335550D01*
X00626441D01*
Y00225450D01*
X00626350D01*
Y00209550D01*
X00626441D01*
Y00168267D01*
X00623733Y00165559D01*
X00585500D01*
X00585500Y00165559D01*
X00585500Y00165559D01*
X00584233D01*
X00576500Y00157826D01*
Y00137174D01*
X00583337Y00130337D01*
X00583337Y00130337D01*
X00583337Y00130337D01*
X00584233Y00129441D01*
X00585500D01*
X00585500Y00129441D01*
X00585500Y00129441D01*
X00630233D01*
X00654337Y00105337D01*
X00654337Y00105337D01*
X00676337Y00083337D01*
X00677329Y00082674D01*
X00678500Y00082441D01*
X00678500Y00082441D01*
X00729500D01*
X00729500Y00082441D01*
X00730670Y00082674D01*
X00731663Y00083337D01*
X00731663Y00083337D01*
X00743163Y00094837D01*
X00743826Y00095829D01*
X00744059Y00097000D01*
X00744059Y00097000D01*
Y00126000D01*
X00744059Y00126000D01*
X00743826Y00127170D01*
X00743163Y00128163D01*
X00743163Y00128163D01*
X00730767Y00140559D01*
X00729500D01*
X00729500Y00140559D01*
X00729500Y00140559D01*
X00726641D01*
X00720650Y00146550D01*
Y00149456D01*
X00720659Y00149500D01*
Y00191000D01*
X00720659Y00191000D01*
X00720426Y00192171D01*
X00719763Y00193163D01*
X00717263Y00195663D01*
X00717128Y00195753D01*
Y00197280D01*
X00717213Y00197337D01*
X00719713Y00199837D01*
X00720376Y00200829D01*
X00720609Y00202000D01*
X00720609Y00202000D01*
Y00233500D01*
X00720609Y00233500D01*
X00720376Y00234671D01*
X00719713Y00235663D01*
X00717945Y00237431D01*
X00717520Y00238525D01*
X00717520Y00238525D01*
X00717520D01*
X00717520Y00238525D01*
Y00264475D01*
X00691570D01*
Y00239059D01*
X00679050D01*
X00676500Y00241609D01*
Y00269991D01*
X00677680Y00271171D01*
X00677680Y00271171D01*
X00677680Y00271171D01*
X00678950Y00272441D01*
X00679000D01*
X00679000Y00272441D01*
X00717600D01*
X00718147Y00272550D01*
X00720650D01*
Y00275456D01*
X00720659Y00275500D01*
Y00317000D01*
X00720659Y00317000D01*
X00720426Y00318171D01*
X00719763Y00319163D01*
X00717263Y00321663D01*
X00717128Y00321753D01*
Y00323280D01*
X00717213Y00323337D01*
X00719713Y00325837D01*
X00720376Y00326829D01*
X00720609Y00328000D01*
X00720609Y00328000D01*
Y00359500D01*
X00720609Y00359500D01*
X00720376Y00360671D01*
X00719713Y00361663D01*
X00717945Y00363431D01*
X00717520Y00364525D01*
X00717520Y00364525D01*
X00717520D01*
X00717520Y00364525D01*
Y00390475D01*
X00691570D01*
Y00365059D01*
X00679050D01*
X00677780Y00366329D01*
Y00366329D01*
X00677780Y00366329D01*
X00676500Y00367609D01*
Y00395991D01*
X00677680Y00397171D01*
X00677680Y00397171D01*
X00677680Y00397171D01*
X00678950Y00398441D01*
X00678950Y00398441D01*
X00717550D01*
X00718097Y00398550D01*
X00720650D01*
Y00414450D01*
X00720609D01*
Y00443000D01*
X00720609Y00443000D01*
X00720376Y00444171D01*
X00719713Y00445163D01*
X00717213Y00447663D01*
X00717078Y00447753D01*
Y00449280D01*
X00717163Y00449337D01*
X00719663Y00451837D01*
X00720326Y00452829D01*
X00720559Y00454000D01*
X00720559Y00454000D01*
Y00485500D01*
X00720559Y00485500D01*
X00720326Y00486670D01*
X00719663Y00487663D01*
X00717895Y00489431D01*
X00717470Y00490525D01*
X00717470Y00490525D01*
X00717470D01*
X00717470Y00490525D01*
Y00516475D01*
D02*
G37*
G36*
X00748113Y00499475D02*
X00744697D01*
X00741397Y00498591D01*
X00738438Y00496883D01*
X00736022Y00494467D01*
X00734314Y00491508D01*
X00733430Y00488208D01*
Y00484792D01*
X00734314Y00481492D01*
X00736022Y00478533D01*
X00738438Y00476117D01*
X00741397Y00474409D01*
X00744697Y00473525D01*
X00748113D01*
X00751413Y00474409D01*
X00754372Y00476117D01*
X00756788Y00478533D01*
X00758496Y00481492D01*
X00759380Y00484792D01*
Y00488208D01*
X00758496Y00491508D01*
X00756788Y00494467D01*
X00754372Y00496883D01*
X00751413Y00498591D01*
X00748113Y00499475D01*
D02*
G37*
G36*
X00518250Y00466750D02*
X00502750D01*
Y00446450D01*
X00500350D01*
Y00430550D01*
X00514450D01*
Y00439307D01*
X00514608Y00440100D01*
Y00446250D01*
X00518250D01*
Y00466750D01*
D02*
G37*
G36*
X00159500Y00434091D02*
X00149500D01*
X00146759Y00433730D01*
X00144205Y00432672D01*
X00142011Y00430989D01*
X00140328Y00428795D01*
X00139270Y00426241D01*
X00138909Y00423500D01*
X00139270Y00420759D01*
X00140328Y00418205D01*
X00142011Y00416011D01*
X00144205Y00414328D01*
X00146759Y00413270D01*
X00149500Y00412909D01*
X00159500D01*
X00162241Y00413270D01*
X00164795Y00414328D01*
X00166989Y00416011D01*
X00168672Y00418205D01*
X00169730Y00420759D01*
X00170091Y00423500D01*
X00169730Y00426241D01*
X00168672Y00428795D01*
X00166989Y00430989D01*
X00164795Y00432672D01*
X00162241Y00433730D01*
X00159500Y00434091D01*
D02*
G37*
G36*
X00533000Y00406103D02*
X00532483Y00406000D01*
X00524000D01*
Y00395500D01*
X00527647D01*
Y00393450D01*
X00526050D01*
Y00377550D01*
X00526428D01*
X00527000Y00376693D01*
Y00374306D01*
X00527913Y00372101D01*
X00529601Y00370414D01*
X00531806Y00369500D01*
X00534193D01*
X00536399Y00370414D01*
X00538087Y00372101D01*
X00539000Y00374306D01*
Y00376693D01*
X00540020Y00377550D01*
X00540150D01*
Y00393450D01*
X00538353D01*
Y00395500D01*
X00542000D01*
Y00406000D01*
X00533517D01*
X00533000Y00406103D01*
D02*
G37*
G36*
X00060250Y00419309D02*
X00060250Y00419309D01*
X00037500D01*
X00037204Y00419250D01*
X00024500D01*
Y00404750D01*
X00018000Y00398250D01*
Y00367500D01*
X00025000Y00360500D01*
X00061500D01*
X00067059Y00366059D01*
Y00370500D01*
X00067059Y00370500D01*
X00067059Y00370500D01*
Y00412500D01*
X00067059Y00412500D01*
X00067059Y00412500D01*
Y00413767D01*
X00061517Y00419309D01*
X00060250D01*
X00060250Y00419309D01*
D02*
G37*
G36*
X00240700Y00395350D02*
X00224500D01*
Y00374650D01*
X00226750D01*
Y00354250D01*
X00242250D01*
Y00374750D01*
X00240700D01*
Y00395350D01*
D02*
G37*
G36*
X00748163Y00373475D02*
X00744747D01*
X00741447Y00372591D01*
X00738488Y00370883D01*
X00736072Y00368467D01*
X00734364Y00365508D01*
X00733480Y00362208D01*
Y00358792D01*
X00734364Y00355492D01*
X00736072Y00352533D01*
X00738488Y00350117D01*
X00741447Y00348409D01*
X00744747Y00347525D01*
X00748163D01*
X00751463Y00348409D01*
X00754422Y00350117D01*
X00756838Y00352533D01*
X00758546Y00355492D01*
X00759430Y00358792D01*
Y00362208D01*
X00758546Y00365508D01*
X00756838Y00368467D01*
X00754422Y00370883D01*
X00751463Y00372591D01*
X00748163Y00373475D01*
D02*
G37*
G36*
X00430000Y00362000D02*
X00410000D01*
Y00350000D01*
X00415412D01*
Y00344397D01*
X00414913Y00343899D01*
X00414000Y00341693D01*
Y00339306D01*
X00414913Y00337101D01*
X00416601Y00335414D01*
X00418806Y00334500D01*
X00421194D01*
X00423399Y00335414D01*
X00425087Y00337101D01*
X00426000Y00339306D01*
Y00341693D01*
X00425087Y00343899D01*
X00424588Y00344397D01*
Y00350000D01*
X00430000D01*
Y00362000D01*
D02*
G37*
G36*
X00567193Y00360000D02*
X00564807D01*
X00562640Y00359103D01*
X00549500D01*
X00548983Y00359000D01*
X00539750D01*
Y00348500D01*
Y00342000D01*
X00539750D01*
Y00335500D01*
X00544147D01*
Y00332250D01*
X00541750D01*
Y00311750D01*
X00557250D01*
Y00332250D01*
X00554853D01*
Y00335397D01*
X00560750D01*
X00562798Y00335805D01*
X00564535Y00336965D01*
X00566285Y00338715D01*
X00567445Y00340452D01*
X00567853Y00342500D01*
Y00345500D01*
X00567577Y00346889D01*
X00567445Y00347548D01*
X00568351Y00348479D01*
X00569399Y00348913D01*
X00571087Y00350601D01*
X00572000Y00352807D01*
Y00355193D01*
X00571087Y00357399D01*
X00569399Y00359087D01*
X00567193Y00360000D01*
D02*
G37*
G36*
X00530694Y00340500D02*
X00528307D01*
X00526101Y00339586D01*
X00524413Y00337899D01*
X00523500Y00335694D01*
Y00333307D01*
X00523500Y00333306D01*
X00522795Y00332250D01*
X00521750D01*
Y00311750D01*
X00537250D01*
Y00332250D01*
X00536205D01*
X00535500Y00333306D01*
X00535500Y00333307D01*
Y00335694D01*
X00534587Y00337899D01*
X00532899Y00339586D01*
X00530694Y00340500D01*
D02*
G37*
G36*
X00566500Y00317069D02*
X00565976Y00317000D01*
X00565447D01*
X00564936Y00316863D01*
X00564412Y00316794D01*
X00563923Y00316592D01*
X00563412Y00316455D01*
X00562954Y00316190D01*
X00562466Y00315988D01*
X00562046Y00315666D01*
X00561588Y00315402D01*
X00561214Y00315028D01*
X00560794Y00314706D01*
X00560472Y00314286D01*
X00560098Y00313912D01*
X00559834Y00313454D01*
X00559512Y00313034D01*
X00559310Y00312546D01*
X00559045Y00312088D01*
X00558908Y00311577D01*
X00558706Y00311088D01*
X00558637Y00310564D01*
X00558500Y00310053D01*
Y00309524D01*
X00558431Y00309000D01*
Y00304750D01*
X00556250D01*
Y00289250D01*
X00564305D01*
X00564412Y00289206D01*
X00566500Y00288931D01*
X00568588Y00289206D01*
X00568695Y00289250D01*
X00576750D01*
Y00304750D01*
X00574569D01*
Y00309000D01*
X00574500Y00309524D01*
Y00310053D01*
X00574363Y00310564D01*
X00574294Y00311088D01*
X00574092Y00311577D01*
X00573955Y00312088D01*
X00573690Y00312546D01*
X00573488Y00313034D01*
X00573166Y00313454D01*
X00572902Y00313912D01*
X00572528Y00314286D01*
X00572206Y00314706D01*
X00571786Y00315028D01*
X00571412Y00315402D01*
X00570954Y00315666D01*
X00570535Y00315988D01*
X00570046Y00316190D01*
X00569588Y00316455D01*
X00569077Y00316592D01*
X00568588Y00316794D01*
X00568064Y00316863D01*
X00567553Y00317000D01*
X00567024D01*
X00566500Y00317069D01*
D02*
G37*
G36*
X00421693Y00318000D02*
X00419307D01*
X00417101Y00317087D01*
X00415414Y00315399D01*
X00414500Y00313193D01*
Y00310807D01*
X00414500Y00310806D01*
X00413795Y00309750D01*
X00412750D01*
Y00290020D01*
X00412750Y00289250D01*
X00412750Y00287980D01*
Y00283088D01*
X00400401D01*
X00394953Y00288536D01*
X00394850Y00288687D01*
X00394704Y00288965D01*
X00394555Y00289329D01*
X00394414Y00289785D01*
X00394288Y00290332D01*
X00394192Y00290930D01*
X00394067Y00292541D01*
X00394058Y00293455D01*
X00394000Y00293734D01*
Y00294882D01*
X00393284Y00297553D01*
X00391902Y00299947D01*
X00389947Y00301902D01*
X00387553Y00303284D01*
X00384882Y00304000D01*
X00382118D01*
X00381908Y00303944D01*
X00381000Y00305015D01*
Y00307582D01*
X00380284Y00310253D01*
X00378902Y00312647D01*
X00376947Y00314602D01*
X00374553Y00315984D01*
X00371882Y00316700D01*
X00369118D01*
X00366447Y00315984D01*
X00364053Y00314602D01*
X00362098Y00312647D01*
X00360716Y00310253D01*
X00360000Y00307582D01*
Y00304818D01*
X00360716Y00302147D01*
X00362098Y00299753D01*
X00364053Y00297798D01*
X00366447Y00296416D01*
X00369118Y00295700D01*
X00371882D01*
X00372092Y00295756D01*
X00373000Y00294685D01*
Y00292118D01*
X00373716Y00289447D01*
X00375098Y00287053D01*
X00377053Y00285098D01*
X00379447Y00283716D01*
X00382118Y00283000D01*
X00383234D01*
X00383481Y00282943D01*
X00385340Y00282886D01*
X00386031Y00282814D01*
X00386668Y00282712D01*
X00387215Y00282586D01*
X00387671Y00282445D01*
X00388035Y00282297D01*
X00388313Y00282150D01*
X00388464Y00282047D01*
X00395256Y00275256D01*
X00396744Y00274261D01*
X00398500Y00273912D01*
X00412750D01*
Y00269020D01*
X00412750Y00268250D01*
X00412750Y00266980D01*
Y00247250D01*
X00415912D01*
Y00229109D01*
X00415877Y00228928D01*
X00415785Y00228629D01*
X00415632Y00228266D01*
X00415410Y00227844D01*
X00415112Y00227369D01*
X00414757Y00226877D01*
X00413706Y00225651D01*
X00413066Y00224998D01*
X00412910Y00224759D01*
X00412098Y00223947D01*
X00410716Y00221553D01*
X00410000Y00218882D01*
Y00216118D01*
X00410716Y00213447D01*
X00412098Y00211053D01*
X00414053Y00209098D01*
X00416447Y00207716D01*
X00419118Y00207000D01*
X00421882D01*
X00424553Y00207716D01*
X00426947Y00209098D01*
X00428902Y00211053D01*
X00430284Y00213447D01*
X00431000Y00216118D01*
Y00218882D01*
X00430944Y00219092D01*
X00432015Y00220000D01*
X00434582D01*
X00437253Y00220716D01*
X00439647Y00222098D01*
X00440449Y00222900D01*
X00440677Y00223046D01*
X00441201Y00223550D01*
X00441650Y00223931D01*
X00442086Y00224254D01*
X00442508Y00224520D01*
X00442916Y00224735D01*
X00443312Y00224904D01*
X00443698Y00225030D01*
X00444080Y00225118D01*
X00444292Y00225147D01*
X00448250D01*
Y00220250D01*
X00463750D01*
Y00240750D01*
X00448250D01*
Y00235853D01*
X00444292D01*
X00444080Y00235882D01*
X00443698Y00235970D01*
X00443312Y00236096D01*
X00442916Y00236264D01*
X00442508Y00236480D01*
X00442086Y00236746D01*
X00441650Y00237069D01*
X00441201Y00237450D01*
X00440677Y00237954D01*
X00440449Y00238100D01*
X00439647Y00238902D01*
X00437253Y00240284D01*
X00434582Y00241000D01*
X00431818D01*
X00429147Y00240284D01*
X00426753Y00238902D01*
X00426261Y00238411D01*
X00425088Y00238897D01*
Y00247250D01*
X00428250D01*
Y00266980D01*
X00428250Y00267750D01*
X00428250Y00269020D01*
Y00287980D01*
X00428250Y00288750D01*
X00428250Y00290020D01*
Y00294226D01*
X00428358Y00294770D01*
Y00297270D01*
X00428250Y00297815D01*
Y00309750D01*
X00427205D01*
X00426500Y00310806D01*
X00426500Y00310807D01*
Y00313193D01*
X00425587Y00315399D01*
X00423899Y00317087D01*
X00421693Y00318000D01*
D02*
G37*
G36*
X00201500Y00406559D02*
X00201500Y00406559D01*
X00170500D01*
X00169329Y00406326D01*
X00168337Y00405663D01*
X00167674Y00404670D01*
X00167441Y00403500D01*
Y00360000D01*
Y00347267D01*
X00164733Y00344559D01*
X00121000D01*
X00119829Y00344326D01*
X00118837Y00343663D01*
X00118837Y00343663D01*
X00085837Y00310663D01*
X00085837Y00310663D01*
X00077337Y00302163D01*
X00076674Y00301171D01*
X00076441Y00300000D01*
X00076441Y00300000D01*
Y00295000D01*
X00076441Y00295000D01*
X00076441Y00295000D01*
Y00290767D01*
X00059174Y00273500D01*
X00037500D01*
Y00226500D01*
X00064000D01*
Y00244500D01*
X00066672Y00247172D01*
X00078561D01*
X00081500Y00244232D01*
Y00231750D01*
X00093500D01*
Y00244232D01*
X00096439Y00247172D01*
X00100500D01*
Y00231750D01*
X00100500D01*
X00100642Y00231537D01*
X00100500Y00231194D01*
Y00228806D01*
X00101413Y00226601D01*
X00103101Y00224913D01*
X00105307Y00224000D01*
X00107694D01*
X00109899Y00224913D01*
X00111587Y00226601D01*
X00112500Y00228806D01*
Y00231194D01*
X00112358Y00231537D01*
X00112500Y00231750D01*
X00112500D01*
Y00245928D01*
X00112750Y00247172D01*
X00114311Y00247482D01*
X00115634Y00248366D01*
X00124384Y00257116D01*
X00124384Y00257116D01*
X00124808Y00257751D01*
X00124841Y00257777D01*
X00125869Y00258500D01*
X00125869D01*
D01*
X00127031Y00258500D01*
X00128270Y00258230D01*
X00129104Y00257396D01*
X00129750Y00256750D01*
Y00251250D01*
X00162321D01*
X00163550Y00251150D01*
X00163550Y00249980D01*
Y00245481D01*
X00159548Y00241479D01*
X00158601Y00241087D01*
X00156913Y00239399D01*
X00156000Y00237194D01*
Y00220489D01*
X00153756Y00218244D01*
X00152761Y00216756D01*
X00152412Y00215000D01*
Y00117900D01*
X00145599Y00111088D01*
X00135500D01*
X00133744Y00110739D01*
X00132256Y00109744D01*
X00109161Y00086650D01*
X00098050D01*
Y00072550D01*
X00101412D01*
Y00049750D01*
X00096250D01*
Y00030250D01*
X00115750D01*
Y00049750D01*
X00110588D01*
Y00072550D01*
X00113950D01*
Y00078461D01*
X00137401Y00101912D01*
X00147500D01*
X00149256Y00102261D01*
X00150744Y00103256D01*
X00159642Y00112153D01*
X00160912Y00111627D01*
Y00098400D01*
X00149161Y00086650D01*
X00138050D01*
Y00072550D01*
X00141412D01*
Y00050382D01*
X00141388Y00050247D01*
X00141314Y00049991D01*
X00141192Y00049687D01*
X00141016Y00049336D01*
X00140776Y00048941D01*
X00140495Y00048540D01*
X00139622Y00047505D01*
X00139087Y00046958D01*
X00138933Y00046722D01*
X00138198Y00045987D01*
X00136915Y00043763D01*
X00136250Y00041284D01*
Y00038716D01*
X00136915Y00036237D01*
X00138198Y00034013D01*
X00140013Y00032198D01*
X00142237Y00030914D01*
X00144716Y00030250D01*
X00147284D01*
X00149763Y00030914D01*
X00151987Y00032198D01*
X00153802Y00034013D01*
X00155085Y00036237D01*
X00155750Y00038716D01*
Y00041284D01*
X00155085Y00043763D01*
X00153802Y00045987D01*
X00153067Y00046722D01*
X00152913Y00046958D01*
X00152351Y00047533D01*
X00151905Y00048035D01*
X00151529Y00048506D01*
X00151224Y00048941D01*
X00150984Y00049336D01*
X00150808Y00049687D01*
X00150686Y00049991D01*
X00150612Y00050247D01*
X00150588Y00050382D01*
Y00072550D01*
X00153950D01*
Y00078461D01*
X00168744Y00093256D01*
X00169739Y00094744D01*
X00170088Y00096500D01*
Y00114627D01*
X00171358Y00115153D01*
X00208050Y00078461D01*
Y00072550D01*
X00211412D01*
Y00049750D01*
X00206250D01*
Y00030250D01*
X00225750D01*
Y00049750D01*
X00220588D01*
Y00072550D01*
X00223950D01*
Y00086650D01*
X00212839D01*
X00202500Y00096989D01*
Y00100500D01*
X00203912Y00101912D01*
X00224600D01*
X00248050Y00078461D01*
Y00072550D01*
X00251412D01*
Y00050382D01*
X00251388Y00050247D01*
X00251314Y00049991D01*
X00251192Y00049687D01*
X00251016Y00049336D01*
X00250776Y00048941D01*
X00250495Y00048540D01*
X00249622Y00047505D01*
X00249087Y00046958D01*
X00248933Y00046722D01*
X00248198Y00045987D01*
X00246914Y00043763D01*
X00246250Y00041284D01*
Y00038716D01*
X00246914Y00036237D01*
X00248198Y00034013D01*
X00250013Y00032198D01*
X00252237Y00030914D01*
X00254716Y00030250D01*
X00257284D01*
X00259763Y00030914D01*
X00261987Y00032198D01*
X00263802Y00034013D01*
X00265086Y00036237D01*
X00265750Y00038716D01*
Y00041284D01*
X00265086Y00043763D01*
X00263802Y00045987D01*
X00263067Y00046722D01*
X00262913Y00046958D01*
X00262351Y00047533D01*
X00261905Y00048035D01*
X00261529Y00048506D01*
X00261224Y00048941D01*
X00260984Y00049336D01*
X00260807Y00049687D01*
X00260686Y00049991D01*
X00260612Y00050247D01*
X00260588Y00050382D01*
Y00072550D01*
X00263950D01*
Y00086650D01*
X00252839D01*
X00229744Y00109744D01*
X00228256Y00110739D01*
X00226500Y00111088D01*
X00203901D01*
X00187088Y00127900D01*
Y00203599D01*
X00189489Y00206000D01*
X00204000D01*
Y00214000D01*
Y00222000D01*
Y00230000D01*
Y00238000D01*
Y00246000D01*
Y00258000D01*
X00183000D01*
Y00249608D01*
X00179450D01*
Y00251150D01*
X00166479D01*
X00165250Y00251250D01*
X00165250Y00252420D01*
Y00265922D01*
X00179811D01*
X00180616Y00265116D01*
X00180616Y00265116D01*
X00181939Y00264232D01*
X00183000Y00264021D01*
Y00262000D01*
X00204000D01*
Y00270000D01*
Y00278000D01*
Y00287412D01*
X00208599D01*
X00211000Y00285011D01*
Y00284307D01*
X00211913Y00282101D01*
X00213601Y00280413D01*
X00215807Y00279500D01*
X00218193D01*
X00220399Y00280413D01*
X00222087Y00282101D01*
X00223000Y00284307D01*
Y00286693D01*
X00222087Y00288899D01*
X00220399Y00290586D01*
X00218193Y00291500D01*
X00217489D01*
X00215000Y00293989D01*
Y00297000D01*
X00217000Y00299000D01*
Y00320000D01*
X00216608D01*
X00216181Y00322146D01*
X00215626Y00322977D01*
X00215150Y00324050D01*
Y00339950D01*
X00210081D01*
X00209059Y00340972D01*
Y00354250D01*
X00222250D01*
Y00374750D01*
X00209059D01*
Y00399000D01*
X00208826Y00400171D01*
X00208163Y00401163D01*
X00203663Y00405663D01*
X00202670Y00406326D01*
X00201500Y00406559D01*
D02*
G37*
G36*
X00748163Y00247475D02*
X00744747D01*
X00741447Y00246591D01*
X00738488Y00244883D01*
X00736072Y00242467D01*
X00734364Y00239508D01*
X00733480Y00236208D01*
Y00232792D01*
X00734364Y00229492D01*
X00736072Y00226533D01*
X00738488Y00224117D01*
X00741447Y00222409D01*
X00744747Y00221525D01*
X00748163D01*
X00751463Y00222409D01*
X00754422Y00224117D01*
X00756838Y00226533D01*
X00758546Y00229492D01*
X00759430Y00232792D01*
Y00236208D01*
X00758546Y00239508D01*
X00756838Y00242467D01*
X00754422Y00244883D01*
X00751463Y00246591D01*
X00748163Y00247475D01*
D02*
G37*
G36*
X00319000Y00298000D02*
X00298000D01*
Y00286000D01*
Y00278000D01*
Y00270000D01*
Y00262000D01*
Y00254000D01*
Y00246000D01*
Y00238000D01*
Y00230000D01*
Y00222000D01*
Y00214000D01*
X00319000D01*
X00320050Y00213469D01*
Y00211350D01*
X00335950D01*
Y00213428D01*
X00336807Y00214000D01*
X00339193D01*
X00341399Y00214913D01*
X00343087Y00216601D01*
X00344000Y00218806D01*
Y00221194D01*
X00343087Y00223399D01*
X00341399Y00225086D01*
X00339193Y00226000D01*
X00336806D01*
X00335860Y00225608D01*
X00319000D01*
Y00238000D01*
X00322650Y00241650D01*
X00390135D01*
X00398000Y00249515D01*
Y00254485D01*
X00390135Y00262350D01*
X00336650D01*
X00331500Y00267500D01*
Y00272194D01*
X00330587Y00274399D01*
X00330088Y00274897D01*
Y00288500D01*
X00329739Y00290256D01*
X00328744Y00291744D01*
X00325244Y00295244D01*
X00323756Y00296239D01*
X00322000Y00296588D01*
X00319000D01*
Y00298000D01*
D02*
G37*
G36*
X00098750Y00203750D02*
X00083250D01*
Y00199108D01*
X00059640D01*
X00058693Y00199500D01*
X00056307D01*
X00054101Y00198587D01*
X00052414Y00196899D01*
X00051500Y00194694D01*
Y00192306D01*
X00052414Y00190101D01*
X00054101Y00188413D01*
X00056307Y00187500D01*
X00058693D01*
X00059640Y00187892D01*
X00083250D01*
Y00183250D01*
X00098750D01*
Y00203750D01*
D02*
G37*
G36*
X00592300Y00210245D02*
X00577745D01*
X00576500Y00209000D01*
Y00190500D01*
X00578005Y00188995D01*
X00592300D01*
Y00210245D01*
D02*
G37*
G36*
X00556255Y00210245D02*
X00541700D01*
Y00188995D01*
X00555995D01*
X00557500Y00190500D01*
Y00209000D01*
X00556255Y00210245D01*
D02*
G37*
G36*
X00118750Y00203750D02*
X00103250D01*
Y00183250D01*
X00106412D01*
Y00176500D01*
X00092000D01*
Y00173088D01*
X00062000D01*
Y00176500D01*
X00024000D01*
Y00160500D01*
X00062000D01*
Y00163912D01*
X00092000D01*
Y00160500D01*
X00130000D01*
Y00176500D01*
X00115588D01*
Y00183250D01*
X00118750D01*
Y00186795D01*
X00119806Y00187500D01*
X00119806Y00187500D01*
X00122193D01*
X00124399Y00188413D01*
X00126087Y00190101D01*
X00127000Y00192306D01*
Y00194694D01*
X00126087Y00196899D01*
X00124399Y00198587D01*
X00122193Y00199500D01*
X00119806D01*
X00119806Y00199500D01*
X00118750Y00200205D01*
Y00203750D01*
D02*
G37*
G36*
X00464500Y00187000D02*
X00426500D01*
Y00183588D01*
X00396500D01*
Y00187000D01*
X00358500D01*
Y00185395D01*
X00357444Y00184689D01*
X00356693Y00185000D01*
X00354306D01*
X00352101Y00184087D01*
X00350413Y00182399D01*
X00349500Y00180194D01*
Y00177806D01*
X00350413Y00175601D01*
X00352101Y00173913D01*
X00354306Y00173000D01*
X00356693D01*
X00357444Y00173311D01*
X00358500Y00172605D01*
Y00171000D01*
X00396500D01*
Y00174412D01*
X00426500D01*
Y00171000D01*
X00464500D01*
Y00187000D01*
D02*
G37*
G36*
X00220194Y00215500D02*
X00217806D01*
X00215601Y00214587D01*
X00213913Y00212899D01*
X00213000Y00210693D01*
Y00208307D01*
X00213844Y00206270D01*
X00213569Y00205555D01*
X00213219Y00205000D01*
X00205000D01*
Y00184000D01*
X00220167D01*
X00221015Y00182730D01*
X00221000Y00182694D01*
Y00180306D01*
X00221243Y00179720D01*
X00220643Y00178450D01*
X00218850D01*
Y00162550D01*
X00232950D01*
Y00178450D01*
X00232950D01*
X00232757Y00179720D01*
X00233000Y00180306D01*
Y00182694D01*
X00232985Y00182730D01*
X00233000Y00184000D01*
X00233000D01*
Y00205000D01*
X00224781D01*
X00224431Y00205555D01*
X00224156Y00206270D01*
X00225000Y00208307D01*
Y00210693D01*
X00224086Y00212899D01*
X00222399Y00214587D01*
X00220194Y00215500D01*
D02*
G37*
G36*
X00386500Y00167000D02*
X00370500D01*
Y00151000D01*
X00386500D01*
Y00167000D01*
D02*
G37*
G36*
X00052000Y00156500D02*
X00036000D01*
Y00140500D01*
X00052000D01*
Y00156500D01*
D02*
G37*
G36*
X00548000Y00170559D02*
X00548000Y00170559D01*
X00521000D01*
X00519829Y00170326D01*
X00519716Y00170250D01*
X00518250D01*
Y00168784D01*
X00518174Y00168671D01*
X00517941Y00167500D01*
X00517941Y00149000D01*
X00517941Y00149000D01*
X00518174Y00147829D01*
X00518837Y00146837D01*
X00530837Y00134837D01*
X00531829Y00134174D01*
X00533000Y00133941D01*
X00533000Y00133941D01*
X00553386D01*
X00557500Y00138055D01*
Y00158000D01*
X00555500Y00160000D01*
Y00164326D01*
X00549267Y00170559D01*
X00548000D01*
X00548000Y00170559D01*
D02*
G37*
G36*
X00297000Y00205000D02*
X00237000D01*
Y00184000D01*
X00238922D01*
Y00157500D01*
X00217000D01*
Y00138500D01*
X00213950D01*
Y00140650D01*
X00198050D01*
Y00126550D01*
X00213000D01*
Y00119500D01*
X00235000D01*
Y00123500D01*
X00269000D01*
Y00142500D01*
X00272050D01*
Y00140350D01*
X00287950D01*
Y00154450D01*
X00273000D01*
Y00161500D01*
X00256768D01*
X00255078Y00163189D01*
Y00178398D01*
X00255441Y00178650D01*
X00256348Y00178884D01*
X00264116Y00171116D01*
X00264116Y00171116D01*
X00265439Y00170232D01*
X00267000Y00169922D01*
X00267000Y00169922D01*
X00288811D01*
X00344616Y00114116D01*
X00344616Y00114116D01*
X00344616Y00114116D01*
X00352500Y00106232D01*
Y00094500D01*
X00346108Y00088108D01*
X00313500D01*
X00313254Y00088059D01*
X00301500D01*
X00301500Y00088059D01*
X00300329Y00087826D01*
X00299337Y00087163D01*
X00295837Y00083663D01*
X00295174Y00082670D01*
X00294941Y00081500D01*
X00294941Y00081500D01*
Y00034000D01*
X00294941Y00034000D01*
X00295174Y00032829D01*
X00295837Y00031837D01*
X00295837Y00031837D01*
X00299837Y00027837D01*
X00300830Y00027174D01*
X00302000Y00026941D01*
X00302000Y00026941D01*
X00319500D01*
X00319500Y00026941D01*
X00320671Y00027174D01*
X00321663Y00027837D01*
X00321663Y00027837D01*
X00325663Y00031837D01*
X00326326Y00032829D01*
X00326559Y00034000D01*
X00326559Y00034000D01*
Y00076892D01*
X00356750D01*
Y00076500D01*
X00371422D01*
Y00051892D01*
X00371114Y00051791D01*
X00370530Y00051650D01*
X00369877Y00051536D01*
X00366852Y00051313D01*
X00365670Y00051308D01*
X00365383Y00051250D01*
X00364119D01*
X00361258Y00050483D01*
X00358692Y00049002D01*
X00356598Y00046908D01*
X00355117Y00044342D01*
X00354350Y00041481D01*
Y00038519D01*
X00355117Y00035658D01*
X00356598Y00033092D01*
X00358692Y00030998D01*
X00361258Y00029517D01*
X00364119Y00028750D01*
X00402250D01*
Y00051250D01*
X00385545D01*
X00385362Y00051406D01*
X00384578Y00052189D01*
Y00076500D01*
X00399250D01*
Y00088500D01*
X00384578D01*
Y00095500D01*
X00399250D01*
Y00107500D01*
X00397102D01*
X00396396Y00108556D01*
X00396500Y00108806D01*
Y00111193D01*
X00395587Y00113399D01*
X00393899Y00115086D01*
X00391693Y00116000D01*
X00390268D01*
X00377884Y00128384D01*
X00376561Y00129268D01*
X00375000Y00129578D01*
X00375000Y00129578D01*
X00351689D01*
X00298002Y00183266D01*
X00297976Y00183291D01*
X00297976Y00183291D01*
X00297884Y00183384D01*
X00297560Y00183610D01*
X00297000Y00184000D01*
X00297000D01*
X00297000Y00184000D01*
Y00205000D01*
D02*
G37*
G36*
X00657250Y00051250D02*
X00634750D01*
Y00028750D01*
X00657250D01*
Y00051250D01*
D02*
G37*
G36*
X00622081D02*
X00619119D01*
X00616258Y00050483D01*
X00613692Y00049002D01*
X00611598Y00046908D01*
X00610117Y00044342D01*
X00609350Y00041481D01*
Y00038519D01*
X00610117Y00035658D01*
X00611598Y00033092D01*
X00613692Y00030998D01*
X00616258Y00029517D01*
X00619119Y00028750D01*
X00622081D01*
X00624942Y00029517D01*
X00627508Y00030998D01*
X00629602Y00033092D01*
X00631083Y00035658D01*
X00631850Y00038519D01*
Y00041481D01*
X00631083Y00044342D01*
X00629602Y00046908D01*
X00627508Y00049002D01*
X00624942Y00050483D01*
X00622081Y00051250D01*
D02*
G37*
%LPD*%
G36*
X00509000Y00551000D02*
Y00527500D01*
X00507000Y00525500D01*
X00485000Y00525500D01*
X00479500Y00531000D01*
X00467500Y00531000D01*
X00464500Y00534000D01*
Y00550500D01*
X00467000Y00553000D01*
X00507000D01*
X00509000Y00551000D01*
D02*
G37*
G36*
X00483500Y00519500D02*
X00509000D01*
X00511000Y00517500D01*
Y00486000D01*
X00475500D01*
X00470000Y00480500D01*
X00455000D01*
Y00526000D01*
X00477000D01*
X00483500Y00519500D01*
D02*
G37*
G36*
X00352500Y00536500D02*
Y00509000D01*
X00355500Y00506000D01*
X00392000D01*
Y00493000D01*
X00393500Y00491500D01*
X00411000D01*
Y00474000D01*
X00339500D01*
X00322000Y00491500D01*
Y00504000D01*
Y00512500D01*
X00317500Y00517000D01*
X00238500D01*
X00231500Y00510000D01*
Y00425500D01*
X00234500Y00422500D01*
X00277000D01*
Y00400500D01*
X00231000D01*
X00217000Y00414500D01*
Y00510000D01*
X00210000Y00517000D01*
X00111000D01*
X00104000Y00510000D01*
Y00377000D01*
X00108500Y00372500D01*
X00113000D01*
X00117500Y00377000D01*
Y00403500D01*
X00138500D01*
Y00360000D01*
X00132000Y00353500D01*
X00098000D01*
X00086000Y00365500D01*
Y00510000D01*
X00079000Y00517000D01*
X00016000D01*
Y00547000D01*
X00022000Y00553000D01*
X00336000Y00553000D01*
X00352500Y00536500D01*
D02*
G37*
G36*
X00054000Y00482500D02*
Y00469000D01*
X00060000Y00463000D01*
Y00452000D01*
X00050000D01*
Y00461000D01*
X00045500Y00465500D01*
Y00469500D01*
X00019000D01*
X00017000Y00471500D01*
Y00498000D01*
X00054000D01*
Y00482500D01*
D02*
G37*
G36*
X00590469Y00433705D02*
X00590119Y00433960D01*
X00589706Y00434087D01*
X00589229D01*
X00588688Y00433960D01*
X00588083Y00433705D01*
X00587415Y00433324D01*
X00586683Y00432814D01*
X00585887Y00432178D01*
X00584105Y00430523D01*
X00580924Y00433705D01*
X00581814Y00434628D01*
X00583214Y00436283D01*
X00583724Y00437015D01*
X00584105Y00437683D01*
X00584360Y00438288D01*
X00584487Y00438829D01*
Y00439306D01*
X00584360Y00439719D01*
X00584105Y00440069D01*
X00590469Y00433705D01*
D02*
G37*
G36*
X00043000Y00449500D02*
X00045500Y00447000D01*
X00057500D01*
Y00438000D01*
X00057000Y00437500D01*
X00036750D01*
X00035500Y00436250D01*
Y00426750D01*
X00032500Y00426750D01*
Y00436250D01*
X00031250Y00437500D01*
X00024750D01*
X00022500Y00439750D01*
Y00451750D01*
X00043000D01*
Y00449500D01*
D02*
G37*
G36*
X00337000Y00419000D02*
Y00396500D01*
X00307000D01*
X00303500Y00400000D01*
Y00422500D01*
X00333500D01*
X00337000Y00419000D01*
D02*
G37*
G36*
X00278856Y00344655D02*
X00278438Y00343277D01*
X00278244Y00343239D01*
X00276756Y00342244D01*
X00271756Y00337244D01*
X00270761Y00335756D01*
X00270412Y00334000D01*
Y00320000D01*
X00234148D01*
X00233662Y00321173D01*
X00262489Y00350000D01*
X00273511D01*
X00278856Y00344655D01*
D02*
G37*
G36*
X00478750Y00335500D02*
X00487983D01*
X00488500Y00335397D01*
X00508392D01*
Y00304323D01*
X00486535Y00282465D01*
X00485319Y00280646D01*
X00484892Y00278500D01*
Y00264823D01*
X00483026Y00262956D01*
X00481950Y00262450D01*
Y00262450D01*
X00481950Y00262450D01*
X00480253D01*
Y00263600D01*
X00479845Y00265648D01*
X00478685Y00267385D01*
X00473750Y00272320D01*
Y00284500D01*
Y00295000D01*
X00468588D01*
Y00297250D01*
X00473363D01*
X00474550Y00297050D01*
X00474550Y00297050D01*
X00474550Y00297050D01*
X00488650D01*
Y00312950D01*
X00474550D01*
Y00312950D01*
X00474250Y00312750D01*
X00458239D01*
X00455009Y00315980D01*
X00455535Y00317250D01*
X00474250D01*
Y00332750D01*
Y00339761D01*
X00477150Y00342662D01*
X00478750D01*
Y00335500D01*
D02*
G37*
G36*
X00794500Y00538500D02*
Y00197000D01*
X00779500Y00182000D01*
X00739500D01*
X00734500Y00187000D01*
Y00207000D01*
X00739500Y00212000D01*
X00758500D01*
X00765500Y00219000D01*
Y00301500D01*
X00758500Y00308500D01*
X00739500D01*
X00734500Y00313500D01*
Y00333000D01*
X00739500Y00338000D01*
X00759500D01*
X00765500Y00344000D01*
Y00428500D01*
X00759000Y00435000D01*
X00739500D01*
X00734500Y00440000D01*
Y00459000D01*
X00739500Y00464000D01*
X00759000D01*
X00765500Y00470500D01*
Y00518000D01*
X00756500Y00527000D01*
X00618500D01*
X00609500Y00518000D01*
Y00483000D01*
X00597500Y00471000D01*
X00537000D01*
X00533000Y00475000D01*
Y00551000D01*
X00535000Y00553000D01*
X00780000D01*
X00794500Y00538500D01*
D02*
G37*
G36*
X00633500Y00101500D02*
Y00080500D01*
X00631000Y00078000D01*
X00594000D01*
Y00112000D01*
X00623000D01*
X00633500Y00101500D01*
D02*
G37*
G36*
X00508193Y00049235D02*
X00508932Y00048606D01*
X00509258Y00048377D01*
X00509556Y00048204D01*
X00509824Y00048088D01*
X00510064Y00048028D01*
X00510274Y00048025D01*
X00510456Y00048079D01*
X00510609Y00048189D01*
X00507811Y00045391D01*
X00507921Y00045544D01*
X00507975Y00045726D01*
X00507971Y00045936D01*
X00507912Y00046176D01*
X00507796Y00046444D01*
X00507623Y00046741D01*
X00507394Y00047068D01*
X00507108Y00047423D01*
X00506366Y00048219D01*
X00507780Y00049634D01*
X00508193Y00049235D01*
D02*
G37*
G36*
X00500598Y00048584D02*
X00500254Y00048172D01*
X00499947Y00047663D01*
X00499678Y00047056D01*
X00499447Y00046352D01*
X00499253Y00045551D01*
X00499097Y00044652D01*
X00498979Y00043656D01*
X00498855Y00041371D01*
X00498849Y00040082D01*
X00490682Y00048250D01*
X00491971Y00048255D01*
X00495252Y00048497D01*
X00496151Y00048653D01*
X00496952Y00048847D01*
X00497656Y00049078D01*
X00498263Y00049347D01*
X00498772Y00049654D01*
X00499184Y00049998D01*
X00500598Y00048584D01*
D02*
G37*
G36*
X00570000Y00078000D02*
X00578500Y00069500D01*
Y00034500D01*
X00574000Y00030000D01*
X00550500D01*
X00546000Y00034500D01*
Y00112000D01*
X00570000D01*
Y00078000D01*
D02*
G37*
G36*
X00448500Y00081500D02*
Y00034000D01*
X00444500Y00030000D01*
X00427000D01*
X00423000Y00034000D01*
Y00081500D01*
X00426500Y00085000D01*
X00445000D01*
X00448500Y00081500D01*
D02*
G37*
G36*
X00717500Y00485500D02*
Y00454000D01*
X00715000Y00451500D01*
X00679000D01*
X00676500Y00454000D01*
Y00485500D01*
X00679000Y00488000D01*
X00715000D01*
X00717500Y00485500D01*
D02*
G37*
G36*
X00717550Y00443000D02*
Y00401500D01*
X00678950D01*
X00676550Y00403900D01*
Y00443000D01*
X00679050Y00445500D01*
X00715050D01*
X00717550Y00443000D01*
D02*
G37*
G36*
X00717550Y00359500D02*
Y00328000D01*
X00715050Y00325500D01*
X00679050D01*
X00676550Y00328000D01*
Y00359500D01*
X00679050Y00362000D01*
X00715050D01*
X00717550Y00359500D01*
D02*
G37*
G36*
X00717600Y00317000D02*
Y00275500D01*
X00679000D01*
X00676600Y00277900D01*
Y00317000D01*
X00679100Y00319500D01*
X00715100D01*
X00717600Y00317000D01*
D02*
G37*
G36*
X00717550Y00233500D02*
Y00202000D01*
X00715050Y00199500D01*
X00679050D01*
X00676550Y00202000D01*
Y00233500D01*
X00679050Y00236000D01*
X00715050D01*
X00717550Y00233500D01*
D02*
G37*
G36*
X00717600Y00191000D02*
Y00149500D01*
X00690500D01*
X00676600Y00163400D01*
Y00191000D01*
X00679100Y00193500D01*
X00715100D01*
X00717600Y00191000D01*
D02*
G37*
G36*
X00669500Y00485500D02*
Y00159500D01*
X00691500Y00137500D01*
X00729500D01*
X00741000Y00126000D01*
Y00097000D01*
X00729500Y00085500D01*
X00678500D01*
X00656500Y00107500D01*
Y00107500D01*
X00631500Y00132500D01*
X00585500D01*
X00582500Y00135500D01*
Y00159500D01*
X00585500Y00162500D01*
X00625000D01*
X00629500Y00167000D01*
Y00485500D01*
X00632000Y00488000D01*
X00667000D01*
X00669500Y00485500D01*
D02*
G37*
G36*
X00064000Y00412500D02*
Y00370500D01*
X00060000Y00366500D01*
X00028000D01*
X00024000Y00370500D01*
Y00391500D01*
X00037500Y00405000D01*
Y00416000D01*
Y00416250D01*
X00060250D01*
X00064000Y00412500D01*
D02*
G37*
G36*
X00391010Y00292407D02*
X00391152Y00290568D01*
X00391285Y00289746D01*
X00391458Y00288989D01*
X00391673Y00288297D01*
X00391928Y00287671D01*
X00392224Y00287110D01*
X00392561Y00286613D01*
X00392939Y00286182D01*
X00390817Y00284061D01*
X00390387Y00284439D01*
X00389891Y00284776D01*
X00389329Y00285072D01*
X00388703Y00285327D01*
X00388011Y00285542D01*
X00387254Y00285715D01*
X00386432Y00285848D01*
X00385545Y00285940D01*
X00383575Y00286000D01*
X00391000Y00293425D01*
X00391010Y00292407D01*
D02*
G37*
G36*
X00439148Y00235180D02*
X00439749Y00234670D01*
X00440358Y00234220D01*
X00440975Y00233830D01*
X00441601Y00233500D01*
X00442235Y00233230D01*
X00442877Y00233020D01*
X00443528Y00232870D01*
X00444187Y00232780D01*
X00444855Y00232750D01*
Y00228250D01*
X00444187Y00228220D01*
X00443528Y00228130D01*
X00442877Y00227980D01*
X00442235Y00227770D01*
X00441601Y00227500D01*
X00440975Y00227170D01*
X00440358Y00226780D01*
X00439749Y00226330D01*
X00439148Y00225820D01*
X00438556Y00225250D01*
Y00235750D01*
X00439148Y00235180D01*
D02*
G37*
G36*
X00422038Y00228776D02*
X00422150Y00228187D01*
X00422337Y00227581D01*
X00422600Y00226958D01*
X00422938Y00226317D01*
X00423350Y00225659D01*
X00423838Y00224984D01*
X00424400Y00224292D01*
X00425750Y00222856D01*
X00415250D01*
X00415962Y00223583D01*
X00417163Y00224984D01*
X00417650Y00225659D01*
X00418063Y00226317D01*
X00418400Y00226958D01*
X00418662Y00227581D01*
X00418850Y00228187D01*
X00418963Y00228776D01*
X00419000Y00229348D01*
X00422000D01*
X00422038Y00228776D01*
D02*
G37*
G36*
X00206000Y00399000D02*
Y00326500D01*
X00186500D01*
X00180000Y00320000D01*
Y00311000D01*
X00177500Y00308500D01*
X00172500D01*
X00170000Y00311000D01*
Y00320000D01*
X00163500Y00326500D01*
X00121500Y00326500D01*
X00091500Y00296500D01*
X00089500Y00294500D01*
Y00280000D01*
X00081000D01*
X00062000Y00261000D01*
X00047500D01*
Y00267000D01*
X00049000Y00268500D01*
X00058500Y00268500D01*
X00079500Y00289500D01*
Y00295000D01*
Y00300000D01*
X00088000Y00308500D01*
X00121000Y00341500D01*
X00166000D01*
X00170500Y00346000D01*
Y00360000D01*
Y00403500D01*
X00201500D01*
X00206000Y00399000D01*
D02*
G37*
G36*
X00162233Y00323441D02*
X00166941Y00318733D01*
Y00311000D01*
X00167174Y00309830D01*
X00167837Y00308837D01*
X00167837Y00308837D01*
X00167850Y00308824D01*
Y00293050D01*
X00169292D01*
Y00291600D01*
X00169719Y00289454D01*
X00170935Y00287635D01*
X00173358Y00285211D01*
X00173500Y00284000D01*
X00173500Y00284000D01*
Y00279500D01*
X00172078Y00278078D01*
X00165250D01*
Y00292750D01*
X00129750D01*
Y00278078D01*
X00125500D01*
X00125500Y00278078D01*
X00123939Y00277768D01*
X00122616Y00276884D01*
X00119982Y00274250D01*
X00100500D01*
Y00259328D01*
X00095439D01*
X00093500Y00261268D01*
Y00274250D01*
X00081500D01*
Y00262268D01*
X00078561Y00259328D01*
X00071172D01*
X00069500Y00261000D01*
Y00264174D01*
X00082267Y00276941D01*
X00089500D01*
X00090047Y00277050D01*
X00091650D01*
Y00277829D01*
X00091663Y00277837D01*
X00092326Y00278829D01*
X00092559Y00280000D01*
Y00293233D01*
X00093663Y00294337D01*
X00093663Y00294337D01*
X00122767Y00323441D01*
X00162233Y00323441D01*
D02*
G37*
G36*
X00217515Y00049144D02*
X00217560Y00048629D01*
X00217635Y00048174D01*
X00217740Y00047780D01*
X00217875Y00047447D01*
X00218040Y00047174D01*
X00218235Y00046962D01*
X00218460Y00046810D01*
X00218715Y00046719D01*
X00219000Y00046689D01*
X00213000D01*
X00213285Y00046719D01*
X00213540Y00046810D01*
X00213765Y00046962D01*
X00213960Y00047174D01*
X00214125Y00047447D01*
X00214260Y00047780D01*
X00214365Y00048174D01*
X00214440Y00048629D01*
X00214485Y00049144D01*
X00214500Y00049720D01*
X00217500D01*
X00217515Y00049144D01*
D02*
G37*
G36*
X00107515D02*
X00107560Y00048629D01*
X00107635Y00048174D01*
X00107740Y00047780D01*
X00107875Y00047447D01*
X00108040Y00047174D01*
X00108235Y00046962D01*
X00108460Y00046810D01*
X00108715Y00046719D01*
X00109000Y00046689D01*
X00103000D01*
X00103285Y00046719D01*
X00103540Y00046810D01*
X00103765Y00046962D01*
X00103960Y00047174D01*
X00104125Y00047447D01*
X00104260Y00047780D01*
X00104365Y00048174D01*
X00104440Y00048629D01*
X00104485Y00049144D01*
X00104500Y00049720D01*
X00107500D01*
X00107515Y00049144D01*
D02*
G37*
G36*
X00257532Y00050096D02*
X00257629Y00049551D01*
X00257790Y00048995D01*
X00258016Y00048430D01*
X00258306Y00047854D01*
X00258661Y00047267D01*
X00259080Y00046671D01*
X00259564Y00046065D01*
X00260112Y00045448D01*
X00260725Y00044820D01*
X00251275D01*
X00251888Y00045448D01*
X00252920Y00046671D01*
X00253339Y00047267D01*
X00253694Y00047854D01*
X00253984Y00048430D01*
X00254210Y00048995D01*
X00254371Y00049551D01*
X00254468Y00050096D01*
X00254500Y00050631D01*
X00257500D01*
X00257532Y00050096D01*
D02*
G37*
G36*
X00147532D02*
X00147629Y00049551D01*
X00147790Y00048995D01*
X00148016Y00048430D01*
X00148306Y00047854D01*
X00148661Y00047267D01*
X00149080Y00046671D01*
X00149564Y00046065D01*
X00150112Y00045448D01*
X00150725Y00044820D01*
X00141275D01*
X00141888Y00045448D01*
X00142920Y00046671D01*
X00143339Y00047267D01*
X00143694Y00047854D01*
X00143984Y00048430D01*
X00144210Y00048995D01*
X00144371Y00049551D01*
X00144468Y00050096D01*
X00144500Y00050631D01*
X00147500D01*
X00147532Y00050096D01*
D02*
G37*
G36*
X00551500Y00164000D02*
Y00137000D01*
X00533000D01*
X00521000Y00149000D01*
X00521000Y00167500D01*
X00548000D01*
X00551500Y00164000D01*
D02*
G37*
G36*
X00383193Y00049235D02*
X00383932Y00048606D01*
X00384258Y00048377D01*
X00384556Y00048204D01*
X00384824Y00048088D01*
X00385064Y00048028D01*
X00385274Y00048025D01*
X00385456Y00048079D01*
X00385609Y00048189D01*
X00382811Y00045391D01*
X00382921Y00045544D01*
X00382975Y00045726D01*
X00382971Y00045936D01*
X00382912Y00046176D01*
X00382796Y00046444D01*
X00382623Y00046741D01*
X00382394Y00047068D01*
X00382108Y00047423D01*
X00381366Y00048219D01*
X00382780Y00049634D01*
X00383193Y00049235D01*
D02*
G37*
G36*
X00375598Y00048583D02*
X00375254Y00048172D01*
X00374947Y00047663D01*
X00374678Y00047056D01*
X00374447Y00046352D01*
X00374253Y00045551D01*
X00374097Y00044652D01*
X00373979Y00043656D01*
X00373855Y00041371D01*
X00373849Y00040082D01*
X00365683Y00048250D01*
X00366971Y00048255D01*
X00370252Y00048497D01*
X00371151Y00048653D01*
X00371952Y00048847D01*
X00372656Y00049078D01*
X00373263Y00049347D01*
X00373772Y00049654D01*
X00374184Y00049998D01*
X00375598Y00048583D01*
D02*
G37*
G36*
X00323500Y00080500D02*
Y00034000D01*
X00319500Y00030000D01*
X00302000D01*
X00298000Y00034000D01*
Y00081500D01*
X00301500Y00085000D01*
X00319000D01*
X00323500Y00080500D01*
D02*
G37*
D10*
X00309000Y00339000D02*
X00322000Y00326000D01*
X00280000Y00339000D02*
X00309000D01*
X00322000Y00326000D02*
X00438500D01*
X00312500Y00347000D02*
X00324500Y00335000D01*
X00369500D01*
X00283000Y00347000D02*
X00312500D01*
X00275000Y00334000D02*
X00280000Y00339000D01*
X00296500Y00356000D02*
X00315000D01*
X00328000Y00343000D02*
X00364500D01*
X00315000Y00356000D02*
X00328000Y00343000D01*
X00274000Y00356000D02*
X00283000Y00347000D01*
X00438500Y00326000D02*
X00459500Y00305000D01*
X00275000Y00309500D02*
Y00334000D01*
X00369500Y00335000D02*
X00374000Y00339500D01*
X00202000Y00106500D02*
X00226500D01*
X00253400Y00079600D01*
X00135500Y00106500D02*
X00147500D01*
X00108600Y00079600D02*
X00135500Y00106500D01*
X00227000Y00309500D02*
Y00321000D01*
X00262000Y00356000D02*
X00271500D01*
X00227000Y00321000D02*
X00262000Y00356000D01*
X00479000Y00417000D02*
Y00418000D01*
Y00410000D02*
Y00417000D01*
X00420000Y00340500D02*
Y00356000D01*
X00437500Y00377400D02*
X00463900D01*
X00474000Y00387500D01*
X00398500Y00278500D02*
X00420500D01*
X00383500Y00293500D02*
X00398500Y00278500D01*
X00325500Y00271000D02*
Y00288500D01*
X00322000Y00292000D02*
X00325500Y00288500D01*
X00219000Y00194500D02*
Y00209500D01*
X00157000Y00215000D02*
X00178000Y00236000D01*
X00157000Y00116000D02*
Y00215000D01*
X00178000Y00236000D02*
X00193500D01*
X00180500Y00228000D02*
X00193500D01*
X00165500Y00213000D02*
X00180500Y00228000D01*
X00165500Y00096500D02*
Y00213000D01*
X00174000Y00210500D02*
X00183500Y00220000D01*
X00174000Y00119000D02*
Y00210500D01*
X00183500Y00220000D02*
X00193500D01*
X00484000Y00417000D02*
Y00442500D01*
X00476250Y00450250D02*
X00484000Y00442500D01*
X00462250Y00450250D02*
X00476250D01*
X00355500Y00179000D02*
X00355500Y00179000D01*
X00377500D01*
X00308500Y00292000D02*
X00322000D01*
X00210500D02*
X00217000Y00285500D01*
X00193500Y00292000D02*
X00210500D01*
X00256000Y00079600D02*
X00256000Y00079600D01*
X00256000Y00040000D02*
Y00079600D01*
X00147500Y00106500D02*
X00157000Y00116000D01*
X00182500Y00126000D02*
X00202000Y00106500D01*
X00148600Y00079600D02*
X00165500Y00096500D01*
X00174000Y00119000D02*
X00213400Y00079600D01*
X00189000Y00212000D02*
X00193500D01*
X00182500Y00205500D02*
X00189000Y00212000D01*
X00182500Y00126000D02*
Y00205500D01*
X00111000Y00193500D02*
X00121000D01*
X00111000Y00168500D02*
Y00193500D01*
X00043000Y00168500D02*
X00111000D01*
X00146000Y00040000D02*
Y00079600D01*
X00106000D02*
X00108600D01*
X00106000Y00040000D02*
Y00079600D01*
X00146000D02*
X00148600D01*
X00213400Y00079600D02*
X00216000D01*
X00216000Y00040000D02*
Y00079600D01*
X00216000Y00079600D01*
X00253400D02*
X00256000D01*
X00377500Y00179000D02*
X00445500D01*
X00374000Y00339500D02*
Y00356000D01*
X00420500Y00312000D02*
X00420500Y00312000D01*
X00420500Y00299500D02*
Y00312000D01*
X00474000Y00387500D02*
Y00397000D01*
X00479000D02*
Y00405000D01*
X00374000Y00356000D02*
X00395000D01*
X00271500D02*
X00274000D01*
X00464000Y00305000D02*
X00464000D01*
X00459500D02*
X00464000D01*
X00456000Y00230500D02*
X00456000Y00230500D01*
X00420500Y00217500D02*
Y00257500D01*
X00440500D02*
Y00278500D01*
X00464000Y00276750D02*
X00464000D01*
X00442250D02*
X00464000D01*
X00440500Y00278500D02*
X00442250Y00276750D01*
X00440500Y00297500D02*
X00454750Y00283250D01*
X00440500Y00297500D02*
Y00299500D01*
X00454750Y00283250D02*
X00464000D01*
X00464000Y00305000D02*
X00481600D01*
X00464000Y00340500D02*
X00468500D01*
X00475250Y00347250D01*
X00488500D01*
X00464000Y00325000D02*
Y00340500D01*
Y00360500D02*
X00468500D01*
X00475250Y00353750D01*
X00488500D01*
X00423770Y00294770D02*
Y00297270D01*
X00464000Y00289750D02*
Y00305000D01*
D13*
X00350000Y00125500D02*
X00375000D01*
X00269500Y00180500D02*
X00295000D01*
X00350000Y00125500D01*
X00347500Y00117000D02*
X00365500D01*
X00267000Y00174000D02*
X00290500D01*
X00347500Y00117000D01*
X00506500Y00130000D02*
Y00210000D01*
X00515500Y00118500D02*
Y00121000D01*
X00506500Y00130000D02*
X00515500Y00121000D01*
X00490500Y00202485D02*
X00541015Y00253000D01*
X00490500Y00118500D02*
Y00202485D01*
X00161600Y00248000D02*
X00171500Y00257900D01*
X00160000Y00248000D02*
X00161600D01*
X00117500Y00261657D02*
Y00266000D01*
X00121500Y00260000D02*
Y00264343D01*
X00094750Y00251250D02*
X00112750D01*
X00093750Y00255250D02*
X00111093D01*
X00117500Y00261657D01*
X00112750Y00251250D02*
X00121500Y00260000D01*
X00117500Y00266000D02*
X00125500Y00274000D01*
X00131500D01*
X00121500Y00264343D02*
X00127157Y00270000D01*
X00131500D01*
X00137500Y00280000D02*
Y00282500D01*
X00131500Y00274000D02*
X00137500Y00280000D01*
Y00261500D02*
Y00264000D01*
X00131500Y00270000D02*
X00137500Y00264000D01*
X00157500Y00261500D02*
Y00264000D01*
X00163500Y00270000D01*
X00157500Y00280000D02*
Y00282500D01*
Y00280000D02*
X00163500Y00274000D01*
X00163500Y00270000D02*
X00181500D01*
X00163500Y00274000D02*
X00181500D01*
X00183500Y00276000D01*
X00193500D01*
X00181500Y00270000D02*
X00183500Y00268000D01*
X00193500D01*
X00080250Y00251250D02*
X00087500Y00244000D01*
X00064750Y00251250D02*
X00080250D01*
X00064750Y00255250D02*
X00080250D01*
X00087500Y00262500D01*
X00447500Y00325000D02*
X00456500Y00316000D01*
X00447500Y00325000D02*
Y00332000D01*
X00561750Y00400750D02*
X00589000Y00373500D01*
X00595000Y00264500D02*
Y00378000D01*
X00570500Y00402500D02*
X00595000Y00378000D01*
X00565750Y00407250D02*
X00570500Y00402500D01*
X00558000Y00407250D02*
X00565750D01*
X00589000Y00266985D02*
Y00373500D01*
X00558000Y00400750D02*
X00561750D01*
X00577500Y00247000D02*
X00595000Y00264500D01*
X00541015Y00253000D02*
X00575015D01*
X00543500Y00247000D02*
X00577500D01*
X00575015Y00253000D02*
X00589000Y00266985D01*
X00506500Y00210000D02*
X00543500Y00247000D01*
X00251000Y00161500D02*
X00265100Y00147400D01*
X00251000Y00161500D02*
Y00194500D01*
X00243000Y00146500D02*
Y00194500D01*
X00225500Y00129000D02*
X00243000Y00146500D01*
X00206000Y00133600D02*
X00219400D01*
X00224000Y00129000D01*
X00225500D01*
X00265100Y00147400D02*
X00280000D01*
X00375000Y00125500D02*
X00390500Y00110000D01*
X00515500Y00101500D02*
X00526000D01*
X00508000D02*
X00515500D01*
X00515500Y00101500D01*
Y00118500D01*
X00490500Y00101500D02*
X00498000D01*
X00480000D02*
X00490500D01*
Y00118500D01*
X00462500Y00397000D02*
X00469000D01*
X00462500Y00417000D02*
X00469000D01*
X00383000Y00375000D02*
X00395000D01*
X00383000Y00365500D02*
X00395000D01*
X00258500D02*
X00271500D01*
X00258500Y00375000D02*
X00271500D01*
X00526000Y00101500D02*
X00526000Y00101500D01*
X00505500Y00050500D02*
Y00099000D01*
X00508000Y00101500D01*
X00505500Y00050500D02*
X00516000Y00040000D01*
X00267000Y00183000D02*
X00269500Y00180500D01*
X00267000Y00183000D02*
Y00194500D01*
X00383000Y00101500D02*
X00390500D01*
Y00110000D01*
X00380500Y00099000D02*
X00383000Y00101500D01*
X00380500Y00050500D02*
X00391000Y00040000D01*
X00380500Y00050500D02*
Y00099000D01*
X00498000Y00101500D02*
X00500500Y00099000D01*
Y00049900D02*
Y00099000D01*
X00490600Y00040000D02*
X00500500Y00049900D01*
X00259000Y00182000D02*
X00267000Y00174000D01*
X00259000Y00182000D02*
Y00194500D01*
X00373000Y00101500D02*
X00375500Y00099000D01*
Y00049900D02*
Y00099000D01*
X00365500Y00101500D02*
X00373000D01*
X00365600Y00040000D02*
X00375500Y00049900D01*
X00365500Y00117000D02*
X00365500Y00117000D01*
X00365500Y00101500D02*
Y00117000D01*
X00087500Y00262500D02*
Y00265500D01*
Y00261500D02*
Y00262500D01*
Y00261500D02*
X00093750Y00255250D01*
X00087500Y00244000D02*
X00094750Y00251250D01*
X00087500Y00240500D02*
Y00244000D01*
X00063500Y00250000D02*
X00064750Y00251250D01*
X00063500Y00256500D02*
X00064750Y00255250D01*
X00054250Y00250000D02*
X00063500D01*
X00054250Y00256500D02*
X00063500D01*
D19*
X00515500Y00082500D02*
D03*
Y00092000D02*
D03*
Y00101500D02*
D03*
X00490500D02*
D03*
Y00082500D02*
D03*
X00390500D02*
D03*
Y00092000D02*
D03*
Y00101500D02*
D03*
X00365500D02*
D03*
Y00082500D02*
D03*
D20*
X00606000Y00095000D02*
D03*
X00558000D02*
D03*
D21*
X00507400Y00438500D02*
D03*
X00493600D02*
D03*
X00377900Y00446000D02*
D03*
X00364100D02*
D03*
X00546900Y00385500D02*
D03*
X00533100Y00385500D02*
D03*
X00050100Y00476500D02*
D03*
X00063900D02*
D03*
X00098400Y00285000D02*
D03*
X00084600D02*
D03*
X00297400Y00327000D02*
D03*
X00283600D02*
D03*
X00174900Y00301000D02*
D03*
X00161100D02*
D03*
X00147400Y00365000D02*
D03*
X00133600D02*
D03*
X00161600D02*
D03*
X00175400D02*
D03*
X00221900Y00332000D02*
D03*
X00208100D02*
D03*
X00225900Y00170500D02*
D03*
X00212100D02*
D03*
X00619600Y00343500D02*
D03*
X00633400D02*
D03*
Y00469500D02*
D03*
X00619600D02*
D03*
X00461100Y00254500D02*
D03*
X00474900D02*
D03*
X00727400Y00406500D02*
D03*
X00713600D02*
D03*
X00481600Y00305000D02*
D03*
X00495400D02*
D03*
X00633400Y00217500D02*
D03*
X00619600D02*
D03*
X00713600Y00154500D02*
D03*
X00727400D02*
D03*
X00643400Y00095000D02*
D03*
X00629600D02*
D03*
X00713600Y00280500D02*
D03*
X00727400D02*
D03*
D22*
X00482500Y00476100D02*
D03*
Y00489900D02*
D03*
X00404000Y00403600D02*
D03*
Y00417400D02*
D03*
X00553500Y00474900D02*
D03*
Y00461100D02*
D03*
X00568000D02*
D03*
Y00474900D02*
D03*
X00068500Y00508600D02*
D03*
Y00522400D02*
D03*
X00328000Y00204600D02*
D03*
Y00218400D02*
D03*
X00241000Y00432400D02*
D03*
Y00418600D02*
D03*
X00171500Y00244100D02*
D03*
Y00257900D02*
D03*
X00374000Y00502100D02*
D03*
Y00515900D02*
D03*
X00328500Y00418600D02*
D03*
Y00432400D02*
D03*
X00440000Y00093900D02*
D03*
Y00080100D02*
D03*
X00361000Y00502100D02*
D03*
Y00515900D02*
D03*
X00387000Y00502100D02*
D03*
Y00515900D02*
D03*
X00315000Y00080100D02*
D03*
Y00093900D02*
D03*
Y00365600D02*
D03*
Y00379400D02*
D03*
X00106000Y00079600D02*
D03*
Y00093400D02*
D03*
X00146000D02*
D03*
Y00079600D02*
D03*
X00280000Y00133600D02*
D03*
Y00147400D02*
D03*
X00206000Y00133600D02*
D03*
Y00147400D02*
D03*
X00340000Y00369900D02*
D03*
Y00356100D02*
D03*
X00437500Y00377400D02*
D03*
Y00363600D02*
D03*
X00216000Y00093400D02*
D03*
Y00079600D02*
D03*
X00256000D02*
D03*
Y00093400D02*
D03*
D23*
X00542510Y00493500D02*
D03*
X00501489D02*
D03*
D24*
X00541850Y00538500D02*
D03*
X00501150D02*
D03*
D25*
X00590000Y00403000D02*
D03*
X00610000D02*
D03*
X00053000Y00439500D02*
D03*
X00361000Y00462500D02*
D03*
X00381000D02*
D03*
X00510500Y00456500D02*
D03*
X00490500D02*
D03*
X00488500Y00378000D02*
D03*
X00073000Y00439500D02*
D03*
X00535500Y00118500D02*
D03*
X00515500D02*
D03*
X00470500D02*
D03*
X00490500D02*
D03*
X00137500Y00282500D02*
D03*
X00157500D02*
D03*
X00137500Y00261500D02*
D03*
X00157500D02*
D03*
X00111000Y00193500D02*
D03*
X00091000D02*
D03*
X00362000Y00252000D02*
D03*
X00382000D02*
D03*
X00529500Y00322000D02*
D03*
X00549500D02*
D03*
X00508500Y00378000D02*
D03*
X00684500Y00343500D02*
D03*
X00664500D02*
D03*
X00684500Y00469500D02*
D03*
X00664500D02*
D03*
X00684500Y00217500D02*
D03*
X00664500D02*
D03*
X00456000Y00230500D02*
D03*
X00476000D02*
D03*
X00420500Y00299500D02*
D03*
X00440500D02*
D03*
X00420500Y00257500D02*
D03*
X00440500D02*
D03*
X00420500Y00278500D02*
D03*
X00440500D02*
D03*
X00234500Y00364500D02*
D03*
X00214500Y00364500D02*
D03*
X00368000Y00408500D02*
D03*
X00348000D02*
D03*
D26*
X00533000Y00420250D02*
D03*
Y00413750D02*
D03*
Y00407250D02*
D03*
Y00400750D02*
D03*
X00558000Y00400750D02*
D03*
Y00407250D02*
D03*
Y00413750D02*
D03*
Y00420250D02*
D03*
D27*
X00052000Y00282000D02*
D03*
Y00218000D02*
D03*
D28*
X00027500Y00262000D02*
D03*
Y00238000D02*
D03*
D29*
X00377500Y00139000D02*
D03*
X00445500D02*
D03*
X00377500Y00179000D02*
D03*
X00445500D02*
D03*
X00043000Y00128500D02*
D03*
X00111000D02*
D03*
X00043000Y00168500D02*
D03*
X00111000D02*
D03*
D30*
X00462250Y00463250D02*
D03*
Y00456750D02*
D03*
Y00450250D02*
D03*
X00403750Y00476250D02*
D03*
Y00450250D02*
D03*
X00462250Y00437250D02*
D03*
X00403750Y00463250D02*
D03*
X00462250Y00482750D02*
D03*
Y00489250D02*
D03*
Y00495750D02*
D03*
Y00502250D02*
D03*
Y00508750D02*
D03*
Y00515250D02*
D03*
Y00521750D02*
D03*
Y00476250D02*
D03*
X00403750Y00443750D02*
D03*
Y00437250D02*
D03*
X00462250Y00469750D02*
D03*
X00403750Y00521750D02*
D03*
Y00515250D02*
D03*
Y00508750D02*
D03*
Y00502250D02*
D03*
Y00495750D02*
D03*
Y00489250D02*
D03*
Y00482750D02*
D03*
Y00469750D02*
D03*
Y00456750D02*
D03*
X00462250Y00443750D02*
D03*
D31*
X00484000Y00417000D02*
D03*
Y00397000D02*
D03*
X00479000D02*
D03*
X00474000D02*
D03*
X00469000D02*
D03*
Y00417000D02*
D03*
X00474000D02*
D03*
X00479000D02*
D03*
D32*
X00446500Y00400000D02*
D03*
Y00420000D02*
D03*
X00528500Y00182500D02*
D03*
Y00162500D02*
D03*
X00464000Y00340500D02*
D03*
Y00360500D02*
D03*
X00545000Y00277000D02*
D03*
Y00297000D02*
D03*
X00566500Y00297000D02*
D03*
Y00277000D02*
D03*
X00464000Y00305000D02*
D03*
Y00325000D02*
D03*
D33*
X00308500Y00252000D02*
D03*
X00193500Y00292000D02*
D03*
Y00284000D02*
D03*
Y00276000D02*
D03*
Y00268000D02*
D03*
Y00260000D02*
D03*
Y00252000D02*
D03*
Y00244000D02*
D03*
Y00236000D02*
D03*
Y00228000D02*
D03*
Y00220000D02*
D03*
Y00212000D02*
D03*
X00308500D02*
D03*
Y00220000D02*
D03*
Y00228000D02*
D03*
Y00236000D02*
D03*
Y00244000D02*
D03*
Y00260000D02*
D03*
Y00268000D02*
D03*
Y00276000D02*
D03*
Y00284000D02*
D03*
Y00292000D02*
D03*
D34*
X00328400Y00252000D02*
D03*
X00344600D02*
D03*
X00216400Y00385000D02*
D03*
X00232600Y00385000D02*
D03*
X00054900Y00459000D02*
D03*
X00071100D02*
D03*
X00349900Y00429000D02*
D03*
X00366100D02*
D03*
D35*
X00488500Y00360250D02*
D03*
X00549500Y00340750D02*
D03*
X00549500Y00347250D02*
D03*
Y00353750D02*
D03*
X00549500Y00360250D02*
D03*
X00488500Y00353750D02*
D03*
Y00347250D02*
D03*
Y00340750D02*
D03*
X00525000Y00270250D02*
D03*
Y00276750D02*
D03*
Y00283250D02*
D03*
Y00289750D02*
D03*
X00464000D02*
D03*
Y00283250D02*
D03*
Y00276750D02*
D03*
Y00270250D02*
D03*
D36*
X00586050Y00199620D02*
D03*
X00547950Y00199620D02*
D03*
X00560650Y00199620D02*
D03*
X00573350D02*
D03*
X00586050Y00145380D02*
D03*
X00573350D02*
D03*
X00560650D02*
D03*
X00547950Y00145380D02*
D03*
D37*
X00378500Y00159000D02*
D03*
X00044000Y00148500D02*
D03*
D38*
X00476500Y00407000D02*
D03*
D39*
X00106500Y00240500D02*
D03*
X00087500D02*
D03*
Y00265500D02*
D03*
X00097000D02*
D03*
X00106500D02*
D03*
D40*
X00031500Y00445800D02*
D03*
Y00475200D02*
D03*
D41*
X00433000Y00479500D02*
D03*
D42*
X00211000Y00194500D02*
D03*
X00219000D02*
D03*
X00227000D02*
D03*
X00235000D02*
D03*
X00243000D02*
D03*
X00251000D02*
D03*
X00259000D02*
D03*
X00267000D02*
D03*
X00275000D02*
D03*
X00283000D02*
D03*
X00291000D02*
D03*
Y00309500D02*
D03*
X00283000D02*
D03*
X00275000D02*
D03*
X00267000D02*
D03*
X00259000D02*
D03*
X00251000D02*
D03*
X00243000D02*
D03*
X00235000D02*
D03*
X00227000D02*
D03*
X00219000D02*
D03*
X00211000D02*
D03*
D43*
X00031500Y00421500D02*
D03*
D44*
X00024000Y00431000D02*
D03*
X00029000D02*
D03*
X00034000D02*
D03*
X00039000D02*
D03*
Y00412000D02*
D03*
X00034000D02*
D03*
X00029000D02*
D03*
X00024000D02*
D03*
D45*
X00262000Y00152000D02*
D03*
X00224000D02*
D03*
Y00129000D02*
D03*
X00262000D02*
D03*
D46*
X00296500Y00356000D02*
D03*
X00296500Y00365500D02*
D03*
X00296500Y00375000D02*
D03*
X00271500D02*
D03*
X00271500Y00365500D02*
D03*
X00271500Y00356000D02*
D03*
X00420000D02*
D03*
X00420000Y00365500D02*
D03*
X00420000Y00375000D02*
D03*
X00395000D02*
D03*
X00395000Y00365500D02*
D03*
X00395000Y00356000D02*
D03*
D47*
X00355000D02*
D03*
X00374000D02*
D03*
X00364500Y00377000D02*
D03*
D48*
X00611000Y00193500D02*
D03*
Y00151500D02*
D03*
D49*
X00054250Y00263000D02*
D03*
Y00256500D02*
D03*
Y00250000D02*
D03*
Y00243500D02*
D03*
Y00237000D02*
D03*
D50*
X00307300Y00411500D02*
D03*
X00295900D02*
D03*
X00273100D02*
D03*
X00261700D02*
D03*
D51*
X00284500Y00474500D02*
D03*
D52*
X00035500Y00492500D02*
D03*
X00035500Y00522500D02*
D03*
D53*
X00566500Y00297000D02*
Y00309000D01*
D96*
X00027500Y00282550D02*
D03*
Y00217450D02*
D03*
D103*
X00606000Y00095000D02*
Y00100000D01*
X00594000Y00112000D02*
X00606000Y00100000D01*
X00587500Y00118500D02*
X00594000Y00112000D01*
X00535500Y00118500D02*
X00587500D01*
X00470500Y00082500D02*
X00490500D01*
X00442000D02*
X00470500D01*
X00308500Y00220000D02*
X00338000D01*
X00313500Y00082500D02*
X00365500D01*
X00200500Y00364500D02*
X00214500D01*
X00198500Y00366500D02*
X00200500Y00364500D01*
X00175000Y00301000D02*
Y00313500D01*
X00171500Y00244000D02*
X00193500D01*
X00225400Y00170500D02*
X00227000Y00172100D01*
X00470500Y00082500D02*
Y00118500D01*
X00190050Y00352050D02*
X00208100Y00334000D01*
X00174900Y00291600D02*
Y00301000D01*
X00182500Y00284000D02*
X00193500D01*
X00174900Y00291600D02*
X00182500Y00284000D01*
X00219000Y00294500D02*
X00219000Y00294500D01*
X00219000Y00294500D02*
Y00309500D01*
X00221900Y00325400D02*
Y00332000D01*
X00219000Y00322500D02*
X00221900Y00325400D01*
X00208100Y00322900D02*
Y00332000D01*
Y00322900D02*
X00211000Y00320000D01*
Y00309500D02*
Y00320000D01*
X00297400Y00327000D02*
Y00327000D01*
Y00319900D02*
Y00327000D01*
X00306500D01*
X00297400D02*
X00297400D01*
X00291000Y00313500D02*
X00297400Y00319900D01*
X00291000Y00309500D02*
Y00313500D01*
X00283000Y00326400D02*
X00283600Y00327000D01*
X00283000Y00309500D02*
Y00326400D01*
X00097000Y00265500D02*
Y00285000D01*
X00327500Y00356000D02*
X00355000D01*
X00306400Y00379400D02*
X00315000D01*
X00171500Y00257900D02*
X00173600Y00260000D01*
X00181000D01*
X00162000Y00236000D02*
X00170100Y00244100D01*
X00171500D01*
X00057500Y00193500D02*
X00091000D01*
X00224000Y00152000D02*
X00224000D01*
X00210600D02*
X00224000D01*
X00206000Y00147400D02*
X00210600Y00152000D01*
X00508500Y00378000D02*
Y00412500D01*
X00516500Y00420500D02*
X00533000D01*
X00508500Y00412500D02*
X00516500Y00420500D01*
X00535500Y00469500D02*
Y00479500D01*
X00533000Y00420500D02*
Y00467000D01*
X00535500Y00469500D01*
X00610000Y00403000D02*
X00610000Y00403000D01*
Y00390000D02*
Y00403000D01*
X00437500Y00377400D02*
Y00385500D01*
Y00377400D02*
Y00377400D01*
X00389500Y00252000D02*
X00392000D01*
X00382000D02*
X00389500D01*
X00533100Y00385500D02*
X00533100Y00385500D01*
X00546900D02*
X00556000Y00385500D01*
X00533100Y00375600D02*
Y00385500D01*
X00533000Y00375500D02*
X00533100Y00375600D01*
X00227000Y00172100D02*
Y00181500D01*
X00227000D02*
Y00194500D01*
X00509000Y00455000D02*
X00510500Y00456500D01*
X00509000Y00440100D02*
Y00455000D01*
X00507400Y00438500D02*
X00509000Y00440100D01*
X00508500Y00373500D02*
X00514000Y00368000D01*
Y00340750D02*
Y00368000D01*
X00508500Y00373500D02*
Y00378000D01*
X00514000Y00302000D02*
Y00340750D01*
X00308500Y00252000D02*
X00328400D01*
X00490000Y00378000D02*
X00490000Y00378000D01*
X00235000Y00194500D02*
Y00216000D01*
X00235000Y00216000D01*
X00297400Y00327000D02*
X00297500Y00327100D01*
X00235000Y00181500D02*
X00235000Y00181500D01*
X00235000Y00181500D02*
Y00194500D01*
X00344600Y00252000D02*
X00362000D01*
X00433500Y00389500D02*
X00437500Y00385500D01*
X00333500Y00400000D02*
X00344000Y00389500D01*
X00433500D01*
X00106500Y00230000D02*
Y00240500D01*
X00091000Y00193500D02*
X00091000Y00193500D01*
X00470500Y00118500D02*
X00470500Y00118500D01*
X00490500Y00262500D02*
Y00278500D01*
X00482500Y00254500D02*
X00490500Y00262500D01*
X00430900Y00363600D02*
X00437500D01*
X00429000Y00365500D02*
X00430900Y00363600D01*
X00420000Y00365500D02*
X00429000D01*
X00327500Y00356000D02*
Y00400000D01*
X00389500Y00252000D02*
X00389500Y00252000D01*
X00366100Y00429000D02*
X00368000Y00427100D01*
Y00408500D02*
Y00427100D01*
X00333000Y00408500D02*
X00348000D01*
X00315000Y00379400D02*
Y00400000D01*
X00302000Y00375000D02*
X00306400Y00379400D01*
X00296500Y00375000D02*
X00302000D01*
X00420000D02*
X00425000D01*
X00427400Y00377400D02*
X00437500D01*
X00425000Y00375000D02*
X00427400Y00377400D01*
X00474900Y00254500D02*
X00482500D01*
X00452000D02*
X00461100D01*
X00490500Y00278500D02*
X00514000Y00302000D01*
X00545000Y00297000D02*
Y00307000D01*
X00262000Y00129000D02*
X00262000Y00129000D01*
X00224000Y00152000D02*
X00224000Y00152000D01*
X00283000Y00294500D02*
Y00309500D01*
X00283000Y00309500D02*
X00283000Y00309500D01*
X00308500Y00212000D02*
X00308500Y00212000D01*
Y00203500D02*
Y00212000D01*
X00390500Y00092000D02*
X00401000D01*
X00515500Y00092000D02*
X00515500Y00092000D01*
X00526000D01*
X00219000Y00309500D02*
Y00322500D01*
X00181000Y00260000D02*
X00181000Y00260000D01*
X00193500D01*
X00097000Y00265500D02*
X00097000Y00265500D01*
D104*
X00296500Y00365500D02*
X00315000D01*
X00284000D02*
X00296500D01*
D105*
X00522750Y00407250D02*
X00533000Y00407250D01*
X00404000Y00417400D02*
Y00426500D01*
X00403750Y00426750D02*
X00404000Y00426500D01*
X00403750Y00426750D02*
Y00437250D01*
X00482350Y00476250D02*
X00482500Y00476100D01*
X00462250Y00476250D02*
X00482350D01*
X00579900Y00429500D02*
X00594500Y00444100D01*
X00545500Y00425500D02*
X00549500Y00429500D01*
X00579900D01*
X00545500Y00416000D02*
Y00425500D01*
X00533000Y00385600D02*
X00533100Y00385500D01*
X00533000Y00385600D02*
Y00400750D01*
X00568750Y00413750D02*
X00571000Y00411500D01*
X00558000Y00413750D02*
X00568750D01*
X00572750Y00420250D02*
X00590000Y00403000D01*
X00558000Y00420250D02*
X00572750D01*
X00543250Y00413750D02*
X00545500Y00416000D01*
X00533000Y00413750D02*
X00543250Y00413750D01*
X00379000Y00461500D02*
X00381000Y00463500D01*
X00379000Y00447600D02*
Y00461500D01*
X00377900Y00446500D02*
X00379000Y00447600D01*
X00380650Y00443750D02*
X00403750D01*
X00377900Y00446500D02*
X00380650Y00443750D01*
X00446500Y00420000D02*
X00452000D01*
X00462250Y00456750D02*
X00490500D01*
X00472250Y00469750D02*
X00476500Y00465500D01*
X00462250Y00469750D02*
X00472250D01*
X00488500Y00340750D02*
X00514000D01*
X00403750Y00463250D02*
X00421500D01*
X00462250Y00430250D02*
Y00437250D01*
X00452000Y00420000D02*
X00462250Y00430250D01*
X00488500Y00360250D02*
Y00378000D01*
X00403750Y00469750D02*
X00421500D01*
X00232600Y00385000D02*
X00234500Y00383100D01*
Y00364500D02*
Y00383100D01*
X00474900Y00254500D02*
Y00263600D01*
X00464000Y00270250D02*
X00468250D01*
X00474900Y00263600D01*
X00529500Y00322000D02*
Y00334500D01*
X00529500Y00334500D01*
X00502750Y00353750D02*
X00503000Y00353500D01*
X00488500Y00353750D02*
X00502750D01*
X00495400Y00314400D02*
X00495500Y00314500D01*
X00495400Y00305000D02*
Y00314400D01*
X00476000Y00231500D02*
X00514750Y00270250D01*
X00476000Y00230500D02*
Y00231500D01*
X00433200Y00230500D02*
X00456000D01*
X00510500Y00283500D02*
X00510750Y00283250D01*
X00525000D01*
X00549500Y00322000D02*
X00549500Y00322000D01*
X00549500Y00322000D02*
Y00340750D01*
X00565750Y00353750D02*
X00566000Y00354000D01*
X00549500Y00353750D02*
X00565750D01*
X00560750Y00347250D02*
X00562500Y00345500D01*
X00549500Y00340750D02*
X00560750D01*
X00562500Y00342500D01*
Y00345500D01*
X00549500Y00347250D02*
X00560750D01*
X00525000Y00276750D02*
X00566250D01*
X00566500Y00277000D01*
X00514750Y00270250D02*
X00525000D01*
X00472250Y00443750D02*
X00476000Y00440000D01*
X00462250Y00443750D02*
X00472250D01*
X00525000Y00297500D02*
X00525000Y00297500D01*
Y00289750D02*
Y00297500D01*
D106*
X00057000Y00235250D02*
D03*
D107*
X00265000Y00123500D02*
D03*
D108*
X00072250Y00449750D02*
D03*
D109*
X00027500Y00250000D02*
D03*
D110*
X00038500Y00217250D02*
D03*
D111*
Y00282750D02*
D03*
D112*
X00154500Y00423500D02*
D03*
D113*
X00129100Y00393000D02*
D03*
D114*
X00154500D02*
D03*
X00179900D02*
D03*
D115*
X00746455Y00326500D02*
D03*
Y00360500D02*
D03*
X00704545Y00309500D02*
D03*
Y00343500D02*
D03*
X00704495Y00469500D02*
D03*
Y00435500D02*
D03*
X00746405Y00486500D02*
D03*
Y00452500D02*
D03*
X00746455Y00200500D02*
D03*
Y00234500D02*
D03*
X00704545Y00183500D02*
D03*
Y00217500D02*
D03*
D116*
Y00377500D02*
D03*
X00704495Y00503500D02*
D03*
X00704545Y00251500D02*
D03*
D117*
X00036000Y00350000D02*
D03*
Y00375000D02*
D03*
D118*
X00407800Y00230500D02*
D03*
X00420500Y00217500D02*
D03*
X00433200Y00230500D02*
D03*
X00370500Y00280800D02*
D03*
X00383500Y00293500D02*
D03*
X00370500Y00306200D02*
D03*
D119*
X00516000Y00040000D02*
D03*
X00646000D02*
D03*
X00391000D02*
D03*
D120*
X00490600D02*
D03*
X00465200D02*
D03*
X00439800D02*
D03*
X00620600D02*
D03*
X00595200D02*
D03*
X00569800D02*
D03*
X00365600D02*
D03*
X00340200D02*
D03*
X00314800D02*
D03*
D121*
X00146000D02*
D03*
X00126000D02*
D03*
X00256000D02*
D03*
X00236000D02*
D03*
D122*
X00106000D02*
D03*
X00216000D02*
D03*
D123*
X00594500Y00494900D02*
D03*
D124*
Y00444100D02*
D03*
D125*
X00769191Y00110000D02*
D03*
D126*
X00718391D02*
D03*
D127*
X00270000Y00341000D02*
D03*
X00283000Y00033000D02*
D03*
X00408000D02*
D03*
X00533000Y00036000D02*
D03*
X00302000Y00302500D02*
D03*
X00493000Y00073000D02*
D03*
X00455000D02*
D03*
X00368000D02*
D03*
X00330500D02*
D03*
X00110500Y00397000D02*
D03*
Y00379500D02*
D03*
X00114500Y00500500D02*
D03*
Y00483500D02*
D03*
Y00466500D02*
D03*
Y00449500D02*
D03*
Y00432500D02*
D03*
X00131500Y00500500D02*
D03*
Y00483500D02*
D03*
Y00466500D02*
D03*
Y00449500D02*
D03*
Y00432500D02*
D03*
X00148500Y00500500D02*
D03*
Y00483500D02*
D03*
Y00466500D02*
D03*
Y00449500D02*
D03*
X00165500Y00500500D02*
D03*
Y00483500D02*
D03*
Y00466500D02*
D03*
Y00449500D02*
D03*
X00182500Y00500500D02*
D03*
Y00483500D02*
D03*
Y00466500D02*
D03*
Y00449500D02*
D03*
Y00432500D02*
D03*
X00199500Y00500500D02*
D03*
Y00483500D02*
D03*
Y00466500D02*
D03*
Y00449500D02*
D03*
Y00432500D02*
D03*
Y00415500D02*
D03*
X00182500D02*
D03*
X00131500D02*
D03*
X00114500D02*
D03*
X00306500Y00327000D02*
D03*
X00079500Y00506500D02*
D03*
Y00498000D02*
D03*
X00061000D02*
D03*
X00160000Y00248000D02*
D03*
X00170000Y00281500D02*
D03*
X00126500Y00254500D02*
D03*
X00097000Y00243500D02*
D03*
X00072500Y00244000D02*
D03*
Y00262500D02*
D03*
X00162000Y00236000D02*
D03*
X00057500Y00193500D02*
D03*
X00494000Y00477000D02*
D03*
X00379500Y00433500D02*
D03*
X00581000Y00314000D02*
D03*
Y00365000D02*
D03*
X00509500Y00237500D02*
D03*
X00558500Y00262000D02*
D03*
X00521500Y00385500D02*
D03*
X00751500Y00517000D02*
D03*
X00623000Y00495000D02*
D03*
Y00520000D02*
D03*
X00462000Y00386500D02*
D03*
X00523000Y00431000D02*
D03*
X00521000Y00413000D02*
D03*
X00431000Y00313000D02*
D03*
X00420000Y00340500D02*
D03*
X00560500Y00485000D02*
D03*
X00543500Y00461000D02*
D03*
X00346500Y00441500D02*
D03*
Y00450000D02*
D03*
Y00458500D02*
D03*
Y00467000D02*
D03*
X00423500Y00402500D02*
D03*
X00432500D02*
D03*
X00423500Y00410500D02*
D03*
X00432500D02*
D03*
Y00418500D02*
D03*
X00423500D02*
D03*
X00321000Y00484000D02*
D03*
Y00475500D02*
D03*
X00329500D02*
D03*
X00610000Y00390000D02*
D03*
X00404000Y00426500D02*
D03*
X00568500Y00394000D02*
D03*
X00571000Y00411500D02*
D03*
X00490000Y00407000D02*
D03*
X00462500D02*
D03*
X00533000Y00375500D02*
D03*
X00556000Y00385500D02*
D03*
X00570500Y00402500D02*
D03*
X00535000Y00360000D02*
D03*
X00129500Y00315000D02*
D03*
X00148000Y00185500D02*
D03*
X00193500D02*
D03*
X00148000Y00201500D02*
D03*
X00228000Y00209500D02*
D03*
X00203000Y00170500D02*
D03*
X00493500Y00428500D02*
D03*
X00476500Y00465500D02*
D03*
X00481000Y00270500D02*
D03*
X00232000Y00348000D02*
D03*
X00248000Y00385000D02*
D03*
X00277500Y00392000D02*
D03*
X00265500Y00058500D02*
D03*
X00398000Y00058000D02*
D03*
X00521000Y00066000D02*
D03*
X00338000Y00467000D02*
D03*
Y00458500D02*
D03*
Y00450000D02*
D03*
Y00441500D02*
D03*
X00252000Y00430000D02*
D03*
X00260000D02*
D03*
X00268000D02*
D03*
X00276000D02*
D03*
X00284000D02*
D03*
X00292000D02*
D03*
X00300000D02*
D03*
X00308000D02*
D03*
X00316000D02*
D03*
X00216500Y00397500D02*
D03*
X00389000Y00333000D02*
D03*
X00079000Y00397000D02*
D03*
X00684000Y00520000D02*
D03*
Y00495000D02*
D03*
Y00394000D02*
D03*
Y00369000D02*
D03*
Y00268000D02*
D03*
Y00243000D02*
D03*
X00191000Y00142500D02*
D03*
X00144000Y00116000D02*
D03*
X00193500Y00201500D02*
D03*
X00149500Y00165000D02*
D03*
X00361000Y00318000D02*
D03*
X00340500Y00269500D02*
D03*
X00256000Y00278000D02*
D03*
Y00294500D02*
D03*
X00241000Y00324000D02*
D03*
X00387500Y00220000D02*
D03*
X00447500Y00332000D02*
D03*
X00608000Y00124500D02*
D03*
X00620000Y00258500D02*
D03*
Y00296500D02*
D03*
Y00379500D02*
D03*
X00480500Y00186000D02*
D03*
X00291500Y00161000D02*
D03*
X00296500Y00103000D02*
D03*
X00224000Y00114500D02*
D03*
X00262000D02*
D03*
X00209500Y00559000D02*
D03*
X00274500D02*
D03*
X00339500D02*
D03*
X00415000D02*
D03*
X00480000D02*
D03*
X00546500D02*
D03*
X00610000D02*
D03*
X00675000D02*
D03*
X00740000D02*
D03*
X00331000Y00010500D02*
D03*
X00271000D02*
D03*
X00206000D02*
D03*
X00141000D02*
D03*
X00355500Y00179000D02*
D03*
X00325500Y00271000D02*
D03*
X00335500Y00299500D02*
D03*
X00208500Y00283500D02*
D03*
X00217000Y00285500D02*
D03*
X00328000Y00195500D02*
D03*
X00323000Y00229000D02*
D03*
X00235000Y00181500D02*
D03*
X00132500Y00128500D02*
D03*
X00227000Y00181500D02*
D03*
X00219000Y00209500D02*
D03*
X00121000Y00193500D02*
D03*
X00106000Y00102500D02*
D03*
X00205500Y00099000D02*
D03*
X00226000Y00093500D02*
D03*
X00256000Y00102500D02*
D03*
X00340000Y00103000D02*
D03*
X00258500Y00172000D02*
D03*
X00392000Y00252000D02*
D03*
X00338000Y00220000D02*
D03*
X00219000Y00322500D02*
D03*
X00106500Y00230000D02*
D03*
X00478500Y00326000D02*
D03*
X00420500Y00312000D02*
D03*
X00462500Y00397000D02*
D03*
Y00417000D02*
D03*
X00437500Y00347500D02*
D03*
X00383000Y00375000D02*
D03*
Y00365500D02*
D03*
X00258500D02*
D03*
Y00375000D02*
D03*
X00364500Y00343000D02*
D03*
X00327500Y00356000D02*
D03*
X00340000Y00380000D02*
D03*
X00284000Y00365500D02*
D03*
X00329500Y00441500D02*
D03*
X00321000D02*
D03*
X00329500Y00450000D02*
D03*
X00321000D02*
D03*
X00329500Y00458500D02*
D03*
Y00467000D02*
D03*
X00321000D02*
D03*
Y00458500D02*
D03*
X00239500Y00441500D02*
D03*
X00248000D02*
D03*
X00239500Y00450000D02*
D03*
X00248000D02*
D03*
X00239500Y00458500D02*
D03*
Y00467000D02*
D03*
Y00475500D02*
D03*
Y00484000D02*
D03*
Y00492500D02*
D03*
Y00501000D02*
D03*
X00248000D02*
D03*
Y00492500D02*
D03*
Y00484000D02*
D03*
Y00475500D02*
D03*
Y00467000D02*
D03*
Y00458500D02*
D03*
Y00509500D02*
D03*
X00422000Y00450500D02*
D03*
X00433000D02*
D03*
X00444000D02*
D03*
Y00442500D02*
D03*
X00433000D02*
D03*
X00422000D02*
D03*
X00444000Y00434500D02*
D03*
X00433000D02*
D03*
X00422000D02*
D03*
X00433000Y00524500D02*
D03*
X00444000D02*
D03*
X00422000Y00516500D02*
D03*
X00433000D02*
D03*
X00444000D02*
D03*
Y00508500D02*
D03*
X00433000D02*
D03*
X00422000D02*
D03*
X00393500Y00402500D02*
D03*
X00452000Y00254500D02*
D03*
X00529500Y00334500D02*
D03*
X00503000Y00353500D02*
D03*
X00495500Y00314500D02*
D03*
X00510500Y00283500D02*
D03*
X00566000Y00354000D02*
D03*
X00526000Y00101500D02*
D03*
X00390500Y00110000D02*
D03*
X00480000Y00101500D02*
D03*
X00365500Y00117000D02*
D03*
X00476000Y00440000D02*
D03*
X00280000Y00124500D02*
D03*
X00206000Y00157000D02*
D03*
X00352500Y00139000D02*
D03*
X00136000Y00093500D02*
D03*
X00747000Y00083000D02*
D03*
X00157500Y00104500D02*
D03*
X00256000Y00247000D02*
D03*
X00208500D02*
D03*
X00256000Y00209500D02*
D03*
X00290000D02*
D03*
X00293500Y00247000D02*
D03*
X00283000Y00294500D02*
D03*
X00293500Y00278000D02*
D03*
X00208500Y00209500D02*
D03*
X00219000Y00294500D02*
D03*
X00411000Y00125000D02*
D03*
X00467000Y00139000D02*
D03*
X00071000Y00311000D02*
D03*
X00271000Y00076000D02*
D03*
X00182000Y00058500D02*
D03*
X00174000Y00107500D02*
D03*
X00076000Y00071000D02*
D03*
X00661000D02*
D03*
X00141000Y00559000D02*
D03*
X00076000D02*
D03*
X00011000Y00071000D02*
D03*
Y00131000D02*
D03*
Y00191000D02*
D03*
Y00251000D02*
D03*
Y00311000D02*
D03*
Y00371000D02*
D03*
Y00491000D02*
D03*
Y00559000D02*
D03*
X00805000D02*
D03*
Y00491000D02*
D03*
Y00431000D02*
D03*
Y00371000D02*
D03*
Y00311000D02*
D03*
Y00251000D02*
D03*
Y00191000D02*
D03*
Y00131000D02*
D03*
Y00071000D02*
D03*
Y00010500D02*
D03*
X00726000D02*
D03*
X00661000D02*
D03*
X00596000D02*
D03*
X00521000D02*
D03*
X00456000D02*
D03*
X00396000D02*
D03*
X00076000D02*
D03*
X00011000D02*
D03*
X00401000Y00092000D02*
D03*
X00526000Y00092000D02*
D03*
X00308500Y00203500D02*
D03*
X00545000Y00307000D02*
D03*
X00525000Y00297500D02*
D03*
X00181000Y00260000D02*
D03*
D128*
X00641500Y00107500D02*
D03*
X00644500Y00083000D02*
D03*
X00628500D02*
D03*
X00428000Y00095000D02*
D03*
X00428000Y00079000D02*
D03*
X00315000Y00105500D02*
D03*
X00303000Y00079000D02*
D03*
X00200500Y00365000D02*
D03*
X00187000D02*
D03*
X00160500Y00352000D02*
D03*
X00148500D02*
D03*
X00070500Y00498000D02*
D03*
X00350000Y00552000D02*
D03*
X00402000D02*
D03*
X00389000Y00539500D02*
D03*
Y00552000D02*
D03*
X00376000D02*
D03*
X00363000D02*
D03*
X00380500Y00481000D02*
D03*
X00368500D02*
D03*
X00386500Y00491500D02*
D03*
X00374500D02*
D03*
X00469500Y00536000D02*
D03*
X00481500D02*
D03*
X00469500Y00548000D02*
D03*
X00481500D02*
D03*
X00550000Y00440500D02*
D03*
X00562000D02*
D03*
X00544000Y00450500D02*
D03*
X00556000D02*
D03*
X00568000D02*
D03*
X00069000Y00230500D02*
D03*
X00161000Y00313500D02*
D03*
X00175000D02*
D03*
X00363000Y00539500D02*
D03*
X00376000D02*
D03*
Y00527000D02*
D03*
X00363000D02*
D03*
X00077500Y00488000D02*
D03*
Y00475500D02*
D03*
X00566500Y00309000D02*
D03*
X00573500Y00229500D02*
D03*
Y00217500D02*
D03*
X00560500Y00229500D02*
D03*
Y00217500D02*
D03*
X00573500Y00182500D02*
D03*
X00560500D02*
D03*
X00573500Y00162500D02*
D03*
X00560500D02*
D03*
Y00130500D02*
D03*
X00573500D02*
D03*
X00534500Y00194500D02*
D03*
X00522000D02*
D03*
X00534500Y00206500D02*
D03*
X00522000D02*
D03*
X00752500Y00160500D02*
D03*
X00728500Y00418500D02*
D03*
Y00394500D02*
D03*
X00740000Y00412500D02*
D03*
Y00400500D02*
D03*
X00728500Y00166500D02*
D03*
X00740000Y00160500D02*
D03*
Y00274500D02*
D03*
Y00286500D02*
D03*
X00728500Y00268500D02*
D03*
Y00292500D02*
D03*
X00606000Y00229500D02*
D03*
X00618500Y00457500D02*
D03*
Y00481500D02*
D03*
Y00331500D02*
D03*
Y00355500D02*
D03*
Y00229500D02*
D03*
X00606000Y00217500D02*
D03*
X00063000Y00488000D02*
D03*
X00084500Y00297500D02*
D03*
X00109500Y00285000D02*
D03*
X00013000Y00421500D02*
D03*
X00050000Y00423500D02*
D03*
M02*
