G04*
G04 #@! TF.GenerationSoftware,Altium Limited,Altium Designer,23.11.1 (41)*
G04*
G04 Layer_Physical_Order=2*
G04 Layer_Color=16711680*
%FSAX44Y44*%
%MOMM*%
G71*
G04*
G04 #@! TF.SameCoordinates,364ED4AD-CB4B-4712-B5C5-B547B387D418*
G04*
G04*
G04 #@! TF.FilePolarity,Positive*
G04*
G01*
G75*
%ADD10C,0.3000*%
%ADD13C,0.2000*%
%ADD53C,1.0000*%
%ADD96C,1.7500*%
%ADD103C,0.5000*%
%ADD104C,0.6000*%
%ADD105C,0.4500*%
%ADD112O,2.5000X1.5000*%
%ADD113R,1.8600X1.8600*%
%ADD114C,1.8600*%
%ADD115C,1.9950*%
%ADD116R,1.9950X1.9950*%
%ADD117C,1.5750*%
%ADD118C,1.5000*%
%ADD119R,1.6500X1.6500*%
%ADD120C,1.6500*%
%ADD121C,1.3500*%
%ADD122R,1.3500X1.3500*%
%ADD123C,2.0850*%
%ADD124R,2.0850X2.0850*%
%ADD125C,2.1000*%
%ADD126R,2.1000X2.1000*%
%ADD127C,0.6000*%
%ADD128C,1.0000*%
G36*
X00809000Y00007000D02*
X00007000D01*
Y00563000D01*
X00809000D01*
Y00007000D01*
D02*
G37*
%LPC*%
G36*
X00484000Y00556059D02*
X00484000Y00556059D01*
X00414500D01*
X00414500Y00556059D01*
X00413330Y00555826D01*
X00412337Y00555163D01*
X00412337Y00555163D01*
X00361337Y00504163D01*
X00360674Y00503171D01*
X00360441Y00502000D01*
X00360441Y00502000D01*
Y00478500D01*
X00360674Y00477329D01*
X00361337Y00476337D01*
X00361337Y00476337D01*
X00363837Y00473837D01*
X00364829Y00473174D01*
X00366000Y00472941D01*
X00366000Y00472941D01*
X00389000D01*
X00389000Y00472941D01*
X00390171Y00473174D01*
X00391163Y00473837D01*
X00393663Y00476337D01*
X00394326Y00477329D01*
X00394559Y00478500D01*
X00394559Y00478500D01*
Y00494233D01*
X00427767Y00527441D01*
X00484000Y00527441D01*
X00485171Y00527674D01*
X00486163Y00528337D01*
X00486163Y00528337D01*
X00488663Y00530837D01*
X00489326Y00531829D01*
X00489559Y00533000D01*
X00489559Y00533000D01*
Y00550500D01*
X00489326Y00551671D01*
X00488663Y00552663D01*
X00488663Y00552663D01*
X00486163Y00555163D01*
X00485171Y00555826D01*
X00484000Y00556059D01*
D02*
G37*
G36*
X00717470Y00516475D02*
X00691520D01*
Y00490525D01*
X00717470D01*
Y00516475D01*
D02*
G37*
G36*
X00596267Y00508325D02*
X00592733D01*
X00589318Y00507410D01*
X00586257Y00505643D01*
X00583757Y00503143D01*
X00581990Y00500082D01*
X00581075Y00496667D01*
Y00493133D01*
X00581990Y00489718D01*
X00583757Y00486657D01*
X00586257Y00484157D01*
X00589318Y00482390D01*
X00592733Y00481475D01*
X00596267D01*
X00599682Y00482390D01*
X00602743Y00484157D01*
X00605243Y00486657D01*
X00607010Y00489718D01*
X00607925Y00493133D01*
Y00496667D01*
X00607010Y00500082D01*
X00605243Y00503143D01*
X00602743Y00505643D01*
X00599682Y00507410D01*
X00596267Y00508325D01*
D02*
G37*
G36*
X00604000Y00461559D02*
X00604000Y00461559D01*
X00586000Y00461559D01*
X00586000Y00461559D01*
X00584829Y00461326D01*
X00583837Y00460663D01*
X00576337Y00453163D01*
X00575674Y00452170D01*
X00575441Y00451000D01*
X00575441Y00451000D01*
X00575441Y00420000D01*
X00575441Y00420000D01*
X00575674Y00418829D01*
X00576337Y00417837D01*
X00584837Y00409337D01*
X00585830Y00408674D01*
X00587000Y00408441D01*
X00587000Y00408441D01*
X00628733D01*
X00633441Y00403733D01*
Y00375608D01*
X00614500D01*
X00612354Y00375181D01*
X00610535Y00373965D01*
X00596177Y00359608D01*
X00568140D01*
X00567193Y00360000D01*
X00564807D01*
X00562601Y00359087D01*
X00560914Y00357399D01*
X00560000Y00355193D01*
Y00352807D01*
X00560914Y00350601D01*
X00562601Y00348913D01*
X00564807Y00348000D01*
X00567193D01*
X00568140Y00348392D01*
X00598500D01*
X00600646Y00348819D01*
X00602465Y00350035D01*
X00616823Y00364392D01*
X00633441D01*
Y00179500D01*
X00633441Y00179500D01*
X00633674Y00178329D01*
X00634337Y00177337D01*
X00652337Y00159337D01*
X00653329Y00158674D01*
X00654500Y00158441D01*
X00654500Y00158441D01*
X00715000Y00158441D01*
X00715000Y00158441D01*
X00716171Y00158674D01*
X00717163Y00159337D01*
X00719663Y00161837D01*
X00720326Y00162829D01*
X00720559Y00164000D01*
X00720559Y00164000D01*
Y00197000D01*
X00720559Y00197000D01*
X00720326Y00198171D01*
X00719663Y00199163D01*
X00717163Y00201663D01*
X00716171Y00202326D01*
X00715000Y00202559D01*
X00715000Y00202559D01*
X00680267D01*
X00679559Y00203267D01*
Y00283733D01*
X00680267Y00284441D01*
X00715000D01*
X00715000Y00284441D01*
X00716171Y00284674D01*
X00717163Y00285337D01*
X00719663Y00287837D01*
X00720326Y00288829D01*
X00720559Y00290000D01*
X00720559Y00290000D01*
Y00323000D01*
X00720559Y00323000D01*
X00720326Y00324170D01*
X00719663Y00325163D01*
X00717163Y00327663D01*
X00716171Y00328326D01*
X00715000Y00328559D01*
X00715000Y00328559D01*
X00680267D01*
X00679559Y00329267D01*
Y00408733D01*
X00680767Y00409941D01*
X00715000D01*
X00715000Y00409941D01*
X00716171Y00410174D01*
X00717163Y00410837D01*
X00719663Y00413337D01*
X00720326Y00414329D01*
X00720559Y00415500D01*
X00720559Y00415500D01*
Y00449000D01*
X00720559Y00449000D01*
X00720326Y00450171D01*
X00719663Y00451163D01*
X00717163Y00453663D01*
X00716171Y00454326D01*
X00715000Y00454559D01*
X00715000Y00454559D01*
X00679000D01*
X00649502Y00454558D01*
X00649500Y00454559D01*
X00626500D01*
X00625330Y00454326D01*
X00624337Y00453663D01*
X00622233Y00451559D01*
X00615267D01*
X00606163Y00460663D01*
X00605171Y00461326D01*
X00604000Y00461559D01*
D02*
G37*
G36*
X00706203Y00482475D02*
X00702787D01*
X00699487Y00481591D01*
X00696528Y00479883D01*
X00694112Y00477467D01*
X00692404Y00474508D01*
X00691520Y00471208D01*
Y00467792D01*
X00692404Y00464492D01*
X00694112Y00461533D01*
X00696528Y00459117D01*
X00699487Y00457409D01*
X00702787Y00456525D01*
X00706203D01*
X00709503Y00457409D01*
X00712462Y00459117D01*
X00714878Y00461533D01*
X00716586Y00464492D01*
X00717470Y00467792D01*
Y00471208D01*
X00716586Y00474508D01*
X00714878Y00477467D01*
X00712462Y00479883D01*
X00709503Y00481591D01*
X00706203Y00482475D01*
D02*
G37*
G36*
X00748113Y00465475D02*
X00744697D01*
X00741397Y00464591D01*
X00738438Y00462883D01*
X00736022Y00460467D01*
X00734314Y00457508D01*
X00733430Y00454208D01*
Y00450792D01*
X00734314Y00447492D01*
X00736022Y00444533D01*
X00738438Y00442117D01*
X00741397Y00440409D01*
X00744697Y00439525D01*
X00748113D01*
X00751413Y00440409D01*
X00754372Y00442117D01*
X00756788Y00444533D01*
X00758496Y00447492D01*
X00759380Y00450792D01*
Y00454208D01*
X00758496Y00457508D01*
X00756788Y00460467D01*
X00754372Y00462883D01*
X00751413Y00464591D01*
X00748113Y00465475D01*
D02*
G37*
G36*
X00560500Y00491118D02*
X00551000D01*
X00548659Y00490652D01*
X00546674Y00489326D01*
X00503466Y00446118D01*
X00476000D01*
X00475409Y00446000D01*
X00474807D01*
X00474250Y00445769D01*
X00473659Y00445652D01*
X00473158Y00445317D01*
X00472601Y00445087D01*
X00472175Y00444660D01*
X00471674Y00444326D01*
X00471339Y00443825D01*
X00470913Y00443399D01*
X00470683Y00442842D01*
X00470348Y00442341D01*
X00470231Y00441750D01*
X00470000Y00441194D01*
Y00440591D01*
X00469882Y00440000D01*
X00470000Y00439409D01*
Y00438806D01*
X00470231Y00438250D01*
X00470348Y00437659D01*
X00470683Y00437158D01*
X00470913Y00436601D01*
X00471339Y00436175D01*
X00471674Y00435674D01*
X00472175Y00435340D01*
X00472601Y00434913D01*
X00473158Y00434683D01*
X00473659Y00434348D01*
X00474250Y00434231D01*
X00474807Y00434000D01*
X00475409D01*
X00476000Y00433882D01*
X00506000D01*
X00508341Y00434348D01*
X00510326Y00435674D01*
X00553534Y00478882D01*
X00560500D01*
X00561091Y00479000D01*
X00561693D01*
X00562250Y00479231D01*
X00562841Y00479348D01*
X00563342Y00479683D01*
X00563899Y00479913D01*
X00564325Y00480340D01*
X00564826Y00480674D01*
X00565160Y00481175D01*
X00565587Y00481601D01*
X00565817Y00482158D01*
X00566152Y00482659D01*
X00566269Y00483250D01*
X00566500Y00483806D01*
Y00484409D01*
X00566618Y00485000D01*
X00566500Y00485591D01*
Y00486194D01*
X00566269Y00486750D01*
X00566152Y00487341D01*
X00565817Y00487842D01*
X00565587Y00488399D01*
X00565160Y00488825D01*
X00564826Y00489326D01*
X00564325Y00489660D01*
X00563899Y00490087D01*
X00563342Y00490317D01*
X00562841Y00490652D01*
X00562250Y00490769D01*
X00561693Y00491000D01*
X00561091D01*
X00560500Y00491118D01*
D02*
G37*
G36*
X00477693Y00471500D02*
X00475307D01*
X00473101Y00470587D01*
X00471413Y00468899D01*
X00470766Y00467336D01*
X00454215Y00450785D01*
X00453055Y00449048D01*
X00452647Y00447000D01*
Y00438217D01*
X00446283Y00431853D01*
X00406756D01*
X00405193Y00432500D01*
X00402807D01*
X00400601Y00431587D01*
X00398913Y00429899D01*
X00398000Y00427693D01*
Y00425307D01*
X00398913Y00423101D01*
X00400601Y00421413D01*
X00402807Y00420500D01*
X00405193D01*
X00406756Y00421147D01*
X00448500D01*
X00450548Y00421555D01*
X00452285Y00422715D01*
X00461785Y00432215D01*
X00462945Y00433952D01*
X00463353Y00436000D01*
Y00444783D01*
X00478336Y00459766D01*
X00479899Y00460414D01*
X00481587Y00462101D01*
X00482500Y00464306D01*
Y00466693D01*
X00481587Y00468899D01*
X00479899Y00470587D01*
X00477693Y00471500D01*
D02*
G37*
G36*
X00159500Y00434091D02*
X00149500D01*
X00146759Y00433730D01*
X00144205Y00432672D01*
X00142011Y00430989D01*
X00140328Y00428795D01*
X00139270Y00426241D01*
X00138909Y00423500D01*
X00139270Y00420759D01*
X00140328Y00418205D01*
X00142011Y00416011D01*
X00144205Y00414328D01*
X00146759Y00413270D01*
X00149500Y00412909D01*
X00159500D01*
X00162241Y00413270D01*
X00164795Y00414328D01*
X00166989Y00416011D01*
X00168672Y00418205D01*
X00169730Y00420759D01*
X00170091Y00423500D01*
X00169730Y00426241D01*
X00168672Y00428795D01*
X00166989Y00430989D01*
X00164795Y00432672D01*
X00162241Y00433730D01*
X00159500Y00434091D01*
D02*
G37*
G36*
X00181519Y00405300D02*
X00178281D01*
X00175152Y00404462D01*
X00172348Y00402842D01*
X00170058Y00400552D01*
X00168438Y00397748D01*
X00167600Y00394619D01*
Y00391381D01*
X00168438Y00388252D01*
X00170058Y00385448D01*
X00172348Y00383158D01*
X00175152Y00381538D01*
X00178281Y00380700D01*
X00181519D01*
X00184648Y00381538D01*
X00187452Y00383158D01*
X00189742Y00385448D01*
X00191362Y00388252D01*
X00192200Y00391381D01*
Y00394619D01*
X00191362Y00397748D01*
X00189742Y00400552D01*
X00187452Y00402842D01*
X00184648Y00404462D01*
X00181519Y00405300D01*
D02*
G37*
G36*
X00141400D02*
X00116800D01*
Y00380700D01*
X00141400D01*
Y00405300D01*
D02*
G37*
G36*
X00463694Y00423000D02*
X00461306D01*
X00459101Y00422087D01*
X00457413Y00420399D01*
X00456500Y00418194D01*
Y00416768D01*
X00418811Y00379078D01*
X00387407D01*
X00386399Y00380087D01*
X00384193Y00381000D01*
X00382768D01*
X00367384Y00396384D01*
X00366061Y00397268D01*
X00364500Y00397578D01*
X00364500Y00397578D01*
X00290500D01*
X00290500Y00397578D01*
X00288939Y00397268D01*
X00287616Y00396384D01*
X00287616Y00396384D01*
X00270311Y00379078D01*
X00262907D01*
X00261899Y00380087D01*
X00259694Y00381000D01*
X00257306D01*
X00255101Y00380087D01*
X00253413Y00378399D01*
X00252500Y00376194D01*
Y00373806D01*
X00253413Y00371601D01*
X00254765Y00370250D01*
X00253413Y00368899D01*
X00252500Y00366693D01*
Y00364306D01*
X00253413Y00362101D01*
X00255101Y00360414D01*
X00257306Y00359500D01*
X00259694D01*
X00261899Y00360414D01*
X00262907Y00361422D01*
X00272000D01*
X00272000Y00361422D01*
X00273561Y00361732D01*
X00274884Y00362616D01*
X00295189Y00382922D01*
X00356078D01*
X00358000Y00381000D01*
Y00377000D01*
X00356108Y00375108D01*
X00312500D01*
X00310354Y00374681D01*
X00308535Y00373465D01*
X00291177Y00356108D01*
X00246823D01*
X00233965Y00368965D01*
X00232146Y00370181D01*
X00230000Y00370608D01*
X00206206D01*
X00205412Y00371402D01*
X00203588Y00372455D01*
X00201553Y00373000D01*
X00199447D01*
X00197412Y00372455D01*
X00195588Y00371402D01*
X00194586Y00370400D01*
X00193750Y00370056D01*
X00192914Y00370400D01*
X00191912Y00371402D01*
X00190088Y00372455D01*
X00188053Y00373000D01*
X00185947D01*
X00183912Y00372455D01*
X00182088Y00371402D01*
X00180598Y00369912D01*
X00179545Y00368088D01*
X00179000Y00366053D01*
Y00363947D01*
X00179545Y00361912D01*
X00180598Y00360088D01*
X00182088Y00358598D01*
X00183912Y00357545D01*
X00185947Y00357000D01*
X00188053D01*
X00190088Y00357545D01*
X00191912Y00358598D01*
X00192914Y00359600D01*
X00193750Y00359944D01*
X00194586Y00359600D01*
X00195588Y00358598D01*
X00197412Y00357545D01*
X00199447Y00357000D01*
X00201553D01*
X00203588Y00357545D01*
X00205412Y00358598D01*
X00206206Y00359392D01*
X00227677D01*
X00240535Y00346535D01*
X00242354Y00345319D01*
X00244500Y00344892D01*
X00293500D01*
X00295646Y00345319D01*
X00297465Y00346535D01*
X00314823Y00363892D01*
X00358177D01*
X00369535Y00352535D01*
X00371354Y00351319D01*
X00373500Y00350892D01*
X00442500D01*
X00444646Y00351319D01*
X00446465Y00352535D01*
X00463823Y00369892D01*
X00530859D01*
X00531806Y00369500D01*
X00534193D01*
X00535140Y00369892D01*
X00576500D01*
X00578646Y00370319D01*
X00580465Y00371535D01*
X00593323Y00384392D01*
X00607859D01*
X00608806Y00384000D01*
X00611194D01*
X00613399Y00384913D01*
X00615087Y00386601D01*
X00616000Y00388806D01*
Y00391194D01*
X00615087Y00393399D01*
X00613399Y00395087D01*
X00611194Y00396000D01*
X00608806D01*
X00607859Y00395608D01*
X00591000D01*
X00588854Y00395181D01*
X00587035Y00393965D01*
X00574177Y00381108D01*
X00535140D01*
X00534193Y00381500D01*
X00531806D01*
X00530859Y00381108D01*
X00461500D01*
X00459000Y00383608D01*
Y00387732D01*
X00462268Y00391000D01*
X00463694D01*
X00465899Y00391913D01*
X00466907Y00392922D01*
X00562500D01*
Y00392807D01*
X00563414Y00390601D01*
X00565101Y00388913D01*
X00567307Y00388000D01*
X00569693D01*
X00571899Y00388913D01*
X00573587Y00390601D01*
X00574500Y00392807D01*
Y00395193D01*
X00573627Y00397301D01*
X00573899Y00397413D01*
X00575587Y00399101D01*
X00576500Y00401306D01*
Y00403694D01*
X00575587Y00405899D01*
X00573899Y00407587D01*
X00571693Y00408500D01*
X00570268D01*
X00569884Y00408884D01*
X00568561Y00409768D01*
X00567000Y00410078D01*
X00567000Y00410078D01*
X00520189D01*
X00510384Y00419884D01*
X00509061Y00420768D01*
X00507500Y00421078D01*
X00507500Y00421078D01*
X00466907D01*
X00465899Y00422087D01*
X00463694Y00423000D01*
D02*
G37*
G36*
X00748113Y00499475D02*
X00744697D01*
X00741397Y00498591D01*
X00738438Y00496883D01*
X00736022Y00494467D01*
X00734314Y00491508D01*
X00733430Y00488208D01*
Y00484792D01*
X00734314Y00481492D01*
X00736022Y00478533D01*
X00738438Y00476117D01*
X00741397Y00474409D01*
X00744697Y00473525D01*
X00748113D01*
X00751413Y00474409D01*
X00754372Y00476117D01*
X00755378Y00477124D01*
X00755558Y00477229D01*
X00755835Y00477474D01*
X00756022Y00477602D01*
X00756301Y00477747D01*
X00756680Y00477900D01*
X00757160Y00478046D01*
X00757743Y00478179D01*
X00758386Y00478283D01*
X00760101Y00478424D01*
X00760493Y00478431D01*
X00761158D01*
X00765431Y00474158D01*
Y00368569D01*
X00760861D01*
X00759217Y00368632D01*
X00758473Y00368711D01*
X00757793Y00368821D01*
X00757210Y00368954D01*
X00756730Y00369100D01*
X00756351Y00369253D01*
X00756072Y00369398D01*
X00755885Y00369526D01*
X00755608Y00369771D01*
X00755428Y00369876D01*
X00754422Y00370883D01*
X00751463Y00372591D01*
X00748163Y00373475D01*
X00744747D01*
X00741447Y00372591D01*
X00738488Y00370883D01*
X00736072Y00368467D01*
X00734364Y00365508D01*
X00733480Y00362208D01*
Y00358792D01*
X00734364Y00355492D01*
X00736072Y00352533D01*
X00738488Y00350117D01*
X00741447Y00348409D01*
X00744747Y00347525D01*
X00748163D01*
X00751463Y00348409D01*
X00754422Y00350117D01*
X00755428Y00351124D01*
X00755608Y00351229D01*
X00755885Y00351474D01*
X00756072Y00351601D01*
X00756351Y00351747D01*
X00756730Y00351899D01*
X00757210Y00352046D01*
X00757793Y00352179D01*
X00758436Y00352283D01*
X00760151Y00352424D01*
X00760544Y00352431D01*
X00765431D01*
Y00242569D01*
X00760861D01*
X00759217Y00242632D01*
X00758473Y00242711D01*
X00757793Y00242821D01*
X00757210Y00242953D01*
X00756730Y00243100D01*
X00756351Y00243253D01*
X00756072Y00243398D01*
X00755885Y00243526D01*
X00755608Y00243771D01*
X00755428Y00243876D01*
X00754422Y00244883D01*
X00751463Y00246591D01*
X00748163Y00247475D01*
X00744747D01*
X00741447Y00246591D01*
X00738488Y00244883D01*
X00736072Y00242467D01*
X00734364Y00239508D01*
X00733480Y00236208D01*
Y00232792D01*
X00734364Y00229492D01*
X00736072Y00226533D01*
X00738488Y00224117D01*
X00741447Y00222409D01*
X00744747Y00221525D01*
X00748163D01*
X00751463Y00222409D01*
X00754422Y00224117D01*
X00755428Y00225124D01*
X00755608Y00225229D01*
X00755885Y00225474D01*
X00756072Y00225602D01*
X00756351Y00225747D01*
X00756730Y00225900D01*
X00757210Y00226046D01*
X00757793Y00226179D01*
X00758436Y00226283D01*
X00760151Y00226424D01*
X00760544Y00226431D01*
X00765431D01*
Y00159342D01*
X00755158Y00149069D01*
X00640342D01*
X00598069Y00191342D01*
Y00250000D01*
X00597794Y00252088D01*
X00596988Y00254035D01*
X00595706Y00255706D01*
X00574569Y00276842D01*
Y00309000D01*
X00574500Y00309524D01*
Y00310053D01*
X00574363Y00310564D01*
X00574294Y00311088D01*
X00574092Y00311577D01*
X00573955Y00312088D01*
X00573690Y00312546D01*
X00573488Y00313034D01*
X00573166Y00313454D01*
X00572902Y00313912D01*
X00572528Y00314286D01*
X00572206Y00314706D01*
X00571786Y00315028D01*
X00571412Y00315402D01*
X00570954Y00315666D01*
X00570535Y00315988D01*
X00570046Y00316190D01*
X00569588Y00316455D01*
X00569077Y00316592D01*
X00568588Y00316794D01*
X00568064Y00316863D01*
X00567553Y00317000D01*
X00567024D01*
X00566500Y00317069D01*
X00565976Y00317000D01*
X00565447D01*
X00564936Y00316863D01*
X00564412Y00316794D01*
X00563923Y00316592D01*
X00563412Y00316455D01*
X00562954Y00316190D01*
X00562466Y00315988D01*
X00562046Y00315666D01*
X00561588Y00315402D01*
X00561214Y00315028D01*
X00560794Y00314706D01*
X00560472Y00314286D01*
X00560098Y00313912D01*
X00559834Y00313454D01*
X00559512Y00313034D01*
X00559310Y00312546D01*
X00559045Y00312088D01*
X00558908Y00311577D01*
X00558706Y00311088D01*
X00558637Y00310564D01*
X00558500Y00310053D01*
Y00309524D01*
X00558431Y00309000D01*
Y00278853D01*
X00532500D01*
X00530452Y00278445D01*
X00528715Y00277285D01*
X00487283Y00235853D01*
X00444292D01*
X00444080Y00235882D01*
X00443698Y00235970D01*
X00443312Y00236096D01*
X00442916Y00236264D01*
X00442508Y00236480D01*
X00442086Y00236746D01*
X00441650Y00237069D01*
X00441201Y00237450D01*
X00440677Y00237954D01*
X00440449Y00238100D01*
X00439647Y00238902D01*
X00437253Y00240284D01*
X00434582Y00241000D01*
X00431818D01*
X00429147Y00240284D01*
X00426753Y00238902D01*
X00424798Y00236947D01*
X00423416Y00234553D01*
X00422700Y00231882D01*
Y00229118D01*
X00422756Y00228908D01*
X00421685Y00228000D01*
X00419118D01*
X00416447Y00227284D01*
X00414053Y00225902D01*
X00412098Y00223947D01*
X00410716Y00221553D01*
X00410000Y00218882D01*
Y00216118D01*
X00410716Y00213447D01*
X00412098Y00211053D01*
X00414053Y00209098D01*
X00416447Y00207716D01*
X00419118Y00207000D01*
X00421882D01*
X00424553Y00207716D01*
X00426947Y00209098D01*
X00428902Y00211053D01*
X00430284Y00213447D01*
X00431000Y00216118D01*
Y00218882D01*
X00430944Y00219092D01*
X00432015Y00220000D01*
X00434582D01*
X00437253Y00220716D01*
X00439647Y00222098D01*
X00440449Y00222900D01*
X00440677Y00223046D01*
X00441201Y00223550D01*
X00441650Y00223931D01*
X00442086Y00224254D01*
X00442508Y00224520D01*
X00442916Y00224735D01*
X00443312Y00224904D01*
X00443698Y00225030D01*
X00444080Y00225118D01*
X00444292Y00225147D01*
X00489500D01*
X00491548Y00225555D01*
X00493285Y00226715D01*
X00534717Y00268147D01*
X00560524D01*
X00560794Y00267794D01*
X00581931Y00246658D01*
Y00188000D01*
X00582206Y00185912D01*
X00583012Y00183965D01*
X00584294Y00182294D01*
X00631294Y00135294D01*
X00632966Y00134012D01*
X00634912Y00133206D01*
X00637000Y00132931D01*
X00758500D01*
X00760588Y00133206D01*
X00762534Y00134012D01*
X00764206Y00135294D01*
X00779206Y00150294D01*
X00780488Y00151966D01*
X00781294Y00153912D01*
X00781569Y00156000D01*
Y00234500D01*
Y00360500D01*
Y00477500D01*
X00781294Y00479588D01*
X00780488Y00481535D01*
X00779206Y00483206D01*
X00770206Y00492206D01*
X00768535Y00493488D01*
X00766589Y00494294D01*
X00764500Y00494569D01*
X00760811D01*
X00759167Y00494632D01*
X00758423Y00494711D01*
X00757743Y00494821D01*
X00757160Y00494953D01*
X00756680Y00495101D01*
X00756301Y00495253D01*
X00756022Y00495398D01*
X00755835Y00495526D01*
X00755558Y00495771D01*
X00755378Y00495876D01*
X00754372Y00496883D01*
X00751413Y00498591D01*
X00748113Y00499475D01*
D02*
G37*
G36*
X00717520Y00390475D02*
X00691570D01*
Y00364525D01*
X00717520D01*
Y00390475D01*
D02*
G37*
G36*
X00037432Y00385875D02*
X00034568D01*
X00031802Y00385134D01*
X00029323Y00383702D01*
X00027298Y00381677D01*
X00025866Y00379198D01*
X00025125Y00376432D01*
Y00373568D01*
X00025866Y00370802D01*
X00027298Y00368323D01*
X00029323Y00366298D01*
X00031802Y00364866D01*
X00034568Y00364125D01*
X00037432D01*
X00040198Y00364866D01*
X00042677Y00366298D01*
X00044702Y00368323D01*
X00046134Y00370802D01*
X00046875Y00373568D01*
Y00376432D01*
X00046134Y00379198D01*
X00044702Y00381677D01*
X00042677Y00383702D01*
X00040198Y00385134D01*
X00037432Y00385875D01*
D02*
G37*
G36*
X00706253Y00356475D02*
X00702837D01*
X00699537Y00355591D01*
X00696578Y00353883D01*
X00694162Y00351467D01*
X00692454Y00348508D01*
X00691570Y00345208D01*
Y00341792D01*
X00692454Y00338492D01*
X00694162Y00335533D01*
X00696578Y00333117D01*
X00699537Y00331409D01*
X00702837Y00330525D01*
X00706253D01*
X00709553Y00331409D01*
X00712512Y00333117D01*
X00714928Y00335533D01*
X00716636Y00338492D01*
X00717520Y00341792D01*
Y00345208D01*
X00716636Y00348508D01*
X00714928Y00351467D01*
X00712512Y00353883D01*
X00709553Y00355591D01*
X00706253Y00356475D01*
D02*
G37*
G36*
X00504193Y00359500D02*
X00501806D01*
X00499601Y00358587D01*
X00497914Y00356899D01*
X00497000Y00354693D01*
Y00352307D01*
X00497914Y00350101D01*
X00499601Y00348414D01*
X00501806Y00347500D01*
X00504193D01*
X00505756Y00348147D01*
X00508283D01*
X00523766Y00332664D01*
X00524413Y00331101D01*
X00526101Y00329413D01*
X00528307Y00328500D01*
X00530694D01*
X00532899Y00329413D01*
X00534587Y00331101D01*
X00535500Y00333307D01*
Y00335694D01*
X00534587Y00337899D01*
X00532899Y00339586D01*
X00531336Y00340234D01*
X00514285Y00357285D01*
X00512548Y00358445D01*
X00510500Y00358853D01*
X00505756D01*
X00504193Y00359500D01*
D02*
G37*
G36*
X00307694Y00333000D02*
X00305306D01*
X00303101Y00332087D01*
X00301413Y00330399D01*
X00301021Y00329452D01*
X00285677Y00314108D01*
X00213323D01*
X00209965Y00317465D01*
X00208146Y00318681D01*
X00206000Y00319108D01*
X00180706D01*
X00179912Y00319902D01*
X00178088Y00320955D01*
X00176053Y00321500D01*
X00173947D01*
X00171912Y00320955D01*
X00170088Y00319902D01*
X00168598Y00318412D01*
X00167545Y00316588D01*
X00167000Y00314553D01*
Y00312447D01*
X00167545Y00310412D01*
X00168598Y00308588D01*
X00169392Y00307794D01*
Y00296000D01*
X00169819Y00293854D01*
X00171035Y00292035D01*
X00187392Y00275677D01*
Y00249608D01*
X00170000D01*
X00167854Y00249181D01*
X00166035Y00247965D01*
X00159548Y00241479D01*
X00158601Y00241087D01*
X00156913Y00239399D01*
X00156521Y00238452D01*
X00153677Y00235608D01*
X00108640D01*
X00107694Y00236000D01*
X00105307D01*
X00103101Y00235087D01*
X00101413Y00233399D01*
X00100500Y00231194D01*
Y00228806D01*
X00101413Y00226601D01*
X00103101Y00224913D01*
X00105307Y00224000D01*
X00107694D01*
X00108640Y00224392D01*
X00156000D01*
X00158146Y00224819D01*
X00159965Y00226035D01*
X00164452Y00230521D01*
X00165399Y00230914D01*
X00167087Y00232601D01*
X00167479Y00233548D01*
X00172323Y00238392D01*
X00190677D01*
X00204035Y00225035D01*
X00205854Y00223819D01*
X00208000Y00223392D01*
X00230892D01*
Y00201323D01*
X00223035Y00193465D01*
X00221819Y00191646D01*
X00221392Y00189500D01*
Y00183640D01*
X00221000Y00182694D01*
Y00180306D01*
X00221914Y00178101D01*
X00223601Y00176413D01*
X00225807Y00175500D01*
X00228193D01*
X00230399Y00176413D01*
X00232087Y00178101D01*
X00233000Y00180306D01*
Y00182694D01*
X00232608Y00183640D01*
Y00187177D01*
X00240465Y00195035D01*
X00241681Y00196854D01*
X00242108Y00199000D01*
Y00223392D01*
X00301677D01*
X00309035Y00216035D01*
X00310854Y00214819D01*
X00313000Y00214392D01*
X00335860D01*
X00336806Y00214000D01*
X00339193D01*
X00341399Y00214913D01*
X00343087Y00216601D01*
X00344000Y00218806D01*
Y00221194D01*
X00343087Y00223399D01*
X00341399Y00225086D01*
X00339193Y00226000D01*
X00336806D01*
X00335860Y00225608D01*
X00315323D01*
X00307965Y00232965D01*
X00306146Y00234181D01*
X00304000Y00234608D01*
X00210323D01*
X00198608Y00246323D01*
Y00278000D01*
X00198181Y00280146D01*
X00196965Y00281965D01*
X00180608Y00298323D01*
Y00307794D01*
X00180706Y00307892D01*
X00203677D01*
X00207035Y00304535D01*
X00208854Y00303319D01*
X00211000Y00302892D01*
X00288000D01*
X00290146Y00303319D01*
X00291965Y00304535D01*
X00308952Y00321521D01*
X00309899Y00321913D01*
X00311586Y00323601D01*
X00312500Y00325807D01*
Y00328194D01*
X00311586Y00330399D01*
X00309899Y00332087D01*
X00307694Y00333000D01*
D02*
G37*
G36*
X00748163Y00339475D02*
X00744747D01*
X00741447Y00338591D01*
X00738488Y00336883D01*
X00736072Y00334467D01*
X00734364Y00331508D01*
X00733480Y00328208D01*
Y00324792D01*
X00734364Y00321492D01*
X00736072Y00318533D01*
X00738488Y00316117D01*
X00741447Y00314409D01*
X00744747Y00313525D01*
X00748163D01*
X00751463Y00314409D01*
X00754422Y00316117D01*
X00756838Y00318533D01*
X00758546Y00321492D01*
X00759430Y00324792D01*
Y00328208D01*
X00758546Y00331508D01*
X00756838Y00334467D01*
X00754422Y00336883D01*
X00751463Y00338591D01*
X00748163Y00339475D01*
D02*
G37*
G36*
X00328694Y00362000D02*
X00326306D01*
X00324101Y00361087D01*
X00322413Y00359399D01*
X00321500Y00357193D01*
Y00354807D01*
X00322413Y00352601D01*
X00324101Y00350913D01*
X00325048Y00350521D01*
X00349035Y00326535D01*
X00350854Y00325319D01*
X00353000Y00324892D01*
X00376677D01*
X00403892Y00297677D01*
Y00271823D01*
X00389548Y00257479D01*
X00388601Y00257087D01*
X00386913Y00255399D01*
X00386000Y00253193D01*
Y00250807D01*
X00386913Y00248601D01*
X00388601Y00246914D01*
X00390807Y00246000D01*
X00393193D01*
X00395399Y00246914D01*
X00397086Y00248601D01*
X00397479Y00249548D01*
X00413465Y00265535D01*
X00414681Y00267354D01*
X00415108Y00269500D01*
Y00300000D01*
X00414681Y00302146D01*
X00413465Y00303965D01*
X00382965Y00334465D01*
X00381146Y00335681D01*
X00379000Y00336108D01*
X00366858D01*
X00366605Y00337378D01*
X00367899Y00337913D01*
X00368397Y00338412D01*
X00387599D01*
X00414500Y00311511D01*
Y00310807D01*
X00415414Y00308601D01*
X00417101Y00306913D01*
X00419307Y00306000D01*
X00421693D01*
X00423899Y00306913D01*
X00425587Y00308601D01*
X00426500Y00310807D01*
Y00313193D01*
X00425587Y00315399D01*
X00423899Y00317087D01*
X00421693Y00318000D01*
X00420989D01*
X00392744Y00346244D01*
X00391256Y00347239D01*
X00389500Y00347588D01*
X00368397D01*
X00367899Y00348087D01*
X00365694Y00349000D01*
X00363307D01*
X00361101Y00348087D01*
X00359413Y00346399D01*
X00358500Y00344193D01*
Y00341806D01*
X00359413Y00339601D01*
X00361101Y00337913D01*
X00362395Y00337378D01*
X00362142Y00336108D01*
X00355323D01*
X00332979Y00358452D01*
X00332587Y00359399D01*
X00330899Y00361087D01*
X00328694Y00362000D01*
D02*
G37*
G36*
X00371882Y00316700D02*
X00369118D01*
X00366447Y00315984D01*
X00364053Y00314602D01*
X00362098Y00312647D01*
X00360716Y00310253D01*
X00360000Y00307582D01*
Y00306466D01*
X00359943Y00306219D01*
X00359886Y00304360D01*
X00359814Y00303669D01*
X00359711Y00303032D01*
X00359586Y00302484D01*
X00359445Y00302029D01*
X00359296Y00301665D01*
X00359150Y00301387D01*
X00359047Y00301236D01*
X00347900Y00290088D01*
X00220897D01*
X00220399Y00290586D01*
X00218193Y00291500D01*
X00215807D01*
X00213601Y00290586D01*
X00211913Y00288899D01*
X00211000Y00286693D01*
Y00284307D01*
X00211913Y00282101D01*
X00213601Y00280413D01*
X00215807Y00279500D01*
X00218193D01*
X00220399Y00280413D01*
X00220897Y00280912D01*
X00349800D01*
X00351556Y00281261D01*
X00353044Y00282256D01*
X00365536Y00294747D01*
X00365687Y00294850D01*
X00365965Y00294996D01*
X00366329Y00295145D01*
X00366785Y00295286D01*
X00367332Y00295411D01*
X00367930Y00295508D01*
X00369541Y00295633D01*
X00370455Y00295642D01*
X00370733Y00295700D01*
X00371882D01*
X00372092Y00295756D01*
X00373000Y00294685D01*
Y00292118D01*
X00373716Y00289447D01*
X00375098Y00287053D01*
X00377053Y00285098D01*
X00379447Y00283716D01*
X00382118Y00283000D01*
X00384882D01*
X00387553Y00283716D01*
X00389947Y00285098D01*
X00391902Y00287053D01*
X00393284Y00289447D01*
X00394000Y00292118D01*
Y00294882D01*
X00393284Y00297553D01*
X00391902Y00299947D01*
X00389947Y00301902D01*
X00387553Y00303284D01*
X00384882Y00304000D01*
X00382118D01*
X00381908Y00303944D01*
X00381000Y00305015D01*
Y00307582D01*
X00380284Y00310253D01*
X00378902Y00312647D01*
X00376947Y00314602D01*
X00374553Y00315984D01*
X00371882Y00316700D01*
D02*
G37*
G36*
X00421194Y00346500D02*
X00418806D01*
X00416601Y00345587D01*
X00414913Y00343899D01*
X00414000Y00341693D01*
Y00339306D01*
X00414913Y00337101D01*
X00415412Y00336603D01*
Y00336500D01*
X00415761Y00334744D01*
X00416756Y00333256D01*
X00469756Y00280256D01*
X00471244Y00279261D01*
X00473000Y00278912D01*
X00506603D01*
X00507101Y00278413D01*
X00509307Y00277500D01*
X00511693D01*
X00513899Y00278413D01*
X00515587Y00280101D01*
X00516500Y00282306D01*
Y00284694D01*
X00515587Y00286899D01*
X00513899Y00288587D01*
X00511693Y00289500D01*
X00509307D01*
X00507101Y00288587D01*
X00506603Y00288088D01*
X00474901D01*
X00425321Y00337668D01*
X00426000Y00339306D01*
Y00341693D01*
X00425087Y00343899D01*
X00423399Y00345587D01*
X00421194Y00346500D01*
D02*
G37*
G36*
X00717520Y00264475D02*
X00691570D01*
Y00238525D01*
X00717520D01*
Y00264475D01*
D02*
G37*
G36*
X00706253Y00230475D02*
X00702837D01*
X00699537Y00229591D01*
X00696578Y00227883D01*
X00694162Y00225467D01*
X00692454Y00222508D01*
X00691570Y00219208D01*
Y00215792D01*
X00692454Y00212492D01*
X00694162Y00209533D01*
X00696578Y00207117D01*
X00699537Y00205409D01*
X00702837Y00204525D01*
X00706253D01*
X00709553Y00205409D01*
X00712512Y00207117D01*
X00714928Y00209533D01*
X00716636Y00212492D01*
X00717520Y00215792D01*
Y00219208D01*
X00716636Y00222508D01*
X00714928Y00225467D01*
X00712512Y00227883D01*
X00709553Y00229591D01*
X00706253Y00230475D01*
D02*
G37*
G36*
X00220194Y00215500D02*
X00217806D01*
X00215601Y00214587D01*
X00213913Y00212899D01*
X00213000Y00210693D01*
Y00209989D01*
X00201099Y00198088D01*
X00124897D01*
X00124399Y00198587D01*
X00122193Y00199500D01*
X00119806D01*
X00117601Y00198587D01*
X00115913Y00196899D01*
X00115000Y00194694D01*
Y00192306D01*
X00115913Y00190101D01*
X00117601Y00188413D01*
X00119806Y00187500D01*
X00122193D01*
X00124399Y00188413D01*
X00124897Y00188912D01*
X00203000D01*
X00204756Y00189261D01*
X00206244Y00190256D01*
X00219489Y00203500D01*
X00220194D01*
X00222399Y00204413D01*
X00224086Y00206101D01*
X00225000Y00208307D01*
Y00210693D01*
X00224086Y00212899D01*
X00222399Y00214587D01*
X00220194Y00215500D01*
D02*
G37*
G36*
X00748163Y00213475D02*
X00744747D01*
X00741447Y00212591D01*
X00738488Y00210883D01*
X00736072Y00208467D01*
X00734364Y00205508D01*
X00733480Y00202208D01*
Y00198792D01*
X00734364Y00195492D01*
X00736072Y00192533D01*
X00738488Y00190117D01*
X00741447Y00188409D01*
X00744747Y00187525D01*
X00748163D01*
X00751463Y00188409D01*
X00754422Y00190117D01*
X00756838Y00192533D01*
X00758546Y00195492D01*
X00759430Y00198792D01*
Y00202208D01*
X00758546Y00205508D01*
X00756838Y00208467D01*
X00754422Y00210883D01*
X00751463Y00212591D01*
X00748163Y00213475D01*
D02*
G37*
G36*
X00326693Y00277000D02*
X00324306D01*
X00322101Y00276087D01*
X00320414Y00274399D01*
X00319500Y00272194D01*
Y00269806D01*
X00320414Y00267601D01*
X00322101Y00265913D01*
X00324306Y00265000D01*
X00325011D01*
X00350912Y00239100D01*
Y00182897D01*
X00350413Y00182399D01*
X00349500Y00180194D01*
Y00177806D01*
X00350413Y00175601D01*
X00352101Y00173913D01*
X00354306Y00173000D01*
X00356693D01*
X00358899Y00173913D01*
X00360587Y00175601D01*
X00361500Y00177806D01*
Y00180194D01*
X00360587Y00182399D01*
X00360088Y00182897D01*
Y00241000D01*
X00359739Y00242756D01*
X00358744Y00244244D01*
X00331500Y00271489D01*
Y00272194D01*
X00330587Y00274399D01*
X00328899Y00276087D01*
X00326693Y00277000D01*
D02*
G37*
G36*
X00269000Y00157500D02*
X00217000D01*
Y00123500D01*
X00269000D01*
Y00157500D01*
D02*
G37*
G36*
X00735000Y00126500D02*
X00702000D01*
Y00093500D01*
X00735000D01*
Y00126500D01*
D02*
G37*
G36*
X00366693Y00123000D02*
X00364306D01*
X00362101Y00122086D01*
X00360413Y00120399D01*
X00359500Y00118194D01*
Y00115807D01*
X00360413Y00113601D01*
X00362101Y00111913D01*
X00364306Y00111000D01*
X00366693D01*
X00368899Y00111913D01*
X00369907Y00112922D01*
X00384073D01*
X00384779Y00111866D01*
X00384500Y00111193D01*
Y00108806D01*
X00385414Y00106601D01*
X00387101Y00104913D01*
X00389307Y00104000D01*
X00391693D01*
X00393899Y00104913D01*
X00394907Y00105922D01*
X00447311D01*
X00462116Y00091116D01*
X00463439Y00090232D01*
X00465000Y00089922D01*
X00465000Y00089922D01*
X00518500D01*
X00518500Y00089922D01*
X00520061Y00090232D01*
X00521384Y00091116D01*
X00525768Y00095500D01*
X00527193D01*
X00529399Y00096413D01*
X00531087Y00098101D01*
X00532000Y00100307D01*
Y00102694D01*
X00531087Y00104899D01*
X00529399Y00106587D01*
X00527193Y00107500D01*
X00524807D01*
X00522601Y00106587D01*
X00520913Y00104899D01*
X00520000Y00102694D01*
Y00101268D01*
X00516811Y00098078D01*
X00486452D01*
X00485603Y00099348D01*
X00486000Y00100307D01*
Y00102694D01*
X00485087Y00104899D01*
X00483399Y00106587D01*
X00481193Y00107500D01*
X00478806D01*
X00476601Y00106587D01*
X00475593Y00105578D01*
X00468189D01*
X00453884Y00119884D01*
X00452561Y00120768D01*
X00451000Y00121078D01*
X00451000Y00121078D01*
X00369907D01*
X00368899Y00122086D01*
X00366693Y00123000D01*
D02*
G37*
G36*
X00657250Y00051250D02*
X00634750D01*
Y00028750D01*
X00657250D01*
Y00051250D01*
D02*
G37*
G36*
X00622081D02*
X00619119D01*
X00616258Y00050483D01*
X00613692Y00049002D01*
X00611598Y00046908D01*
X00610117Y00044342D01*
X00609350Y00041481D01*
Y00038519D01*
X00610117Y00035658D01*
X00611598Y00033092D01*
X00613692Y00030998D01*
X00616258Y00029517D01*
X00619119Y00028750D01*
X00622081D01*
X00624942Y00029517D01*
X00627508Y00030998D01*
X00629602Y00033092D01*
X00631083Y00035658D01*
X00631850Y00038519D01*
Y00041481D01*
X00631083Y00044342D01*
X00629602Y00046908D01*
X00627508Y00049002D01*
X00624942Y00050483D01*
X00622081Y00051250D01*
D02*
G37*
G36*
X00571281D02*
X00568319D01*
X00565458Y00050483D01*
X00562892Y00049002D01*
X00560798Y00046908D01*
X00559317Y00044342D01*
X00558550Y00041481D01*
Y00038519D01*
X00559317Y00035658D01*
X00560798Y00033092D01*
X00562892Y00030998D01*
X00565458Y00029517D01*
X00568319Y00028750D01*
X00571281D01*
X00574142Y00029517D01*
X00576708Y00030998D01*
X00578802Y00033092D01*
X00580283Y00035658D01*
X00581050Y00038519D01*
Y00041481D01*
X00580283Y00044342D01*
X00578802Y00046908D01*
X00576708Y00049002D01*
X00574142Y00050483D01*
X00571281Y00051250D01*
D02*
G37*
G36*
X00084500Y00305569D02*
X00070000D01*
X00067912Y00305294D01*
X00065965Y00304488D01*
X00064294Y00303206D01*
X00034794Y00273706D01*
X00033512Y00272034D01*
X00032706Y00270088D01*
X00032431Y00268000D01*
Y00233500D01*
X00032706Y00231412D01*
X00033512Y00229466D01*
X00034794Y00227794D01*
X00048931Y00213658D01*
Y00041000D01*
X00049206Y00038912D01*
X00050012Y00036965D01*
X00051294Y00035294D01*
X00070794Y00015794D01*
X00072466Y00014512D01*
X00074412Y00013706D01*
X00076500Y00013431D01*
X00534500D01*
X00536588Y00013706D01*
X00538535Y00014512D01*
X00540206Y00015794D01*
X00550706Y00026294D01*
X00551988Y00027966D01*
X00552794Y00029912D01*
X00553069Y00032000D01*
Y00048658D01*
X00579342Y00074931D01*
X00628500D01*
X00629024Y00075000D01*
X00629553D01*
X00630064Y00075137D01*
X00630588Y00075206D01*
X00631077Y00075408D01*
X00631588Y00075545D01*
X00632046Y00075810D01*
X00632534Y00076012D01*
X00632954Y00076334D01*
X00633412Y00076598D01*
X00633786Y00076972D01*
X00634206Y00077294D01*
X00634528Y00077714D01*
X00634902Y00078088D01*
X00635166Y00078546D01*
X00635488Y00078966D01*
X00635690Y00079454D01*
X00635955Y00079912D01*
X00636092Y00080423D01*
X00636294Y00080912D01*
X00636363Y00081436D01*
X00636500Y00081947D01*
Y00082476D01*
X00636569Y00083000D01*
X00636500Y00083524D01*
Y00084053D01*
X00636363Y00084564D01*
X00636294Y00085088D01*
X00636092Y00085577D01*
X00635955Y00086088D01*
X00635690Y00086546D01*
X00635488Y00087035D01*
X00635166Y00087454D01*
X00634902Y00087912D01*
X00634528Y00088286D01*
X00634206Y00088706D01*
X00633786Y00089028D01*
X00633412Y00089402D01*
X00632954Y00089666D01*
X00632534Y00089988D01*
X00632046Y00090190D01*
X00631588Y00090455D01*
X00631077Y00090592D01*
X00630588Y00090794D01*
X00630064Y00090863D01*
X00629553Y00091000D01*
X00629024D01*
X00628500Y00091069D01*
X00576000D01*
X00573912Y00090794D01*
X00571965Y00089988D01*
X00570294Y00088706D01*
X00539294Y00057706D01*
X00538012Y00056034D01*
X00537206Y00054088D01*
X00536931Y00052000D01*
Y00035342D01*
X00531158Y00029569D01*
X00527250D01*
Y00051250D01*
X00504750D01*
Y00029569D01*
X00497486D01*
X00497158Y00030796D01*
X00497508Y00030998D01*
X00499602Y00033092D01*
X00501083Y00035658D01*
X00501850Y00038519D01*
Y00041481D01*
X00501083Y00044342D01*
X00499602Y00046908D01*
X00497508Y00049002D01*
X00494942Y00050483D01*
X00492081Y00051250D01*
X00489119D01*
X00486258Y00050483D01*
X00483692Y00049002D01*
X00481598Y00046908D01*
X00480117Y00044342D01*
X00479350Y00041481D01*
Y00038519D01*
X00480117Y00035658D01*
X00481598Y00033092D01*
X00483692Y00030998D01*
X00484042Y00030796D01*
X00483713Y00029569D01*
X00446686D01*
X00446358Y00030796D01*
X00446708Y00030998D01*
X00448802Y00033092D01*
X00450283Y00035658D01*
X00451050Y00038519D01*
Y00041481D01*
X00450283Y00044342D01*
X00448802Y00046908D01*
X00446708Y00049002D01*
X00444142Y00050483D01*
X00441281Y00051250D01*
X00438319D01*
X00435458Y00050483D01*
X00432892Y00049002D01*
X00430798Y00046908D01*
X00429317Y00044342D01*
X00428550Y00041481D01*
Y00038519D01*
X00429317Y00035658D01*
X00430798Y00033092D01*
X00432892Y00030998D01*
X00433242Y00030796D01*
X00432914Y00029569D01*
X00427069D01*
Y00066658D01*
X00433706Y00073294D01*
X00434028Y00073714D01*
X00434402Y00074088D01*
X00434666Y00074546D01*
X00434988Y00074966D01*
X00435190Y00075454D01*
X00435455Y00075912D01*
X00435592Y00076423D01*
X00435794Y00076912D01*
X00435863Y00077436D01*
X00436000Y00077947D01*
Y00078476D01*
X00436069Y00079000D01*
X00436000Y00079524D01*
Y00080053D01*
X00435863Y00080564D01*
X00435794Y00081088D01*
X00435592Y00081577D01*
X00435455Y00082088D01*
X00435190Y00082546D01*
X00434988Y00083034D01*
X00434666Y00083454D01*
X00434402Y00083912D01*
X00434028Y00084286D01*
X00433706Y00084706D01*
X00433286Y00085028D01*
X00432912Y00085402D01*
X00432454Y00085666D01*
X00432034Y00085988D01*
X00431546Y00086190D01*
X00431088Y00086455D01*
X00430577Y00086592D01*
X00430088Y00086794D01*
X00429564Y00086863D01*
X00429053Y00087000D01*
X00428524D01*
X00428000Y00087069D01*
X00427476Y00087000D01*
X00426947D01*
X00426436Y00086863D01*
X00425912Y00086794D01*
X00425423Y00086592D01*
X00424912Y00086455D01*
X00424454Y00086190D01*
X00423965Y00085988D01*
X00423546Y00085666D01*
X00423088Y00085402D01*
X00422714Y00085028D01*
X00422294Y00084706D01*
X00413294Y00075706D01*
X00412012Y00074035D01*
X00411206Y00072088D01*
X00410931Y00070000D01*
Y00029569D01*
X00402250D01*
Y00051250D01*
X00379750D01*
Y00029569D01*
X00372486D01*
X00372158Y00030796D01*
X00372508Y00030998D01*
X00374602Y00033092D01*
X00376083Y00035658D01*
X00376850Y00038519D01*
Y00041481D01*
X00376083Y00044342D01*
X00374602Y00046908D01*
X00372508Y00049002D01*
X00369942Y00050483D01*
X00367081Y00051250D01*
X00364119D01*
X00361258Y00050483D01*
X00358692Y00049002D01*
X00356598Y00046908D01*
X00355117Y00044342D01*
X00354350Y00041481D01*
Y00038519D01*
X00355117Y00035658D01*
X00356598Y00033092D01*
X00358692Y00030998D01*
X00359042Y00030796D01*
X00358713Y00029569D01*
X00321686D01*
X00321358Y00030796D01*
X00321708Y00030998D01*
X00323802Y00033092D01*
X00325283Y00035658D01*
X00326050Y00038519D01*
Y00041481D01*
X00325283Y00044342D01*
X00323802Y00046908D01*
X00321708Y00049002D01*
X00319142Y00050483D01*
X00316281Y00051250D01*
X00313319D01*
X00310458Y00050483D01*
X00307892Y00049002D01*
X00305798Y00046908D01*
X00304317Y00044342D01*
X00303550Y00041481D01*
Y00038519D01*
X00304317Y00035658D01*
X00305798Y00033092D01*
X00307892Y00030998D01*
X00308242Y00030796D01*
X00307913Y00029569D01*
X00302069D01*
Y00066658D01*
X00308706Y00073294D01*
X00309028Y00073714D01*
X00309402Y00074088D01*
X00309666Y00074546D01*
X00309988Y00074966D01*
X00310190Y00075454D01*
X00310455Y00075912D01*
X00310592Y00076423D01*
X00310794Y00076912D01*
X00310863Y00077436D01*
X00311000Y00077947D01*
Y00078476D01*
X00311069Y00079000D01*
X00311000Y00079524D01*
Y00080053D01*
X00310863Y00080564D01*
X00310794Y00081088D01*
X00310592Y00081577D01*
X00310455Y00082088D01*
X00310190Y00082546D01*
X00309988Y00083034D01*
X00309666Y00083454D01*
X00309402Y00083912D01*
X00309028Y00084286D01*
X00308706Y00084706D01*
X00308286Y00085028D01*
X00307912Y00085402D01*
X00307454Y00085666D01*
X00307034Y00085988D01*
X00306546Y00086190D01*
X00306088Y00086455D01*
X00305577Y00086592D01*
X00305088Y00086794D01*
X00304564Y00086863D01*
X00304053Y00087000D01*
X00303524D01*
X00303000Y00087069D01*
X00302476Y00087000D01*
X00301947D01*
X00301436Y00086863D01*
X00300912Y00086794D01*
X00300423Y00086592D01*
X00299912Y00086455D01*
X00299454Y00086190D01*
X00298965Y00085988D01*
X00298546Y00085666D01*
X00298088Y00085402D01*
X00297714Y00085028D01*
X00297294Y00084706D01*
X00288294Y00075706D01*
X00287012Y00074035D01*
X00286206Y00072088D01*
X00285931Y00070000D01*
Y00029569D01*
X00259649D01*
X00259482Y00030839D01*
X00259763Y00030914D01*
X00261987Y00032198D01*
X00263802Y00034013D01*
X00265086Y00036237D01*
X00265750Y00038716D01*
Y00041284D01*
X00265086Y00043763D01*
X00263802Y00045987D01*
X00261987Y00047802D01*
X00259763Y00049086D01*
X00257284Y00049750D01*
X00254716D01*
X00252237Y00049086D01*
X00250013Y00047802D01*
X00248198Y00045987D01*
X00246914Y00043763D01*
X00246250Y00041284D01*
Y00038716D01*
X00246914Y00036237D01*
X00248198Y00034013D01*
X00250013Y00032198D01*
X00252237Y00030914D01*
X00252518Y00030839D01*
X00252351Y00029569D01*
X00226738D01*
X00225750Y00030250D01*
X00225750Y00030839D01*
Y00049750D01*
X00206250D01*
Y00030839D01*
X00206250Y00030250D01*
X00205262Y00029569D01*
X00149649D01*
X00149482Y00030839D01*
X00149763Y00030914D01*
X00151987Y00032198D01*
X00153802Y00034013D01*
X00155085Y00036237D01*
X00155750Y00038716D01*
Y00041284D01*
X00155085Y00043763D01*
X00153802Y00045987D01*
X00151987Y00047802D01*
X00149763Y00049086D01*
X00147284Y00049750D01*
X00144716D01*
X00142237Y00049086D01*
X00140013Y00047802D01*
X00138198Y00045987D01*
X00136915Y00043763D01*
X00136250Y00041284D01*
Y00038716D01*
X00136915Y00036237D01*
X00138198Y00034013D01*
X00140013Y00032198D01*
X00142237Y00030914D01*
X00142518Y00030839D01*
X00142351Y00029569D01*
X00116738D01*
X00115750Y00030250D01*
X00115750Y00030839D01*
Y00049750D01*
X00096250D01*
Y00030839D01*
X00096250Y00030250D01*
X00095262Y00029569D01*
X00079842D01*
X00065069Y00044342D01*
Y00217000D01*
X00064794Y00219088D01*
X00063988Y00221035D01*
X00062706Y00222706D01*
X00048569Y00236842D01*
Y00264658D01*
X00073342Y00289431D01*
X00084500D01*
X00085024Y00289500D01*
X00085553D01*
X00086064Y00289637D01*
X00086588Y00289706D01*
X00087077Y00289908D01*
X00087588Y00290045D01*
X00088046Y00290310D01*
X00088534Y00290512D01*
X00088954Y00290834D01*
X00089412Y00291098D01*
X00089786Y00291472D01*
X00090206Y00291794D01*
X00090528Y00292214D01*
X00090902Y00292588D01*
X00091166Y00293046D01*
X00091488Y00293465D01*
X00091690Y00293954D01*
X00091955Y00294412D01*
X00092092Y00294923D01*
X00092294Y00295412D01*
X00092363Y00295936D01*
X00092500Y00296447D01*
Y00296976D01*
X00092569Y00297500D01*
X00092500Y00298024D01*
Y00298553D01*
X00092363Y00299064D01*
X00092294Y00299588D01*
X00092092Y00300077D01*
X00091955Y00300588D01*
X00091690Y00301046D01*
X00091488Y00301535D01*
X00091166Y00301954D01*
X00090902Y00302412D01*
X00090528Y00302786D01*
X00090206Y00303206D01*
X00089786Y00303528D01*
X00089412Y00303902D01*
X00088954Y00304166D01*
X00088534Y00304488D01*
X00088046Y00304690D01*
X00087588Y00304955D01*
X00087077Y00305092D01*
X00086588Y00305294D01*
X00086064Y00305363D01*
X00085553Y00305500D01*
X00085024D01*
X00084500Y00305569D01*
D02*
G37*
%LPD*%
G36*
X00486500Y00550500D02*
Y00533000D01*
X00484000Y00530500D01*
X00426500Y00530500D01*
X00391500Y00495500D01*
Y00478500D01*
X00389000Y00476000D01*
X00366000D01*
X00363500Y00478500D01*
Y00502000D01*
X00414500Y00553000D01*
X00484000D01*
X00486500Y00550500D01*
D02*
G37*
G36*
X00614000Y00448500D02*
X00623500D01*
X00626500Y00451500D01*
X00649500D01*
Y00451500D01*
X00679000Y00451500D01*
X00715000D01*
X00717500Y00449000D01*
Y00415500D01*
X00715000Y00413000D01*
X00679500D01*
X00676500Y00410000D01*
Y00328000D01*
X00679000Y00325500D01*
X00715000D01*
X00717500Y00323000D01*
Y00290000D01*
X00715000Y00287500D01*
X00679000D01*
X00676500Y00285000D01*
Y00202000D01*
X00679000Y00199500D01*
X00715000D01*
X00717500Y00197000D01*
Y00164000D01*
X00715000Y00161500D01*
X00654500Y00161500D01*
X00636500Y00179500D01*
Y00405000D01*
X00630000Y00411500D01*
X00587000D01*
X00578500Y00420000D01*
X00578500Y00451000D01*
X00586000Y00458500D01*
X00604000Y00458500D01*
X00614000Y00448500D01*
D02*
G37*
G36*
X00515616Y00403116D02*
X00516765Y00402348D01*
X00516743Y00401644D01*
X00516554Y00401078D01*
X00466907D01*
X00465899Y00402087D01*
X00463694Y00403000D01*
X00461306D01*
X00459500Y00404807D01*
Y00408232D01*
X00462268Y00411000D01*
X00463694D01*
X00465899Y00411913D01*
X00466907Y00412922D01*
X00505811D01*
X00515616Y00403116D01*
D02*
G37*
G36*
X00753953Y00493106D02*
X00754450Y00492769D01*
X00755019Y00492471D01*
X00755660Y00492214D01*
X00756373Y00491996D01*
X00757159Y00491817D01*
X00758016Y00491678D01*
X00758946Y00491579D01*
X00761021Y00491500D01*
Y00481500D01*
X00759948Y00481480D01*
X00758016Y00481322D01*
X00757159Y00481183D01*
X00756373Y00481004D01*
X00755660Y00480786D01*
X00755019Y00480529D01*
X00754450Y00480231D01*
X00753953Y00479894D01*
X00753529Y00479518D01*
Y00493483D01*
X00753953Y00493106D01*
D02*
G37*
G36*
X00754003Y00367106D02*
X00754500Y00366769D01*
X00755069Y00366471D01*
X00755710Y00366214D01*
X00756423Y00365996D01*
X00757209Y00365817D01*
X00758066Y00365678D01*
X00758996Y00365579D01*
X00761071Y00365500D01*
Y00355500D01*
X00759997Y00355480D01*
X00758066Y00355322D01*
X00757209Y00355183D01*
X00756423Y00355004D01*
X00755710Y00354786D01*
X00755069Y00354529D01*
X00754500Y00354231D01*
X00754003Y00353894D01*
X00753579Y00353517D01*
Y00367482D01*
X00754003Y00367106D01*
D02*
G37*
G36*
Y00241106D02*
X00754500Y00240769D01*
X00755069Y00240471D01*
X00755710Y00240214D01*
X00756423Y00239996D01*
X00757209Y00239817D01*
X00758066Y00239678D01*
X00758996Y00239579D01*
X00761071Y00239500D01*
Y00229500D01*
X00759997Y00229480D01*
X00758066Y00229322D01*
X00757209Y00229183D01*
X00756423Y00229004D01*
X00755710Y00228786D01*
X00755069Y00228528D01*
X00754500Y00228231D01*
X00754003Y00227894D01*
X00753579Y00227518D01*
Y00241483D01*
X00754003Y00241106D01*
D02*
G37*
G36*
X00439148Y00235180D02*
X00439749Y00234670D01*
X00440358Y00234220D01*
X00440975Y00233830D01*
X00441601Y00233500D01*
X00442235Y00233230D01*
X00442877Y00233020D01*
X00443528Y00232870D01*
X00444187Y00232780D01*
X00444855Y00232750D01*
Y00228250D01*
X00444187Y00228220D01*
X00443528Y00228130D01*
X00442877Y00227980D01*
X00442235Y00227770D01*
X00441601Y00227500D01*
X00440975Y00227170D01*
X00440358Y00226780D01*
X00439749Y00226330D01*
X00439148Y00225820D01*
X00438556Y00225250D01*
Y00235750D01*
X00439148Y00235180D01*
D02*
G37*
G36*
X00370425Y00298700D02*
X00369407Y00298690D01*
X00367568Y00298548D01*
X00366746Y00298415D01*
X00365989Y00298242D01*
X00365297Y00298027D01*
X00364671Y00297772D01*
X00364110Y00297476D01*
X00363614Y00297139D01*
X00363183Y00296761D01*
X00361061Y00298883D01*
X00361439Y00299313D01*
X00361776Y00299810D01*
X00362072Y00300371D01*
X00362327Y00300997D01*
X00362542Y00301689D01*
X00362715Y00302446D01*
X00362848Y00303268D01*
X00362940Y00304155D01*
X00363000Y00306125D01*
X00370425Y00298700D01*
D02*
G37*
D10*
X00420000Y00336500D02*
Y00340500D01*
Y00336500D02*
X00473000Y00283500D01*
X00510500D01*
X00364500Y00343000D02*
X00389500D01*
X00420500Y00312000D01*
X00203000Y00193500D02*
X00219000Y00209500D01*
X00121000Y00193500D02*
X00203000D01*
X00325500Y00271000D02*
X00355500Y00241000D01*
Y00179000D02*
Y00241000D01*
X00349800Y00285500D02*
X00370500Y00306200D01*
X00217000Y00285500D02*
X00349800D01*
D13*
X00365500Y00117000D02*
X00451000D01*
X00466500Y00101500D02*
X00480000D01*
X00390500Y00110000D02*
X00449000D01*
X00451000Y00117000D02*
X00466500Y00101500D01*
X00465000Y00094000D02*
X00518500D01*
X00449000Y00110000D02*
X00465000Y00094000D01*
X00293500Y00387000D02*
X00361500D01*
X00258500Y00375000D02*
X00272000D01*
X00290500Y00393500D02*
X00364500D01*
X00258500Y00365500D02*
X00272000D01*
X00293500Y00387000D01*
X00272000Y00375000D02*
X00290500Y00393500D01*
X00462500Y00417000D02*
X00507500D01*
X00518500Y00406000D02*
X00567000D01*
X00507500Y00417000D02*
X00518500Y00406000D01*
X00567000D02*
X00570500Y00402500D01*
X00364500Y00393500D02*
X00383000Y00375000D01*
X00361500Y00387000D02*
X00383000Y00365500D01*
X00565500Y00397000D02*
X00568500Y00394000D01*
X00462500Y00397000D02*
X00565500D01*
X00431000Y00365500D02*
X00462500Y00397000D01*
X00383000Y00365500D02*
X00431000D01*
X00420500Y00375000D02*
X00462500Y00417000D01*
X00383000Y00375000D02*
X00420500D01*
X00518500Y00094000D02*
X00526000Y00101500D01*
D53*
X00576000Y00083000D02*
X00628500D01*
X00545000Y00052000D02*
X00576000Y00083000D01*
X00545000Y00032000D02*
Y00052000D01*
X00534500Y00021500D02*
X00545000Y00032000D01*
X00419000Y00021500D02*
X00534500D01*
X00057000Y00041000D02*
Y00217000D01*
X00294000Y00021500D02*
X00419000D01*
Y00070000D02*
X00428000Y00079000D01*
X00419000Y00021500D02*
Y00070000D01*
X00076500Y00021500D02*
X00294000D01*
Y00070000D01*
X00303000Y00079000D01*
X00746455Y00234500D02*
X00773500D01*
X00746455Y00360500D02*
X00773500D01*
X00746405Y00486500D02*
X00764500D01*
X00773500Y00360500D02*
Y00477500D01*
X00764500Y00486500D02*
X00773500Y00477500D01*
X00040500Y00233500D02*
X00057000Y00217000D01*
X00070000Y00297500D02*
X00084500D01*
X00040500Y00268000D02*
X00070000Y00297500D01*
X00040500Y00233500D02*
Y00268000D01*
X00566500Y00273500D02*
Y00309000D01*
Y00273500D02*
X00590000Y00250000D01*
Y00188000D02*
Y00250000D01*
X00057000Y00041000D02*
X00076500Y00021500D01*
X00637000Y00141000D02*
X00758500D01*
X00590000Y00188000D02*
X00637000Y00141000D01*
X00773500Y00156000D02*
Y00234500D01*
X00758500Y00141000D02*
X00773500Y00156000D01*
Y00234500D02*
Y00360500D01*
D96*
X00027500Y00282550D02*
D03*
Y00217450D02*
D03*
D103*
X00200500Y00365000D02*
X00230000D01*
X00244500Y00350500D01*
X00288000Y00308500D02*
X00306500Y00327000D01*
X00211000Y00308500D02*
X00288000D01*
X00175000Y00313500D02*
X00206000D01*
X00211000Y00308500D01*
X00175000Y00296000D02*
X00193000Y00278000D01*
X00175000Y00296000D02*
Y00313500D01*
X00379000Y00330500D02*
X00409500Y00300000D01*
X00327500Y00356000D02*
X00353000Y00330500D01*
X00379000D01*
X00106500Y00230000D02*
X00156000D01*
X00162000Y00236000D01*
X00193000Y00244000D02*
X00208000Y00229000D01*
X00162000Y00236000D02*
X00170000Y00244000D01*
X00193000D01*
X00208000Y00229000D02*
X00236500D01*
X00193000Y00244000D02*
X00193000Y00244000D01*
Y00278000D01*
X00373500Y00356500D02*
X00442500D01*
X00461500Y00375500D02*
X00533000D01*
X00442500Y00356500D02*
X00461500Y00375500D01*
X00533000D02*
X00576500D01*
X00591000Y00390000D02*
X00610000D01*
X00576500Y00375500D02*
X00591000Y00390000D01*
X00360500Y00369500D02*
X00373500Y00356500D01*
X00312500Y00369500D02*
X00360500D01*
X00293500Y00350500D02*
X00312500Y00369500D01*
X00244500Y00350500D02*
X00293500D01*
X00614500Y00370000D02*
X00640000D01*
X00598500Y00354000D02*
X00614500Y00370000D01*
X00566000Y00354000D02*
X00598500D01*
X00409500Y00269500D02*
Y00300000D01*
X00392000Y00252000D02*
X00409500Y00269500D01*
X00236500Y00229000D02*
X00304000D01*
X00236500Y00199000D02*
Y00229000D01*
X00227000Y00189500D02*
X00236500Y00199000D01*
X00304000Y00229000D02*
X00313000Y00220000D01*
X00227000Y00181500D02*
Y00189500D01*
X00313000Y00220000D02*
X00338000D01*
D104*
X00551000Y00485000D02*
X00560500D01*
X00506000Y00440000D02*
X00551000Y00485000D01*
X00476000Y00440000D02*
X00506000D01*
D105*
X00489500Y00230500D02*
X00532500Y00273500D01*
X00566500D01*
X00433200Y00230500D02*
X00489500D01*
X00448500Y00426500D02*
X00458000Y00436000D01*
Y00447000D02*
X00476500Y00465500D01*
X00458000Y00436000D02*
Y00447000D01*
X00404000Y00426500D02*
X00448500D01*
X00510500Y00353500D02*
X00529500Y00334500D01*
X00503000Y00353500D02*
X00510500D01*
D112*
X00154500Y00423500D02*
D03*
D113*
X00129100Y00393000D02*
D03*
D114*
X00154500D02*
D03*
X00179900D02*
D03*
D115*
X00746455Y00326500D02*
D03*
Y00360500D02*
D03*
X00704545Y00309500D02*
D03*
Y00343500D02*
D03*
X00704495Y00469500D02*
D03*
Y00435500D02*
D03*
X00746405Y00486500D02*
D03*
Y00452500D02*
D03*
X00746455Y00200500D02*
D03*
Y00234500D02*
D03*
X00704545Y00183500D02*
D03*
Y00217500D02*
D03*
D116*
Y00377500D02*
D03*
X00704495Y00503500D02*
D03*
X00704545Y00251500D02*
D03*
D117*
X00036000Y00350000D02*
D03*
Y00375000D02*
D03*
D118*
X00407800Y00230500D02*
D03*
X00420500Y00217500D02*
D03*
X00433200Y00230500D02*
D03*
X00370500Y00280800D02*
D03*
X00383500Y00293500D02*
D03*
X00370500Y00306200D02*
D03*
D119*
X00516000Y00040000D02*
D03*
X00646000D02*
D03*
X00391000D02*
D03*
D120*
X00490600D02*
D03*
X00465200D02*
D03*
X00439800D02*
D03*
X00620600D02*
D03*
X00595200D02*
D03*
X00569800D02*
D03*
X00365600D02*
D03*
X00340200D02*
D03*
X00314800D02*
D03*
D121*
X00146000D02*
D03*
X00126000D02*
D03*
X00256000D02*
D03*
X00236000D02*
D03*
D122*
X00106000D02*
D03*
X00216000D02*
D03*
D123*
X00594500Y00494900D02*
D03*
D124*
Y00444100D02*
D03*
D125*
X00769191Y00110000D02*
D03*
D126*
X00718391D02*
D03*
D127*
X00270000Y00341000D02*
D03*
X00283000Y00033000D02*
D03*
X00408000D02*
D03*
X00533000Y00036000D02*
D03*
X00302000Y00302500D02*
D03*
X00493000Y00073000D02*
D03*
X00455000D02*
D03*
X00368000D02*
D03*
X00330500D02*
D03*
X00110500Y00397000D02*
D03*
Y00379500D02*
D03*
X00114500Y00500500D02*
D03*
Y00483500D02*
D03*
Y00466500D02*
D03*
Y00449500D02*
D03*
Y00432500D02*
D03*
X00131500Y00500500D02*
D03*
Y00483500D02*
D03*
Y00466500D02*
D03*
Y00449500D02*
D03*
Y00432500D02*
D03*
X00148500Y00500500D02*
D03*
Y00483500D02*
D03*
Y00466500D02*
D03*
Y00449500D02*
D03*
X00165500Y00500500D02*
D03*
Y00483500D02*
D03*
Y00466500D02*
D03*
Y00449500D02*
D03*
X00182500Y00500500D02*
D03*
Y00483500D02*
D03*
Y00466500D02*
D03*
Y00449500D02*
D03*
Y00432500D02*
D03*
X00199500Y00500500D02*
D03*
Y00483500D02*
D03*
Y00466500D02*
D03*
Y00449500D02*
D03*
Y00432500D02*
D03*
Y00415500D02*
D03*
X00182500D02*
D03*
X00131500D02*
D03*
X00114500D02*
D03*
X00306500Y00327000D02*
D03*
X00079500Y00506500D02*
D03*
Y00498000D02*
D03*
X00061000D02*
D03*
X00160000Y00248000D02*
D03*
X00170000Y00281500D02*
D03*
X00126500Y00254500D02*
D03*
X00097000Y00243500D02*
D03*
X00072500Y00244000D02*
D03*
Y00262500D02*
D03*
X00162000Y00236000D02*
D03*
X00057500Y00193500D02*
D03*
X00494000Y00477000D02*
D03*
X00379500Y00433500D02*
D03*
X00581000Y00314000D02*
D03*
Y00365000D02*
D03*
X00509500Y00237500D02*
D03*
X00558500Y00262000D02*
D03*
X00521500Y00385500D02*
D03*
X00751500Y00517000D02*
D03*
X00623000Y00495000D02*
D03*
Y00520000D02*
D03*
X00462000Y00386500D02*
D03*
X00523000Y00431000D02*
D03*
X00521000Y00413000D02*
D03*
X00431000Y00313000D02*
D03*
X00420000Y00340500D02*
D03*
X00560500Y00485000D02*
D03*
X00543500Y00461000D02*
D03*
X00346500Y00441500D02*
D03*
Y00450000D02*
D03*
Y00458500D02*
D03*
Y00467000D02*
D03*
X00423500Y00402500D02*
D03*
X00432500D02*
D03*
X00423500Y00410500D02*
D03*
X00432500D02*
D03*
Y00418500D02*
D03*
X00423500D02*
D03*
X00321000Y00484000D02*
D03*
Y00475500D02*
D03*
X00329500D02*
D03*
X00610000Y00390000D02*
D03*
X00404000Y00426500D02*
D03*
X00568500Y00394000D02*
D03*
X00571000Y00411500D02*
D03*
X00490000Y00407000D02*
D03*
X00462500D02*
D03*
X00533000Y00375500D02*
D03*
X00556000Y00385500D02*
D03*
X00570500Y00402500D02*
D03*
X00535000Y00360000D02*
D03*
X00129500Y00315000D02*
D03*
X00148000Y00185500D02*
D03*
X00193500D02*
D03*
X00148000Y00201500D02*
D03*
X00228000Y00209500D02*
D03*
X00203000Y00170500D02*
D03*
X00493500Y00428500D02*
D03*
X00476500Y00465500D02*
D03*
X00481000Y00270500D02*
D03*
X00232000Y00348000D02*
D03*
X00248000Y00385000D02*
D03*
X00277500Y00392000D02*
D03*
X00265500Y00058500D02*
D03*
X00398000Y00058000D02*
D03*
X00521000Y00066000D02*
D03*
X00338000Y00467000D02*
D03*
Y00458500D02*
D03*
Y00450000D02*
D03*
Y00441500D02*
D03*
X00252000Y00430000D02*
D03*
X00260000D02*
D03*
X00268000D02*
D03*
X00276000D02*
D03*
X00284000D02*
D03*
X00292000D02*
D03*
X00300000D02*
D03*
X00308000D02*
D03*
X00316000D02*
D03*
X00216500Y00397500D02*
D03*
X00389000Y00333000D02*
D03*
X00079000Y00397000D02*
D03*
X00684000Y00520000D02*
D03*
Y00495000D02*
D03*
Y00394000D02*
D03*
Y00369000D02*
D03*
Y00268000D02*
D03*
Y00243000D02*
D03*
X00191000Y00142500D02*
D03*
X00144000Y00116000D02*
D03*
X00193500Y00201500D02*
D03*
X00149500Y00165000D02*
D03*
X00361000Y00318000D02*
D03*
X00340500Y00269500D02*
D03*
X00256000Y00278000D02*
D03*
Y00294500D02*
D03*
X00241000Y00324000D02*
D03*
X00387500Y00220000D02*
D03*
X00447500Y00332000D02*
D03*
X00608000Y00124500D02*
D03*
X00620000Y00258500D02*
D03*
Y00296500D02*
D03*
Y00379500D02*
D03*
X00480500Y00186000D02*
D03*
X00291500Y00161000D02*
D03*
X00296500Y00103000D02*
D03*
X00224000Y00114500D02*
D03*
X00262000D02*
D03*
X00209500Y00559000D02*
D03*
X00274500D02*
D03*
X00339500D02*
D03*
X00415000D02*
D03*
X00480000D02*
D03*
X00546500D02*
D03*
X00610000D02*
D03*
X00675000D02*
D03*
X00740000D02*
D03*
X00331000Y00010500D02*
D03*
X00271000D02*
D03*
X00206000D02*
D03*
X00141000D02*
D03*
X00355500Y00179000D02*
D03*
X00325500Y00271000D02*
D03*
X00335500Y00299500D02*
D03*
X00208500Y00283500D02*
D03*
X00217000Y00285500D02*
D03*
X00328000Y00195500D02*
D03*
X00323000Y00229000D02*
D03*
X00235000Y00181500D02*
D03*
X00132500Y00128500D02*
D03*
X00227000Y00181500D02*
D03*
X00219000Y00209500D02*
D03*
X00121000Y00193500D02*
D03*
X00106000Y00102500D02*
D03*
X00205500Y00099000D02*
D03*
X00226000Y00093500D02*
D03*
X00256000Y00102500D02*
D03*
X00340000Y00103000D02*
D03*
X00258500Y00172000D02*
D03*
X00392000Y00252000D02*
D03*
X00338000Y00220000D02*
D03*
X00219000Y00322500D02*
D03*
X00106500Y00230000D02*
D03*
X00478500Y00326000D02*
D03*
X00420500Y00312000D02*
D03*
X00462500Y00397000D02*
D03*
Y00417000D02*
D03*
X00437500Y00347500D02*
D03*
X00383000Y00375000D02*
D03*
Y00365500D02*
D03*
X00258500D02*
D03*
Y00375000D02*
D03*
X00364500Y00343000D02*
D03*
X00327500Y00356000D02*
D03*
X00340000Y00380000D02*
D03*
X00284000Y00365500D02*
D03*
X00329500Y00441500D02*
D03*
X00321000D02*
D03*
X00329500Y00450000D02*
D03*
X00321000D02*
D03*
X00329500Y00458500D02*
D03*
Y00467000D02*
D03*
X00321000D02*
D03*
Y00458500D02*
D03*
X00239500Y00441500D02*
D03*
X00248000D02*
D03*
X00239500Y00450000D02*
D03*
X00248000D02*
D03*
X00239500Y00458500D02*
D03*
Y00467000D02*
D03*
Y00475500D02*
D03*
Y00484000D02*
D03*
Y00492500D02*
D03*
Y00501000D02*
D03*
X00248000D02*
D03*
Y00492500D02*
D03*
Y00484000D02*
D03*
Y00475500D02*
D03*
Y00467000D02*
D03*
Y00458500D02*
D03*
Y00509500D02*
D03*
X00422000Y00450500D02*
D03*
X00433000D02*
D03*
X00444000D02*
D03*
Y00442500D02*
D03*
X00433000D02*
D03*
X00422000D02*
D03*
X00444000Y00434500D02*
D03*
X00433000D02*
D03*
X00422000D02*
D03*
X00433000Y00524500D02*
D03*
X00444000D02*
D03*
X00422000Y00516500D02*
D03*
X00433000D02*
D03*
X00444000D02*
D03*
Y00508500D02*
D03*
X00433000D02*
D03*
X00422000D02*
D03*
X00393500Y00402500D02*
D03*
X00452000Y00254500D02*
D03*
X00529500Y00334500D02*
D03*
X00503000Y00353500D02*
D03*
X00495500Y00314500D02*
D03*
X00510500Y00283500D02*
D03*
X00566000Y00354000D02*
D03*
X00526000Y00101500D02*
D03*
X00390500Y00110000D02*
D03*
X00480000Y00101500D02*
D03*
X00365500Y00117000D02*
D03*
X00476000Y00440000D02*
D03*
X00280000Y00124500D02*
D03*
X00206000Y00157000D02*
D03*
X00352500Y00139000D02*
D03*
X00136000Y00093500D02*
D03*
X00747000Y00083000D02*
D03*
X00157500Y00104500D02*
D03*
X00256000Y00247000D02*
D03*
X00208500D02*
D03*
X00256000Y00209500D02*
D03*
X00290000D02*
D03*
X00293500Y00247000D02*
D03*
X00283000Y00294500D02*
D03*
X00293500Y00278000D02*
D03*
X00208500Y00209500D02*
D03*
X00219000Y00294500D02*
D03*
X00411000Y00125000D02*
D03*
X00467000Y00139000D02*
D03*
X00071000Y00311000D02*
D03*
X00271000Y00076000D02*
D03*
X00182000Y00058500D02*
D03*
X00174000Y00107500D02*
D03*
X00076000Y00071000D02*
D03*
X00661000D02*
D03*
X00141000Y00559000D02*
D03*
X00076000D02*
D03*
X00011000Y00071000D02*
D03*
Y00131000D02*
D03*
Y00191000D02*
D03*
Y00251000D02*
D03*
Y00311000D02*
D03*
Y00371000D02*
D03*
Y00491000D02*
D03*
Y00559000D02*
D03*
X00805000D02*
D03*
Y00491000D02*
D03*
Y00431000D02*
D03*
Y00371000D02*
D03*
Y00311000D02*
D03*
Y00251000D02*
D03*
Y00191000D02*
D03*
Y00131000D02*
D03*
Y00071000D02*
D03*
Y00010500D02*
D03*
X00726000D02*
D03*
X00661000D02*
D03*
X00596000D02*
D03*
X00521000D02*
D03*
X00456000D02*
D03*
X00396000D02*
D03*
X00076000D02*
D03*
X00011000D02*
D03*
X00401000Y00092000D02*
D03*
X00526000Y00092000D02*
D03*
X00308500Y00203500D02*
D03*
X00545000Y00307000D02*
D03*
X00525000Y00297500D02*
D03*
X00181000Y00260000D02*
D03*
D128*
X00641500Y00107500D02*
D03*
X00644500Y00083000D02*
D03*
X00628500D02*
D03*
X00428000Y00095000D02*
D03*
X00428000Y00079000D02*
D03*
X00315000Y00105500D02*
D03*
X00303000Y00079000D02*
D03*
X00200500Y00365000D02*
D03*
X00187000D02*
D03*
X00160500Y00352000D02*
D03*
X00148500D02*
D03*
X00070500Y00498000D02*
D03*
X00350000Y00552000D02*
D03*
X00402000D02*
D03*
X00389000Y00539500D02*
D03*
Y00552000D02*
D03*
X00376000D02*
D03*
X00363000D02*
D03*
X00380500Y00481000D02*
D03*
X00368500D02*
D03*
X00386500Y00491500D02*
D03*
X00374500D02*
D03*
X00469500Y00536000D02*
D03*
X00481500D02*
D03*
X00469500Y00548000D02*
D03*
X00481500D02*
D03*
X00550000Y00440500D02*
D03*
X00562000D02*
D03*
X00544000Y00450500D02*
D03*
X00556000D02*
D03*
X00568000D02*
D03*
X00069000Y00230500D02*
D03*
X00161000Y00313500D02*
D03*
X00175000D02*
D03*
X00363000Y00539500D02*
D03*
X00376000D02*
D03*
Y00527000D02*
D03*
X00363000D02*
D03*
X00077500Y00488000D02*
D03*
Y00475500D02*
D03*
X00566500Y00309000D02*
D03*
X00573500Y00229500D02*
D03*
Y00217500D02*
D03*
X00560500Y00229500D02*
D03*
Y00217500D02*
D03*
X00573500Y00182500D02*
D03*
X00560500D02*
D03*
X00573500Y00162500D02*
D03*
X00560500D02*
D03*
Y00130500D02*
D03*
X00573500D02*
D03*
X00534500Y00194500D02*
D03*
X00522000D02*
D03*
X00534500Y00206500D02*
D03*
X00522000D02*
D03*
X00752500Y00160500D02*
D03*
X00728500Y00418500D02*
D03*
Y00394500D02*
D03*
X00740000Y00412500D02*
D03*
Y00400500D02*
D03*
X00728500Y00166500D02*
D03*
X00740000Y00160500D02*
D03*
Y00274500D02*
D03*
Y00286500D02*
D03*
X00728500Y00268500D02*
D03*
Y00292500D02*
D03*
X00606000Y00229500D02*
D03*
X00618500Y00457500D02*
D03*
Y00481500D02*
D03*
Y00331500D02*
D03*
Y00355500D02*
D03*
Y00229500D02*
D03*
X00606000Y00217500D02*
D03*
X00063000Y00488000D02*
D03*
X00084500Y00297500D02*
D03*
X00109500Y00285000D02*
D03*
X00013000Y00421500D02*
D03*
X00050000Y00423500D02*
D03*
M02*
