G04*
G04 #@! TF.GenerationSoftware,Altium Limited,Altium Designer,23.11.1 (41)*
G04*
G04 Layer_Color=8421504*
%FSAX44Y44*%
%MOMM*%
G71*
G04*
G04 #@! TF.SameCoordinates,9D00B8A6-494E-4DAA-AF83-715044521DEC*
G04*
G04*
G04 #@! TF.FilePolarity,Positive*
G04*
G01*
G75*
%ADD19R,1.1500X0.6000*%
%ADD20R,2.4000X3.4000*%
%ADD21R,0.8100X0.9900*%
%ADD22R,0.9900X0.8100*%
%ADD23R,1.8923X1.4986*%
%ADD24R,1.5200X2.1800*%
%ADD25R,0.9500X1.4500*%
%ADD26R,1.2000X0.4500*%
%ADD27R,1.4000X1.6000*%
%ADD28R,1.9000X1.9000*%
%ADD29R,3.2000X1.0000*%
%ADD30R,1.4500X0.4500*%
%ADD31R,0.3000X0.7500*%
%ADD32R,1.4500X0.9500*%
%ADD33R,1.5000X0.6000*%
%ADD34R,1.0200X1.4700*%
%ADD35R,1.3500X0.4500*%
%ADD36R,0.6500X1.5250*%
%ADD37R,1.0000X1.0000*%
%ADD38R,1.3000X0.9000*%
%ADD39R,0.6000X1.1500*%
%ADD40R,1.8000X1.1700*%
%ADD41R,2.7400X4.7500*%
%ADD42R,0.6000X1.5000*%
%ADD43R,2.2000X0.6100*%
%ADD44R,0.3000X0.8500*%
%ADD45R,1.6000X1.3000*%
%ADD46R,1.4000X0.6000*%
%ADD47R,0.6000X1.2500*%
%ADD48R,1.5000X2.1000*%
%ADD49R,1.3500X0.4000*%
%ADD50R,0.8000X2.2000*%
%ADD51R,5.8000X6.4000*%
G04:AMPARAMS|DCode=52|XSize=1.1mm|YSize=3.7mm|CornerRadius=0.0825mm|HoleSize=0mm|Usage=FLASHONLY|Rotation=90.000|XOffset=0mm|YOffset=0mm|HoleType=Round|Shape=RoundedRectangle|*
%AMROUNDEDRECTD52*
21,1,1.1000,3.5350,0,0,90.0*
21,1,0.9350,3.7000,0,0,90.0*
1,1,0.1650,1.7675,0.4675*
1,1,0.1650,1.7675,-0.4675*
1,1,0.1650,-1.7675,-0.4675*
1,1,0.1650,-1.7675,0.4675*
%
%ADD52ROUNDEDRECTD52*%
D19*
X00515500Y00082500D02*
D03*
Y00092000D02*
D03*
Y00101500D02*
D03*
X00490500D02*
D03*
Y00082500D02*
D03*
X00390500D02*
D03*
Y00092000D02*
D03*
Y00101500D02*
D03*
X00365500D02*
D03*
Y00082500D02*
D03*
D20*
X00606000Y00095000D02*
D03*
X00558000D02*
D03*
D21*
X00507400Y00438500D02*
D03*
X00493600D02*
D03*
X00377900Y00446000D02*
D03*
X00364100D02*
D03*
X00546900Y00385500D02*
D03*
X00533100Y00385500D02*
D03*
X00050100Y00476500D02*
D03*
X00063900D02*
D03*
X00098400Y00285000D02*
D03*
X00084600D02*
D03*
X00297400Y00327000D02*
D03*
X00283600D02*
D03*
X00174900Y00301000D02*
D03*
X00161100D02*
D03*
X00147400Y00365000D02*
D03*
X00133600D02*
D03*
X00161600D02*
D03*
X00175400D02*
D03*
X00221900Y00332000D02*
D03*
X00208100D02*
D03*
X00225900Y00170500D02*
D03*
X00212100D02*
D03*
X00619600Y00343500D02*
D03*
X00633400D02*
D03*
Y00469500D02*
D03*
X00619600D02*
D03*
X00461100Y00254500D02*
D03*
X00474900D02*
D03*
X00727400Y00406500D02*
D03*
X00713600D02*
D03*
X00481600Y00305000D02*
D03*
X00495400D02*
D03*
X00633400Y00217500D02*
D03*
X00619600D02*
D03*
X00713600Y00154500D02*
D03*
X00727400D02*
D03*
X00643400Y00095000D02*
D03*
X00629600D02*
D03*
X00713600Y00280500D02*
D03*
X00727400D02*
D03*
D22*
X00482500Y00476100D02*
D03*
Y00489900D02*
D03*
X00404000Y00403600D02*
D03*
Y00417400D02*
D03*
X00553500Y00474900D02*
D03*
Y00461100D02*
D03*
X00568000D02*
D03*
Y00474900D02*
D03*
X00068500Y00508600D02*
D03*
Y00522400D02*
D03*
X00328000Y00204600D02*
D03*
Y00218400D02*
D03*
X00241000Y00432400D02*
D03*
Y00418600D02*
D03*
X00171500Y00244100D02*
D03*
Y00257900D02*
D03*
X00374000Y00502100D02*
D03*
Y00515900D02*
D03*
X00328500Y00418600D02*
D03*
Y00432400D02*
D03*
X00440000Y00093900D02*
D03*
Y00080100D02*
D03*
X00361000Y00502100D02*
D03*
Y00515900D02*
D03*
X00387000Y00502100D02*
D03*
Y00515900D02*
D03*
X00315000Y00080100D02*
D03*
Y00093900D02*
D03*
Y00365600D02*
D03*
Y00379400D02*
D03*
X00106000Y00079600D02*
D03*
Y00093400D02*
D03*
X00146000D02*
D03*
Y00079600D02*
D03*
X00280000Y00133600D02*
D03*
Y00147400D02*
D03*
X00206000Y00133600D02*
D03*
Y00147400D02*
D03*
X00340000Y00369900D02*
D03*
Y00356100D02*
D03*
X00437500Y00377400D02*
D03*
Y00363600D02*
D03*
X00216000Y00093400D02*
D03*
Y00079600D02*
D03*
X00256000D02*
D03*
Y00093400D02*
D03*
D23*
X00542510Y00493500D02*
D03*
X00501489D02*
D03*
D24*
X00541850Y00538500D02*
D03*
X00501150D02*
D03*
D25*
X00590000Y00403000D02*
D03*
X00610000D02*
D03*
X00053000Y00439500D02*
D03*
X00361000Y00462500D02*
D03*
X00381000D02*
D03*
X00510500Y00456500D02*
D03*
X00490500D02*
D03*
X00488500Y00378000D02*
D03*
X00073000Y00439500D02*
D03*
X00535500Y00118500D02*
D03*
X00515500D02*
D03*
X00470500D02*
D03*
X00490500D02*
D03*
X00137500Y00282500D02*
D03*
X00157500D02*
D03*
X00137500Y00261500D02*
D03*
X00157500D02*
D03*
X00111000Y00193500D02*
D03*
X00091000D02*
D03*
X00362000Y00252000D02*
D03*
X00382000D02*
D03*
X00529500Y00322000D02*
D03*
X00549500D02*
D03*
X00508500Y00378000D02*
D03*
X00684500Y00343500D02*
D03*
X00664500D02*
D03*
X00684500Y00469500D02*
D03*
X00664500D02*
D03*
X00684500Y00217500D02*
D03*
X00664500D02*
D03*
X00456000Y00230500D02*
D03*
X00476000D02*
D03*
X00420500Y00299500D02*
D03*
X00440500D02*
D03*
X00420500Y00257500D02*
D03*
X00440500D02*
D03*
X00420500Y00278500D02*
D03*
X00440500D02*
D03*
X00234500Y00364500D02*
D03*
X00214500Y00364500D02*
D03*
X00368000Y00408500D02*
D03*
X00348000D02*
D03*
D26*
X00533000Y00420250D02*
D03*
Y00413750D02*
D03*
Y00407250D02*
D03*
Y00400750D02*
D03*
X00558000Y00400750D02*
D03*
Y00407250D02*
D03*
Y00413750D02*
D03*
Y00420250D02*
D03*
D27*
X00052000Y00282000D02*
D03*
Y00218000D02*
D03*
D28*
X00027500Y00262000D02*
D03*
Y00238000D02*
D03*
D29*
X00377500Y00139000D02*
D03*
X00445500D02*
D03*
X00377500Y00179000D02*
D03*
X00445500D02*
D03*
X00043000Y00128500D02*
D03*
X00111000D02*
D03*
X00043000Y00168500D02*
D03*
X00111000D02*
D03*
D30*
X00462250Y00463250D02*
D03*
Y00456750D02*
D03*
Y00450250D02*
D03*
X00403750Y00476250D02*
D03*
Y00450250D02*
D03*
X00462250Y00437250D02*
D03*
X00403750Y00463250D02*
D03*
X00462250Y00482750D02*
D03*
Y00489250D02*
D03*
Y00495750D02*
D03*
Y00502250D02*
D03*
Y00508750D02*
D03*
Y00515250D02*
D03*
Y00521750D02*
D03*
Y00476250D02*
D03*
X00403750Y00443750D02*
D03*
Y00437250D02*
D03*
X00462250Y00469750D02*
D03*
X00403750Y00521750D02*
D03*
Y00515250D02*
D03*
Y00508750D02*
D03*
Y00502250D02*
D03*
Y00495750D02*
D03*
Y00489250D02*
D03*
Y00482750D02*
D03*
Y00469750D02*
D03*
Y00456750D02*
D03*
X00462250Y00443750D02*
D03*
D31*
X00484000Y00417000D02*
D03*
Y00397000D02*
D03*
X00479000D02*
D03*
X00474000D02*
D03*
X00469000D02*
D03*
Y00417000D02*
D03*
X00474000D02*
D03*
X00479000D02*
D03*
D32*
X00446500Y00400000D02*
D03*
Y00420000D02*
D03*
X00528500Y00182500D02*
D03*
Y00162500D02*
D03*
X00464000Y00340500D02*
D03*
Y00360500D02*
D03*
X00545000Y00277000D02*
D03*
Y00297000D02*
D03*
X00566500Y00297000D02*
D03*
Y00277000D02*
D03*
X00464000Y00305000D02*
D03*
Y00325000D02*
D03*
D33*
X00308500Y00252000D02*
D03*
X00193500Y00292000D02*
D03*
Y00284000D02*
D03*
Y00276000D02*
D03*
Y00268000D02*
D03*
Y00260000D02*
D03*
Y00252000D02*
D03*
Y00244000D02*
D03*
Y00236000D02*
D03*
Y00228000D02*
D03*
Y00220000D02*
D03*
Y00212000D02*
D03*
X00308500D02*
D03*
Y00220000D02*
D03*
Y00228000D02*
D03*
Y00236000D02*
D03*
Y00244000D02*
D03*
Y00260000D02*
D03*
Y00268000D02*
D03*
Y00276000D02*
D03*
Y00284000D02*
D03*
Y00292000D02*
D03*
D34*
X00328400Y00252000D02*
D03*
X00344600D02*
D03*
X00216400Y00385000D02*
D03*
X00232600Y00385000D02*
D03*
X00054900Y00459000D02*
D03*
X00071100D02*
D03*
X00349900Y00429000D02*
D03*
X00366100D02*
D03*
D35*
X00488500Y00360250D02*
D03*
X00549500Y00340750D02*
D03*
X00549500Y00347250D02*
D03*
Y00353750D02*
D03*
X00549500Y00360250D02*
D03*
X00488500Y00353750D02*
D03*
Y00347250D02*
D03*
Y00340750D02*
D03*
X00525000Y00270250D02*
D03*
Y00276750D02*
D03*
Y00283250D02*
D03*
Y00289750D02*
D03*
X00464000D02*
D03*
Y00283250D02*
D03*
Y00276750D02*
D03*
Y00270250D02*
D03*
D36*
X00586050Y00199620D02*
D03*
X00547950Y00199620D02*
D03*
X00560650Y00199620D02*
D03*
X00573350D02*
D03*
X00586050Y00145380D02*
D03*
X00573350D02*
D03*
X00560650D02*
D03*
X00547950Y00145380D02*
D03*
D37*
X00378500Y00159000D02*
D03*
X00044000Y00148500D02*
D03*
D38*
X00476500Y00407000D02*
D03*
D39*
X00106500Y00240500D02*
D03*
X00087500D02*
D03*
Y00265500D02*
D03*
X00097000D02*
D03*
X00106500D02*
D03*
D40*
X00031500Y00445800D02*
D03*
Y00475200D02*
D03*
D41*
X00433000Y00479500D02*
D03*
D42*
X00211000Y00194500D02*
D03*
X00219000D02*
D03*
X00227000D02*
D03*
X00235000D02*
D03*
X00243000D02*
D03*
X00251000D02*
D03*
X00259000D02*
D03*
X00267000D02*
D03*
X00275000D02*
D03*
X00283000D02*
D03*
X00291000D02*
D03*
Y00309500D02*
D03*
X00283000D02*
D03*
X00275000D02*
D03*
X00267000D02*
D03*
X00259000D02*
D03*
X00251000D02*
D03*
X00243000D02*
D03*
X00235000D02*
D03*
X00227000D02*
D03*
X00219000D02*
D03*
X00211000D02*
D03*
D43*
X00031500Y00421500D02*
D03*
D44*
X00024000Y00431000D02*
D03*
X00029000D02*
D03*
X00034000D02*
D03*
X00039000D02*
D03*
Y00412000D02*
D03*
X00034000D02*
D03*
X00029000D02*
D03*
X00024000D02*
D03*
D45*
X00262000Y00152000D02*
D03*
X00224000D02*
D03*
Y00129000D02*
D03*
X00262000D02*
D03*
D46*
X00296500Y00356000D02*
D03*
X00296500Y00365500D02*
D03*
X00296500Y00375000D02*
D03*
X00271500D02*
D03*
X00271500Y00365500D02*
D03*
X00271500Y00356000D02*
D03*
X00420000D02*
D03*
X00420000Y00365500D02*
D03*
X00420000Y00375000D02*
D03*
X00395000D02*
D03*
X00395000Y00365500D02*
D03*
X00395000Y00356000D02*
D03*
D47*
X00355000D02*
D03*
X00374000D02*
D03*
X00364500Y00377000D02*
D03*
D48*
X00611000Y00193500D02*
D03*
Y00151500D02*
D03*
D49*
X00054250Y00263000D02*
D03*
Y00256500D02*
D03*
Y00250000D02*
D03*
Y00243500D02*
D03*
Y00237000D02*
D03*
D50*
X00307300Y00411500D02*
D03*
X00295900D02*
D03*
X00273100D02*
D03*
X00261700D02*
D03*
D51*
X00284500Y00474500D02*
D03*
D52*
X00035500Y00492500D02*
D03*
X00035500Y00522500D02*
D03*
M02*
